G04 #@! TF.FileFunction,Profile,NP*
%FSLAX46Y46*%
G04 Gerber Fmt 4.6, Leading zero omitted, Abs format (unit mm)*
G04 Created by KiCad (PCBNEW (2016-04-11 BZR 6687, Git f239aee)-product) date 4/21/2016 12:06:05 PM*
%MOMM*%
G01*
G04 APERTURE LIST*
%ADD10C,0.020000*%
%ADD11C,0.100000*%
G04 APERTURE END LIST*
D10*
D11*
X75303062Y-63000000D02*
G75*
G02X90000000Y-51000000I14696938J-3000000D01*
G01*
X104696938Y-63000000D02*
G75*
G03X90000000Y-51000000I-14696938J-3000000D01*
G01*
X64698871Y-63009481D02*
G75*
G03X50000000Y-51000000I-14698871J-2990519D01*
G01*
X35303062Y-63000000D02*
G75*
G02X50000000Y-51000000I14696938J-3000000D01*
G01*
X115000000Y-27000000D02*
X115000000Y-31000000D01*
X99000000Y-27000000D02*
X99000000Y-31000000D01*
X41000000Y-31000000D02*
X41000000Y-27000000D01*
X25000000Y-27000000D02*
X25000000Y-31000000D01*
X81000000Y-31000000D02*
X99000000Y-31000000D01*
X76000000Y-26000000D02*
X81000000Y-31000000D01*
X64000000Y-26000000D02*
X76000000Y-26000000D01*
X59000000Y-31000000D02*
X41000000Y-31000000D01*
X64000000Y-26000000D02*
X59000000Y-31000000D01*
X127000000Y-27000000D02*
X115000000Y-27000000D01*
X13000000Y-27000000D02*
X25000000Y-27000000D01*
X35300000Y-63000000D02*
X13000000Y-63000000D01*
X13000000Y-15000000D02*
X41000000Y-15000000D01*
X13000000Y-60000000D02*
X13000000Y-63000000D01*
X13000000Y-27000000D02*
X13000000Y-15000000D01*
X13000000Y-43000000D02*
X13000000Y-60000000D01*
X41000000Y-15000000D02*
X41000000Y-27000000D01*
X127000000Y-15000000D02*
X99000000Y-15000000D01*
X127000000Y-27000000D02*
X127000000Y-15000000D01*
X99000000Y-15000000D02*
X99000000Y-27000000D01*
X127000000Y-60000000D02*
X127000000Y-63000000D01*
X115000000Y-31000000D02*
X127000000Y-43000000D01*
X127000000Y-43000000D02*
X127000000Y-60000000D01*
X64700000Y-63000000D02*
X75300000Y-63000000D01*
X104700000Y-63000000D02*
X127000000Y-63000000D01*
X25000000Y-31000000D02*
X13000000Y-43000000D01*
M02*
