G04 #@! TF.FileFunction,Copper,L1,Top,Signal*
%FSLAX46Y46*%
G04 Gerber Fmt 4.6, Leading zero omitted, Abs format (unit mm)*
G04 Created by KiCad (PCBNEW (2016-04-11 BZR 6687, Git f239aee)-product) date 4/21/2016 12:06:05 PM*
%MOMM*%
G01*
G04 APERTURE LIST*
%ADD10C,0.020000*%
%ADD11R,1.000000X1.250000*%
%ADD12R,1.198880X1.198880*%
%ADD13R,1.300000X0.700000*%
%ADD14R,0.700000X1.300000*%
%ADD15R,0.800000X0.900000*%
%ADD16R,1.000000X1.500000*%
%ADD17R,1.050000X1.050000*%
%ADD18C,1.050000*%
%ADD19R,2.300000X1.100000*%
%ADD20R,2.700000X1.400000*%
%ADD21R,0.850000X0.350000*%
%ADD22C,2.250000*%
%ADD23C,0.452400*%
%ADD24C,0.508000*%
%ADD25C,1.016000*%
%ADD26C,0.304800*%
%ADD27C,0.152400*%
%ADD28C,0.025400*%
G04 APERTURE END LIST*
D10*
D11*
X91170000Y-36449000D03*
X89170000Y-36449000D03*
X91290400Y-41149600D03*
X89290400Y-41149600D03*
D12*
X59817000Y-36101020D03*
X59817000Y-34002980D03*
X80137000Y-36101020D03*
X80137000Y-34002980D03*
D13*
X62000000Y-35950000D03*
X62000000Y-34050000D03*
D14*
X76520000Y-34163000D03*
X78420000Y-34163000D03*
D15*
X93284000Y-36814000D03*
X95184000Y-36814000D03*
X94234000Y-34814000D03*
D16*
X92750000Y-33000000D03*
X94250000Y-33000000D03*
X52000000Y-47500000D03*
X49000000Y-47500000D03*
X50500000Y-47500000D03*
X47500000Y-47500000D03*
X46000000Y-47500000D03*
X93000000Y-47500000D03*
X90000000Y-47500000D03*
X91500000Y-47500000D03*
X88500000Y-47500000D03*
X87000000Y-47500000D03*
D17*
X51000000Y-33000000D03*
D18*
X52270000Y-33000000D03*
X53540000Y-33000000D03*
X54810000Y-33000000D03*
X56080000Y-33000000D03*
X52270000Y-34270000D03*
X53540000Y-34270000D03*
X54810000Y-34270000D03*
X56080000Y-34270000D03*
X51000000Y-34270000D03*
D16*
X39000000Y-33000000D03*
X37500000Y-33000000D03*
X40500000Y-33000000D03*
X101000000Y-33000000D03*
X99500000Y-33000000D03*
X102500000Y-33000000D03*
X106172000Y-16859000D03*
X107672000Y-16859000D03*
X104672000Y-16859000D03*
X20193000Y-16859000D03*
X21693000Y-16859000D03*
X18693000Y-16859000D03*
D19*
X39850000Y-44150000D03*
X39850000Y-47850000D03*
X34150000Y-47850000D03*
X34150000Y-44150000D03*
X107150000Y-57850000D03*
X107150000Y-54150000D03*
X112850000Y-54150000D03*
X112850000Y-57850000D03*
X122850000Y-44150000D03*
X122850000Y-47850000D03*
X117150000Y-47850000D03*
X117150000Y-44150000D03*
X102850000Y-44150000D03*
X102850000Y-47850000D03*
X97150000Y-47850000D03*
X97150000Y-44150000D03*
X107150000Y-37850000D03*
X107150000Y-34150000D03*
X112850000Y-34150000D03*
X112850000Y-37850000D03*
X32850000Y-37150000D03*
X32850000Y-40850000D03*
X27150000Y-40850000D03*
X27150000Y-37150000D03*
X27150000Y-54850000D03*
X27150000Y-51150000D03*
X32850000Y-51150000D03*
X32850000Y-54850000D03*
X25850000Y-44150000D03*
X25850000Y-47850000D03*
X20150000Y-47850000D03*
X20150000Y-44150000D03*
X61850000Y-44150000D03*
X61850000Y-47850000D03*
X56150000Y-47850000D03*
X56150000Y-44150000D03*
X83850000Y-44150000D03*
X83850000Y-47850000D03*
X78150000Y-47850000D03*
X78150000Y-44150000D03*
X72850000Y-44150000D03*
X72850000Y-47850000D03*
X67150000Y-47850000D03*
X67150000Y-44150000D03*
X20850000Y-19150000D03*
X20850000Y-22850000D03*
X15150000Y-22850000D03*
X15150000Y-19150000D03*
X38850000Y-19150000D03*
X38850000Y-22850000D03*
X33150000Y-22850000D03*
X33150000Y-19150000D03*
X106850000Y-19150000D03*
X106850000Y-22850000D03*
X101150000Y-22850000D03*
X101150000Y-19150000D03*
X124850000Y-19150000D03*
X124850000Y-22850000D03*
X119150000Y-22850000D03*
X119150000Y-19150000D03*
D20*
X94361000Y-41405000D03*
X94361000Y-38605000D03*
D21*
X91397000Y-38862000D03*
X91397000Y-38212000D03*
X91397000Y-39512000D03*
X89197000Y-39512000D03*
X89197000Y-38212000D03*
X89197000Y-38862000D03*
D22*
X18000000Y-54000000D03*
X70000000Y-58000000D03*
X122000000Y-54000000D03*
X113000000Y-21000000D03*
X27000000Y-21000000D03*
D23*
X75565000Y-46736000D03*
X81661000Y-36195000D03*
X96266000Y-36449000D03*
X75057000Y-44323000D03*
X64770000Y-44323000D03*
X63754000Y-31496000D03*
X76200000Y-31877000D03*
X63500000Y-35179000D03*
X71501000Y-34290000D03*
X107061000Y-56642000D03*
X115468400Y-44145200D03*
X95300800Y-44145200D03*
X105410000Y-37846000D03*
X34671000Y-37211000D03*
X34671000Y-54864000D03*
X27686000Y-44196000D03*
X40000000Y-42000000D03*
X61976000Y-42926000D03*
X73025000Y-41275000D03*
X67056000Y-42418000D03*
D24*
X75565000Y-49530000D02*
X75565000Y-46736000D01*
X53594000Y-49530000D02*
X53594000Y-43561000D01*
X59817000Y-37338000D02*
X53594000Y-43561000D01*
X59817000Y-37338000D02*
X59817000Y-36101020D01*
X52000000Y-47500000D02*
X52000000Y-49530000D01*
D25*
X51000000Y-33000000D02*
X46375000Y-33000000D01*
X94742000Y-48641000D02*
X93853000Y-49530000D01*
X93853000Y-49530000D02*
X75565000Y-49530000D01*
X75565000Y-49530000D02*
X53594000Y-49530000D01*
X53594000Y-49530000D02*
X52070000Y-49530000D01*
X52070000Y-49530000D02*
X44323000Y-49530000D01*
X44323000Y-49530000D02*
X43307000Y-48514000D01*
X43307000Y-48514000D02*
X43307000Y-36068000D01*
X94742000Y-48641000D02*
X94742000Y-47500000D01*
X46375000Y-33000000D02*
X43307000Y-36068000D01*
X91290400Y-41149600D02*
X91290400Y-42649400D01*
X91290400Y-42649400D02*
X94742000Y-46101000D01*
X94742000Y-46101000D02*
X94742000Y-47500000D01*
X91397000Y-39794000D02*
X91397000Y-40048000D01*
D26*
X91397000Y-39512000D02*
X91397000Y-39794000D01*
D25*
X91290400Y-40154600D02*
X91290400Y-41149600D01*
X91397000Y-40048000D02*
X91290400Y-40154600D01*
D26*
X91070400Y-40016400D02*
X90567600Y-39513600D01*
D24*
X84074000Y-36195000D02*
X81661000Y-36195000D01*
X84074000Y-36195000D02*
X84582000Y-36703000D01*
X84582000Y-41275000D02*
X84582000Y-36703000D01*
X85956400Y-42649400D02*
X84582000Y-41275000D01*
X91290400Y-42649400D02*
X85956400Y-42649400D01*
X93000000Y-47500000D02*
X94742000Y-47500000D01*
X81661000Y-36195000D02*
X80230980Y-36195000D01*
X80230980Y-36195000D02*
X80137000Y-36101020D01*
D26*
X91390400Y-39513600D02*
X90567600Y-39513600D01*
X89917600Y-38863600D02*
X89190400Y-38863600D01*
X90567600Y-39513600D02*
X89917600Y-38863600D01*
D24*
X95184000Y-36814000D02*
X95901000Y-36814000D01*
X95901000Y-36814000D02*
X96266000Y-36449000D01*
X53540000Y-33000000D02*
X53540000Y-31540000D01*
X52270000Y-33000000D02*
X52270000Y-31730000D01*
D25*
X93284000Y-36814000D02*
X93284000Y-37528000D01*
X91170000Y-36449000D02*
X92205000Y-36449000D01*
X92205000Y-36449000D02*
X94361000Y-38605000D01*
X91170000Y-36449000D02*
X91567000Y-36449000D01*
X91567000Y-36449000D02*
X92750000Y-35266000D01*
X91170000Y-36449000D02*
X91170000Y-35703000D01*
X91170000Y-35703000D02*
X92750000Y-34123000D01*
X91170000Y-36449000D02*
X92919000Y-36449000D01*
X92919000Y-36449000D02*
X93284000Y-36814000D01*
X92750000Y-33000000D02*
X92750000Y-34123000D01*
X92750000Y-34123000D02*
X92750000Y-35266000D01*
X92750000Y-35266000D02*
X92750000Y-36280000D01*
X92750000Y-36280000D02*
X93284000Y-36814000D01*
D26*
X91390400Y-38213600D02*
X91390400Y-36669400D01*
X91390400Y-36669400D02*
X91170000Y-36449000D01*
X91390400Y-38213600D02*
X89190400Y-38213600D01*
X91170000Y-38211000D02*
X91172600Y-38213600D01*
X91172600Y-38213600D02*
X91390400Y-38213600D01*
D24*
X59817000Y-34002980D02*
X61952980Y-34002980D01*
X61952980Y-34002980D02*
X62000000Y-34050000D01*
X61972020Y-34077980D02*
X62000000Y-34050000D01*
D27*
X62024020Y-34025980D02*
X62000000Y-34050000D01*
X80137000Y-34002980D02*
X78580020Y-34002980D01*
X78580020Y-34002980D02*
X78420000Y-34163000D01*
X62000000Y-35950000D02*
X62729000Y-35950000D01*
X62729000Y-35950000D02*
X63500000Y-35179000D01*
X76520000Y-34163000D02*
X71628000Y-34163000D01*
X71628000Y-34163000D02*
X71501000Y-34290000D01*
D26*
X91390400Y-38863600D02*
X92076600Y-38863600D01*
X92713000Y-41405000D02*
X94234000Y-41405000D01*
X92329000Y-41021000D02*
X92713000Y-41405000D01*
X92329000Y-39116000D02*
X92329000Y-41021000D01*
X92076600Y-38863600D02*
X92329000Y-39116000D01*
D25*
X94250000Y-33000000D02*
X94250000Y-34798000D01*
X94250000Y-34798000D02*
X94234000Y-34814000D01*
D24*
X20193000Y-16872000D02*
X20193000Y-18789400D01*
X21693000Y-16872000D02*
X22860000Y-16872000D01*
X23614000Y-16118000D02*
X31758000Y-16118000D01*
X31758000Y-16118000D02*
X33150000Y-17510000D01*
X22860000Y-16872000D02*
X23614000Y-16118000D01*
X33150000Y-17510000D02*
X33150000Y-19150000D01*
X106172000Y-19039000D02*
X106172000Y-16880000D01*
X109347000Y-16118000D02*
X108585000Y-16880000D01*
X117221000Y-16118000D02*
X109347000Y-16118000D01*
X119150000Y-18047000D02*
X117221000Y-16118000D01*
X108585000Y-16880000D02*
X107672000Y-16880000D01*
X119150000Y-19150000D02*
X119150000Y-18047000D01*
D27*
X107150000Y-56731000D02*
X107061000Y-56642000D01*
X107150000Y-56731000D02*
X107150000Y-57850000D01*
X117150000Y-44150000D02*
X115473200Y-44150000D01*
X115473200Y-44150000D02*
X115468400Y-44145200D01*
X95305600Y-44150000D02*
X97150000Y-44150000D01*
X95300800Y-44145200D02*
X95305600Y-44150000D01*
X107150000Y-37850000D02*
X105414000Y-37850000D01*
X105414000Y-37850000D02*
X105410000Y-37846000D01*
X32850000Y-37150000D02*
X34610000Y-37150000D01*
X34610000Y-37150000D02*
X34671000Y-37211000D01*
X32850000Y-54850000D02*
X34657000Y-54850000D01*
X34657000Y-54850000D02*
X34671000Y-54864000D01*
X27640000Y-44150000D02*
X25850000Y-44150000D01*
X27640000Y-44150000D02*
X27686000Y-44196000D01*
X39850000Y-44150000D02*
X39850000Y-42150000D01*
X39850000Y-42150000D02*
X40000000Y-42000000D01*
X61850000Y-44150000D02*
X61850000Y-43052000D01*
X61850000Y-43052000D02*
X61976000Y-42926000D01*
X78150000Y-44150000D02*
X78150000Y-42971000D01*
X76454000Y-41275000D02*
X73025000Y-41275000D01*
X78150000Y-42971000D02*
X76454000Y-41275000D01*
X67150000Y-44150000D02*
X67150000Y-42512000D01*
X67150000Y-42512000D02*
X67056000Y-42418000D01*
D28*
G36*
X40784900Y-26784300D02*
X24892000Y-26784300D01*
X24888984Y-26784900D01*
X13215100Y-26784900D01*
X13215100Y-23221475D01*
X13479300Y-23221475D01*
X13479300Y-23503573D01*
X13558572Y-23694953D01*
X13705047Y-23841428D01*
X13896426Y-23920700D01*
X14778525Y-23920700D01*
X14908700Y-23790525D01*
X14908700Y-23091300D01*
X15391300Y-23091300D01*
X15391300Y-23790525D01*
X15521475Y-23920700D01*
X16403574Y-23920700D01*
X16594953Y-23841428D01*
X16741428Y-23694953D01*
X16820700Y-23503573D01*
X16820700Y-23221475D01*
X19179300Y-23221475D01*
X19179300Y-23503573D01*
X19258572Y-23694953D01*
X19405047Y-23841428D01*
X19596426Y-23920700D01*
X20478525Y-23920700D01*
X20608700Y-23790525D01*
X20608700Y-23091300D01*
X21091300Y-23091300D01*
X21091300Y-23790525D01*
X21221475Y-23920700D01*
X22103574Y-23920700D01*
X22294953Y-23841428D01*
X22441428Y-23694953D01*
X22520700Y-23503573D01*
X22520700Y-23221475D01*
X31479300Y-23221475D01*
X31479300Y-23503573D01*
X31558572Y-23694953D01*
X31705047Y-23841428D01*
X31896426Y-23920700D01*
X32778525Y-23920700D01*
X32908700Y-23790525D01*
X32908700Y-23091300D01*
X33391300Y-23091300D01*
X33391300Y-23790525D01*
X33521475Y-23920700D01*
X34403574Y-23920700D01*
X34594953Y-23841428D01*
X34741428Y-23694953D01*
X34820700Y-23503573D01*
X34820700Y-23221475D01*
X37179300Y-23221475D01*
X37179300Y-23503573D01*
X37258572Y-23694953D01*
X37405047Y-23841428D01*
X37596426Y-23920700D01*
X38478525Y-23920700D01*
X38608700Y-23790525D01*
X38608700Y-23091300D01*
X39091300Y-23091300D01*
X39091300Y-23790525D01*
X39221475Y-23920700D01*
X40103574Y-23920700D01*
X40294953Y-23841428D01*
X40441428Y-23694953D01*
X40520700Y-23503573D01*
X40520700Y-23221475D01*
X40390525Y-23091300D01*
X39091300Y-23091300D01*
X38608700Y-23091300D01*
X37309475Y-23091300D01*
X37179300Y-23221475D01*
X34820700Y-23221475D01*
X34690525Y-23091300D01*
X33391300Y-23091300D01*
X32908700Y-23091300D01*
X31609475Y-23091300D01*
X31479300Y-23221475D01*
X22520700Y-23221475D01*
X22390525Y-23091300D01*
X21091300Y-23091300D01*
X20608700Y-23091300D01*
X19309475Y-23091300D01*
X19179300Y-23221475D01*
X16820700Y-23221475D01*
X16690525Y-23091300D01*
X15391300Y-23091300D01*
X14908700Y-23091300D01*
X13609475Y-23091300D01*
X13479300Y-23221475D01*
X13215100Y-23221475D01*
X13215100Y-22196427D01*
X13479300Y-22196427D01*
X13479300Y-22478525D01*
X13609475Y-22608700D01*
X14908700Y-22608700D01*
X14908700Y-21909475D01*
X15391300Y-21909475D01*
X15391300Y-22608700D01*
X16690525Y-22608700D01*
X16820700Y-22478525D01*
X16820700Y-22196427D01*
X19179300Y-22196427D01*
X19179300Y-22478525D01*
X19309475Y-22608700D01*
X20608700Y-22608700D01*
X20608700Y-21909475D01*
X21091300Y-21909475D01*
X21091300Y-22608700D01*
X22390525Y-22608700D01*
X22520700Y-22478525D01*
X22520700Y-22196427D01*
X22441428Y-22005047D01*
X22294953Y-21858572D01*
X22103574Y-21779300D01*
X21221475Y-21779300D01*
X21091300Y-21909475D01*
X20608700Y-21909475D01*
X20478525Y-21779300D01*
X19596426Y-21779300D01*
X19405047Y-21858572D01*
X19258572Y-22005047D01*
X19179300Y-22196427D01*
X16820700Y-22196427D01*
X16741428Y-22005047D01*
X16594953Y-21858572D01*
X16403574Y-21779300D01*
X15521475Y-21779300D01*
X15391300Y-21909475D01*
X14908700Y-21909475D01*
X14778525Y-21779300D01*
X13896426Y-21779300D01*
X13705047Y-21858572D01*
X13558572Y-22005047D01*
X13479300Y-22196427D01*
X13215100Y-22196427D01*
X13215100Y-21324329D01*
X25362017Y-21324329D01*
X25610816Y-21926470D01*
X26071106Y-22387565D01*
X26672812Y-22637415D01*
X27324329Y-22637983D01*
X27926470Y-22389184D01*
X28119564Y-22196427D01*
X31479300Y-22196427D01*
X31479300Y-22478525D01*
X31609475Y-22608700D01*
X32908700Y-22608700D01*
X32908700Y-21909475D01*
X33391300Y-21909475D01*
X33391300Y-22608700D01*
X34690525Y-22608700D01*
X34820700Y-22478525D01*
X34820700Y-22196427D01*
X37179300Y-22196427D01*
X37179300Y-22478525D01*
X37309475Y-22608700D01*
X38608700Y-22608700D01*
X38608700Y-21909475D01*
X39091300Y-21909475D01*
X39091300Y-22608700D01*
X40390525Y-22608700D01*
X40520700Y-22478525D01*
X40520700Y-22196427D01*
X40441428Y-22005047D01*
X40294953Y-21858572D01*
X40103574Y-21779300D01*
X39221475Y-21779300D01*
X39091300Y-21909475D01*
X38608700Y-21909475D01*
X38478525Y-21779300D01*
X37596426Y-21779300D01*
X37405047Y-21858572D01*
X37258572Y-22005047D01*
X37179300Y-22196427D01*
X34820700Y-22196427D01*
X34741428Y-22005047D01*
X34594953Y-21858572D01*
X34403574Y-21779300D01*
X33521475Y-21779300D01*
X33391300Y-21909475D01*
X32908700Y-21909475D01*
X32778525Y-21779300D01*
X31896426Y-21779300D01*
X31705047Y-21858572D01*
X31558572Y-22005047D01*
X31479300Y-22196427D01*
X28119564Y-22196427D01*
X28387565Y-21928894D01*
X28637415Y-21327188D01*
X28637983Y-20675671D01*
X28389184Y-20073530D01*
X27928894Y-19612435D01*
X27327188Y-19362585D01*
X26675671Y-19362017D01*
X26073530Y-19610816D01*
X25612435Y-20071106D01*
X25362585Y-20672812D01*
X25362017Y-21324329D01*
X13215100Y-21324329D01*
X13215100Y-18600000D01*
X13831666Y-18600000D01*
X13831666Y-19700000D01*
X13844480Y-19764419D01*
X13880970Y-19819030D01*
X13935581Y-19855520D01*
X14000000Y-19868334D01*
X16300000Y-19868334D01*
X16364419Y-19855520D01*
X16419030Y-19819030D01*
X16455520Y-19764419D01*
X16468334Y-19700000D01*
X16468334Y-18600000D01*
X16455520Y-18535581D01*
X16419030Y-18480970D01*
X16364419Y-18444480D01*
X16300000Y-18431666D01*
X14000000Y-18431666D01*
X13935581Y-18444480D01*
X13880970Y-18480970D01*
X13844480Y-18535581D01*
X13831666Y-18600000D01*
X13215100Y-18600000D01*
X13215100Y-17230475D01*
X17672300Y-17230475D01*
X17672300Y-17712573D01*
X17751572Y-17903953D01*
X17898047Y-18050428D01*
X18089426Y-18129700D01*
X18321525Y-18129700D01*
X18451700Y-17999525D01*
X18451700Y-17100300D01*
X17802475Y-17100300D01*
X17672300Y-17230475D01*
X13215100Y-17230475D01*
X13215100Y-16005427D01*
X17672300Y-16005427D01*
X17672300Y-16487525D01*
X17802475Y-16617700D01*
X18451700Y-16617700D01*
X18451700Y-15718475D01*
X18934300Y-15718475D01*
X18934300Y-16617700D01*
X18954300Y-16617700D01*
X18954300Y-17100300D01*
X18934300Y-17100300D01*
X18934300Y-17999525D01*
X19064475Y-18129700D01*
X19296574Y-18129700D01*
X19487953Y-18050428D01*
X19634428Y-17903953D01*
X19687341Y-17776208D01*
X19693000Y-17777334D01*
X19773900Y-17777334D01*
X19773900Y-18431666D01*
X19700000Y-18431666D01*
X19635581Y-18444480D01*
X19580970Y-18480970D01*
X19544480Y-18535581D01*
X19531666Y-18600000D01*
X19531666Y-19700000D01*
X19544480Y-19764419D01*
X19580970Y-19819030D01*
X19635581Y-19855520D01*
X19700000Y-19868334D01*
X22000000Y-19868334D01*
X22064419Y-19855520D01*
X22119030Y-19819030D01*
X22155520Y-19764419D01*
X22168334Y-19700000D01*
X22168334Y-18600000D01*
X22155520Y-18535581D01*
X22119030Y-18480970D01*
X22064419Y-18444480D01*
X22000000Y-18431666D01*
X20612100Y-18431666D01*
X20612100Y-17777334D01*
X20693000Y-17777334D01*
X20757419Y-17764520D01*
X20812030Y-17728030D01*
X20848520Y-17673419D01*
X20861334Y-17609000D01*
X20861334Y-16109000D01*
X21024666Y-16109000D01*
X21024666Y-17609000D01*
X21037480Y-17673419D01*
X21073970Y-17728030D01*
X21128581Y-17764520D01*
X21193000Y-17777334D01*
X22193000Y-17777334D01*
X22257419Y-17764520D01*
X22312030Y-17728030D01*
X22348520Y-17673419D01*
X22361334Y-17609000D01*
X22361334Y-17291100D01*
X22860000Y-17291100D01*
X23020383Y-17259198D01*
X23156348Y-17168348D01*
X23787596Y-16537100D01*
X31584404Y-16537100D01*
X32730900Y-17683597D01*
X32730900Y-18431666D01*
X32000000Y-18431666D01*
X31935581Y-18444480D01*
X31880970Y-18480970D01*
X31844480Y-18535581D01*
X31831666Y-18600000D01*
X31831666Y-19700000D01*
X31844480Y-19764419D01*
X31880970Y-19819030D01*
X31935581Y-19855520D01*
X32000000Y-19868334D01*
X34300000Y-19868334D01*
X34364419Y-19855520D01*
X34419030Y-19819030D01*
X34455520Y-19764419D01*
X34468334Y-19700000D01*
X34468334Y-18600000D01*
X37531666Y-18600000D01*
X37531666Y-19700000D01*
X37544480Y-19764419D01*
X37580970Y-19819030D01*
X37635581Y-19855520D01*
X37700000Y-19868334D01*
X40000000Y-19868334D01*
X40064419Y-19855520D01*
X40119030Y-19819030D01*
X40155520Y-19764419D01*
X40168334Y-19700000D01*
X40168334Y-18600000D01*
X40155520Y-18535581D01*
X40119030Y-18480970D01*
X40064419Y-18444480D01*
X40000000Y-18431666D01*
X37700000Y-18431666D01*
X37635581Y-18444480D01*
X37580970Y-18480970D01*
X37544480Y-18535581D01*
X37531666Y-18600000D01*
X34468334Y-18600000D01*
X34455520Y-18535581D01*
X34419030Y-18480970D01*
X34364419Y-18444480D01*
X34300000Y-18431666D01*
X33569100Y-18431666D01*
X33569100Y-17510000D01*
X33537198Y-17349617D01*
X33498097Y-17291099D01*
X33446348Y-17213651D01*
X32054348Y-15821652D01*
X32042966Y-15814047D01*
X31918383Y-15730802D01*
X31758000Y-15698900D01*
X23614000Y-15698900D01*
X23453617Y-15730802D01*
X23329034Y-15814047D01*
X23317652Y-15821652D01*
X22686404Y-16452900D01*
X22361334Y-16452900D01*
X22361334Y-16109000D01*
X22348520Y-16044581D01*
X22312030Y-15989970D01*
X22257419Y-15953480D01*
X22193000Y-15940666D01*
X21193000Y-15940666D01*
X21128581Y-15953480D01*
X21073970Y-15989970D01*
X21037480Y-16044581D01*
X21024666Y-16109000D01*
X20861334Y-16109000D01*
X20848520Y-16044581D01*
X20812030Y-15989970D01*
X20757419Y-15953480D01*
X20693000Y-15940666D01*
X19693000Y-15940666D01*
X19687341Y-15941792D01*
X19634428Y-15814047D01*
X19487953Y-15667572D01*
X19296574Y-15588300D01*
X19064475Y-15588300D01*
X18934300Y-15718475D01*
X18451700Y-15718475D01*
X18321525Y-15588300D01*
X18089426Y-15588300D01*
X17898047Y-15667572D01*
X17751572Y-15814047D01*
X17672300Y-16005427D01*
X13215100Y-16005427D01*
X13215100Y-15215100D01*
X40784900Y-15215100D01*
X40784900Y-26784300D01*
X40784900Y-26784300D01*
G37*
X40784900Y-26784300D02*
X24892000Y-26784300D01*
X24888984Y-26784900D01*
X13215100Y-26784900D01*
X13215100Y-23221475D01*
X13479300Y-23221475D01*
X13479300Y-23503573D01*
X13558572Y-23694953D01*
X13705047Y-23841428D01*
X13896426Y-23920700D01*
X14778525Y-23920700D01*
X14908700Y-23790525D01*
X14908700Y-23091300D01*
X15391300Y-23091300D01*
X15391300Y-23790525D01*
X15521475Y-23920700D01*
X16403574Y-23920700D01*
X16594953Y-23841428D01*
X16741428Y-23694953D01*
X16820700Y-23503573D01*
X16820700Y-23221475D01*
X19179300Y-23221475D01*
X19179300Y-23503573D01*
X19258572Y-23694953D01*
X19405047Y-23841428D01*
X19596426Y-23920700D01*
X20478525Y-23920700D01*
X20608700Y-23790525D01*
X20608700Y-23091300D01*
X21091300Y-23091300D01*
X21091300Y-23790525D01*
X21221475Y-23920700D01*
X22103574Y-23920700D01*
X22294953Y-23841428D01*
X22441428Y-23694953D01*
X22520700Y-23503573D01*
X22520700Y-23221475D01*
X31479300Y-23221475D01*
X31479300Y-23503573D01*
X31558572Y-23694953D01*
X31705047Y-23841428D01*
X31896426Y-23920700D01*
X32778525Y-23920700D01*
X32908700Y-23790525D01*
X32908700Y-23091300D01*
X33391300Y-23091300D01*
X33391300Y-23790525D01*
X33521475Y-23920700D01*
X34403574Y-23920700D01*
X34594953Y-23841428D01*
X34741428Y-23694953D01*
X34820700Y-23503573D01*
X34820700Y-23221475D01*
X37179300Y-23221475D01*
X37179300Y-23503573D01*
X37258572Y-23694953D01*
X37405047Y-23841428D01*
X37596426Y-23920700D01*
X38478525Y-23920700D01*
X38608700Y-23790525D01*
X38608700Y-23091300D01*
X39091300Y-23091300D01*
X39091300Y-23790525D01*
X39221475Y-23920700D01*
X40103574Y-23920700D01*
X40294953Y-23841428D01*
X40441428Y-23694953D01*
X40520700Y-23503573D01*
X40520700Y-23221475D01*
X40390525Y-23091300D01*
X39091300Y-23091300D01*
X38608700Y-23091300D01*
X37309475Y-23091300D01*
X37179300Y-23221475D01*
X34820700Y-23221475D01*
X34690525Y-23091300D01*
X33391300Y-23091300D01*
X32908700Y-23091300D01*
X31609475Y-23091300D01*
X31479300Y-23221475D01*
X22520700Y-23221475D01*
X22390525Y-23091300D01*
X21091300Y-23091300D01*
X20608700Y-23091300D01*
X19309475Y-23091300D01*
X19179300Y-23221475D01*
X16820700Y-23221475D01*
X16690525Y-23091300D01*
X15391300Y-23091300D01*
X14908700Y-23091300D01*
X13609475Y-23091300D01*
X13479300Y-23221475D01*
X13215100Y-23221475D01*
X13215100Y-22196427D01*
X13479300Y-22196427D01*
X13479300Y-22478525D01*
X13609475Y-22608700D01*
X14908700Y-22608700D01*
X14908700Y-21909475D01*
X15391300Y-21909475D01*
X15391300Y-22608700D01*
X16690525Y-22608700D01*
X16820700Y-22478525D01*
X16820700Y-22196427D01*
X19179300Y-22196427D01*
X19179300Y-22478525D01*
X19309475Y-22608700D01*
X20608700Y-22608700D01*
X20608700Y-21909475D01*
X21091300Y-21909475D01*
X21091300Y-22608700D01*
X22390525Y-22608700D01*
X22520700Y-22478525D01*
X22520700Y-22196427D01*
X22441428Y-22005047D01*
X22294953Y-21858572D01*
X22103574Y-21779300D01*
X21221475Y-21779300D01*
X21091300Y-21909475D01*
X20608700Y-21909475D01*
X20478525Y-21779300D01*
X19596426Y-21779300D01*
X19405047Y-21858572D01*
X19258572Y-22005047D01*
X19179300Y-22196427D01*
X16820700Y-22196427D01*
X16741428Y-22005047D01*
X16594953Y-21858572D01*
X16403574Y-21779300D01*
X15521475Y-21779300D01*
X15391300Y-21909475D01*
X14908700Y-21909475D01*
X14778525Y-21779300D01*
X13896426Y-21779300D01*
X13705047Y-21858572D01*
X13558572Y-22005047D01*
X13479300Y-22196427D01*
X13215100Y-22196427D01*
X13215100Y-21324329D01*
X25362017Y-21324329D01*
X25610816Y-21926470D01*
X26071106Y-22387565D01*
X26672812Y-22637415D01*
X27324329Y-22637983D01*
X27926470Y-22389184D01*
X28119564Y-22196427D01*
X31479300Y-22196427D01*
X31479300Y-22478525D01*
X31609475Y-22608700D01*
X32908700Y-22608700D01*
X32908700Y-21909475D01*
X33391300Y-21909475D01*
X33391300Y-22608700D01*
X34690525Y-22608700D01*
X34820700Y-22478525D01*
X34820700Y-22196427D01*
X37179300Y-22196427D01*
X37179300Y-22478525D01*
X37309475Y-22608700D01*
X38608700Y-22608700D01*
X38608700Y-21909475D01*
X39091300Y-21909475D01*
X39091300Y-22608700D01*
X40390525Y-22608700D01*
X40520700Y-22478525D01*
X40520700Y-22196427D01*
X40441428Y-22005047D01*
X40294953Y-21858572D01*
X40103574Y-21779300D01*
X39221475Y-21779300D01*
X39091300Y-21909475D01*
X38608700Y-21909475D01*
X38478525Y-21779300D01*
X37596426Y-21779300D01*
X37405047Y-21858572D01*
X37258572Y-22005047D01*
X37179300Y-22196427D01*
X34820700Y-22196427D01*
X34741428Y-22005047D01*
X34594953Y-21858572D01*
X34403574Y-21779300D01*
X33521475Y-21779300D01*
X33391300Y-21909475D01*
X32908700Y-21909475D01*
X32778525Y-21779300D01*
X31896426Y-21779300D01*
X31705047Y-21858572D01*
X31558572Y-22005047D01*
X31479300Y-22196427D01*
X28119564Y-22196427D01*
X28387565Y-21928894D01*
X28637415Y-21327188D01*
X28637983Y-20675671D01*
X28389184Y-20073530D01*
X27928894Y-19612435D01*
X27327188Y-19362585D01*
X26675671Y-19362017D01*
X26073530Y-19610816D01*
X25612435Y-20071106D01*
X25362585Y-20672812D01*
X25362017Y-21324329D01*
X13215100Y-21324329D01*
X13215100Y-18600000D01*
X13831666Y-18600000D01*
X13831666Y-19700000D01*
X13844480Y-19764419D01*
X13880970Y-19819030D01*
X13935581Y-19855520D01*
X14000000Y-19868334D01*
X16300000Y-19868334D01*
X16364419Y-19855520D01*
X16419030Y-19819030D01*
X16455520Y-19764419D01*
X16468334Y-19700000D01*
X16468334Y-18600000D01*
X16455520Y-18535581D01*
X16419030Y-18480970D01*
X16364419Y-18444480D01*
X16300000Y-18431666D01*
X14000000Y-18431666D01*
X13935581Y-18444480D01*
X13880970Y-18480970D01*
X13844480Y-18535581D01*
X13831666Y-18600000D01*
X13215100Y-18600000D01*
X13215100Y-17230475D01*
X17672300Y-17230475D01*
X17672300Y-17712573D01*
X17751572Y-17903953D01*
X17898047Y-18050428D01*
X18089426Y-18129700D01*
X18321525Y-18129700D01*
X18451700Y-17999525D01*
X18451700Y-17100300D01*
X17802475Y-17100300D01*
X17672300Y-17230475D01*
X13215100Y-17230475D01*
X13215100Y-16005427D01*
X17672300Y-16005427D01*
X17672300Y-16487525D01*
X17802475Y-16617700D01*
X18451700Y-16617700D01*
X18451700Y-15718475D01*
X18934300Y-15718475D01*
X18934300Y-16617700D01*
X18954300Y-16617700D01*
X18954300Y-17100300D01*
X18934300Y-17100300D01*
X18934300Y-17999525D01*
X19064475Y-18129700D01*
X19296574Y-18129700D01*
X19487953Y-18050428D01*
X19634428Y-17903953D01*
X19687341Y-17776208D01*
X19693000Y-17777334D01*
X19773900Y-17777334D01*
X19773900Y-18431666D01*
X19700000Y-18431666D01*
X19635581Y-18444480D01*
X19580970Y-18480970D01*
X19544480Y-18535581D01*
X19531666Y-18600000D01*
X19531666Y-19700000D01*
X19544480Y-19764419D01*
X19580970Y-19819030D01*
X19635581Y-19855520D01*
X19700000Y-19868334D01*
X22000000Y-19868334D01*
X22064419Y-19855520D01*
X22119030Y-19819030D01*
X22155520Y-19764419D01*
X22168334Y-19700000D01*
X22168334Y-18600000D01*
X22155520Y-18535581D01*
X22119030Y-18480970D01*
X22064419Y-18444480D01*
X22000000Y-18431666D01*
X20612100Y-18431666D01*
X20612100Y-17777334D01*
X20693000Y-17777334D01*
X20757419Y-17764520D01*
X20812030Y-17728030D01*
X20848520Y-17673419D01*
X20861334Y-17609000D01*
X20861334Y-16109000D01*
X21024666Y-16109000D01*
X21024666Y-17609000D01*
X21037480Y-17673419D01*
X21073970Y-17728030D01*
X21128581Y-17764520D01*
X21193000Y-17777334D01*
X22193000Y-17777334D01*
X22257419Y-17764520D01*
X22312030Y-17728030D01*
X22348520Y-17673419D01*
X22361334Y-17609000D01*
X22361334Y-17291100D01*
X22860000Y-17291100D01*
X23020383Y-17259198D01*
X23156348Y-17168348D01*
X23787596Y-16537100D01*
X31584404Y-16537100D01*
X32730900Y-17683597D01*
X32730900Y-18431666D01*
X32000000Y-18431666D01*
X31935581Y-18444480D01*
X31880970Y-18480970D01*
X31844480Y-18535581D01*
X31831666Y-18600000D01*
X31831666Y-19700000D01*
X31844480Y-19764419D01*
X31880970Y-19819030D01*
X31935581Y-19855520D01*
X32000000Y-19868334D01*
X34300000Y-19868334D01*
X34364419Y-19855520D01*
X34419030Y-19819030D01*
X34455520Y-19764419D01*
X34468334Y-19700000D01*
X34468334Y-18600000D01*
X37531666Y-18600000D01*
X37531666Y-19700000D01*
X37544480Y-19764419D01*
X37580970Y-19819030D01*
X37635581Y-19855520D01*
X37700000Y-19868334D01*
X40000000Y-19868334D01*
X40064419Y-19855520D01*
X40119030Y-19819030D01*
X40155520Y-19764419D01*
X40168334Y-19700000D01*
X40168334Y-18600000D01*
X40155520Y-18535581D01*
X40119030Y-18480970D01*
X40064419Y-18444480D01*
X40000000Y-18431666D01*
X37700000Y-18431666D01*
X37635581Y-18444480D01*
X37580970Y-18480970D01*
X37544480Y-18535581D01*
X37531666Y-18600000D01*
X34468334Y-18600000D01*
X34455520Y-18535581D01*
X34419030Y-18480970D01*
X34364419Y-18444480D01*
X34300000Y-18431666D01*
X33569100Y-18431666D01*
X33569100Y-17510000D01*
X33537198Y-17349617D01*
X33498097Y-17291099D01*
X33446348Y-17213651D01*
X32054348Y-15821652D01*
X32042966Y-15814047D01*
X31918383Y-15730802D01*
X31758000Y-15698900D01*
X23614000Y-15698900D01*
X23453617Y-15730802D01*
X23329034Y-15814047D01*
X23317652Y-15821652D01*
X22686404Y-16452900D01*
X22361334Y-16452900D01*
X22361334Y-16109000D01*
X22348520Y-16044581D01*
X22312030Y-15989970D01*
X22257419Y-15953480D01*
X22193000Y-15940666D01*
X21193000Y-15940666D01*
X21128581Y-15953480D01*
X21073970Y-15989970D01*
X21037480Y-16044581D01*
X21024666Y-16109000D01*
X20861334Y-16109000D01*
X20848520Y-16044581D01*
X20812030Y-15989970D01*
X20757419Y-15953480D01*
X20693000Y-15940666D01*
X19693000Y-15940666D01*
X19687341Y-15941792D01*
X19634428Y-15814047D01*
X19487953Y-15667572D01*
X19296574Y-15588300D01*
X19064475Y-15588300D01*
X18934300Y-15718475D01*
X18451700Y-15718475D01*
X18321525Y-15588300D01*
X18089426Y-15588300D01*
X17898047Y-15667572D01*
X17751572Y-15814047D01*
X17672300Y-16005427D01*
X13215100Y-16005427D01*
X13215100Y-15215100D01*
X40784900Y-15215100D01*
X40784900Y-26784300D01*
G36*
X126784900Y-26784900D02*
X115065016Y-26784900D01*
X115062000Y-26784300D01*
X99215100Y-26784300D01*
X99215100Y-23221475D01*
X99479300Y-23221475D01*
X99479300Y-23503573D01*
X99558572Y-23694953D01*
X99705047Y-23841428D01*
X99896426Y-23920700D01*
X100778525Y-23920700D01*
X100908700Y-23790525D01*
X100908700Y-23091300D01*
X101391300Y-23091300D01*
X101391300Y-23790525D01*
X101521475Y-23920700D01*
X102403574Y-23920700D01*
X102594953Y-23841428D01*
X102741428Y-23694953D01*
X102820700Y-23503573D01*
X102820700Y-23221475D01*
X105179300Y-23221475D01*
X105179300Y-23503573D01*
X105258572Y-23694953D01*
X105405047Y-23841428D01*
X105596426Y-23920700D01*
X106478525Y-23920700D01*
X106608700Y-23790525D01*
X106608700Y-23091300D01*
X107091300Y-23091300D01*
X107091300Y-23790525D01*
X107221475Y-23920700D01*
X108103574Y-23920700D01*
X108294953Y-23841428D01*
X108441428Y-23694953D01*
X108520700Y-23503573D01*
X108520700Y-23221475D01*
X117479300Y-23221475D01*
X117479300Y-23503573D01*
X117558572Y-23694953D01*
X117705047Y-23841428D01*
X117896426Y-23920700D01*
X118778525Y-23920700D01*
X118908700Y-23790525D01*
X118908700Y-23091300D01*
X119391300Y-23091300D01*
X119391300Y-23790525D01*
X119521475Y-23920700D01*
X120403574Y-23920700D01*
X120594953Y-23841428D01*
X120741428Y-23694953D01*
X120820700Y-23503573D01*
X120820700Y-23221475D01*
X123179300Y-23221475D01*
X123179300Y-23503573D01*
X123258572Y-23694953D01*
X123405047Y-23841428D01*
X123596426Y-23920700D01*
X124478525Y-23920700D01*
X124608700Y-23790525D01*
X124608700Y-23091300D01*
X125091300Y-23091300D01*
X125091300Y-23790525D01*
X125221475Y-23920700D01*
X126103574Y-23920700D01*
X126294953Y-23841428D01*
X126441428Y-23694953D01*
X126520700Y-23503573D01*
X126520700Y-23221475D01*
X126390525Y-23091300D01*
X125091300Y-23091300D01*
X124608700Y-23091300D01*
X123309475Y-23091300D01*
X123179300Y-23221475D01*
X120820700Y-23221475D01*
X120690525Y-23091300D01*
X119391300Y-23091300D01*
X118908700Y-23091300D01*
X117609475Y-23091300D01*
X117479300Y-23221475D01*
X108520700Y-23221475D01*
X108390525Y-23091300D01*
X107091300Y-23091300D01*
X106608700Y-23091300D01*
X105309475Y-23091300D01*
X105179300Y-23221475D01*
X102820700Y-23221475D01*
X102690525Y-23091300D01*
X101391300Y-23091300D01*
X100908700Y-23091300D01*
X99609475Y-23091300D01*
X99479300Y-23221475D01*
X99215100Y-23221475D01*
X99215100Y-22196427D01*
X99479300Y-22196427D01*
X99479300Y-22478525D01*
X99609475Y-22608700D01*
X100908700Y-22608700D01*
X100908700Y-21909475D01*
X101391300Y-21909475D01*
X101391300Y-22608700D01*
X102690525Y-22608700D01*
X102820700Y-22478525D01*
X102820700Y-22196427D01*
X105179300Y-22196427D01*
X105179300Y-22478525D01*
X105309475Y-22608700D01*
X106608700Y-22608700D01*
X106608700Y-21909475D01*
X107091300Y-21909475D01*
X107091300Y-22608700D01*
X108390525Y-22608700D01*
X108520700Y-22478525D01*
X108520700Y-22196427D01*
X108441428Y-22005047D01*
X108294953Y-21858572D01*
X108103574Y-21779300D01*
X107221475Y-21779300D01*
X107091300Y-21909475D01*
X106608700Y-21909475D01*
X106478525Y-21779300D01*
X105596426Y-21779300D01*
X105405047Y-21858572D01*
X105258572Y-22005047D01*
X105179300Y-22196427D01*
X102820700Y-22196427D01*
X102741428Y-22005047D01*
X102594953Y-21858572D01*
X102403574Y-21779300D01*
X101521475Y-21779300D01*
X101391300Y-21909475D01*
X100908700Y-21909475D01*
X100778525Y-21779300D01*
X99896426Y-21779300D01*
X99705047Y-21858572D01*
X99558572Y-22005047D01*
X99479300Y-22196427D01*
X99215100Y-22196427D01*
X99215100Y-21324329D01*
X111362017Y-21324329D01*
X111610816Y-21926470D01*
X112071106Y-22387565D01*
X112672812Y-22637415D01*
X113324329Y-22637983D01*
X113926470Y-22389184D01*
X114119564Y-22196427D01*
X117479300Y-22196427D01*
X117479300Y-22478525D01*
X117609475Y-22608700D01*
X118908700Y-22608700D01*
X118908700Y-21909475D01*
X119391300Y-21909475D01*
X119391300Y-22608700D01*
X120690525Y-22608700D01*
X120820700Y-22478525D01*
X120820700Y-22196427D01*
X123179300Y-22196427D01*
X123179300Y-22478525D01*
X123309475Y-22608700D01*
X124608700Y-22608700D01*
X124608700Y-21909475D01*
X125091300Y-21909475D01*
X125091300Y-22608700D01*
X126390525Y-22608700D01*
X126520700Y-22478525D01*
X126520700Y-22196427D01*
X126441428Y-22005047D01*
X126294953Y-21858572D01*
X126103574Y-21779300D01*
X125221475Y-21779300D01*
X125091300Y-21909475D01*
X124608700Y-21909475D01*
X124478525Y-21779300D01*
X123596426Y-21779300D01*
X123405047Y-21858572D01*
X123258572Y-22005047D01*
X123179300Y-22196427D01*
X120820700Y-22196427D01*
X120741428Y-22005047D01*
X120594953Y-21858572D01*
X120403574Y-21779300D01*
X119521475Y-21779300D01*
X119391300Y-21909475D01*
X118908700Y-21909475D01*
X118778525Y-21779300D01*
X117896426Y-21779300D01*
X117705047Y-21858572D01*
X117558572Y-22005047D01*
X117479300Y-22196427D01*
X114119564Y-22196427D01*
X114387565Y-21928894D01*
X114637415Y-21327188D01*
X114637983Y-20675671D01*
X114389184Y-20073530D01*
X113928894Y-19612435D01*
X113327188Y-19362585D01*
X112675671Y-19362017D01*
X112073530Y-19610816D01*
X111612435Y-20071106D01*
X111362585Y-20672812D01*
X111362017Y-21324329D01*
X99215100Y-21324329D01*
X99215100Y-18600000D01*
X99831666Y-18600000D01*
X99831666Y-19700000D01*
X99844480Y-19764419D01*
X99880970Y-19819030D01*
X99935581Y-19855520D01*
X100000000Y-19868334D01*
X102300000Y-19868334D01*
X102364419Y-19855520D01*
X102419030Y-19819030D01*
X102455520Y-19764419D01*
X102468334Y-19700000D01*
X102468334Y-18600000D01*
X102455520Y-18535581D01*
X102419030Y-18480970D01*
X102364419Y-18444480D01*
X102300000Y-18431666D01*
X100000000Y-18431666D01*
X99935581Y-18444480D01*
X99880970Y-18480970D01*
X99844480Y-18535581D01*
X99831666Y-18600000D01*
X99215100Y-18600000D01*
X99215100Y-17230475D01*
X103651300Y-17230475D01*
X103651300Y-17712573D01*
X103730572Y-17903953D01*
X103877047Y-18050428D01*
X104068426Y-18129700D01*
X104300525Y-18129700D01*
X104430700Y-17999525D01*
X104430700Y-17100300D01*
X103781475Y-17100300D01*
X103651300Y-17230475D01*
X99215100Y-17230475D01*
X99215100Y-16005427D01*
X103651300Y-16005427D01*
X103651300Y-16487525D01*
X103781475Y-16617700D01*
X104430700Y-16617700D01*
X104430700Y-15718475D01*
X104913300Y-15718475D01*
X104913300Y-16617700D01*
X104933300Y-16617700D01*
X104933300Y-17100300D01*
X104913300Y-17100300D01*
X104913300Y-17999525D01*
X105043475Y-18129700D01*
X105275574Y-18129700D01*
X105466953Y-18050428D01*
X105613428Y-17903953D01*
X105666341Y-17776208D01*
X105672000Y-17777334D01*
X105752900Y-17777334D01*
X105752900Y-18431666D01*
X105700000Y-18431666D01*
X105635581Y-18444480D01*
X105580970Y-18480970D01*
X105544480Y-18535581D01*
X105531666Y-18600000D01*
X105531666Y-19700000D01*
X105544480Y-19764419D01*
X105580970Y-19819030D01*
X105635581Y-19855520D01*
X105700000Y-19868334D01*
X108000000Y-19868334D01*
X108064419Y-19855520D01*
X108119030Y-19819030D01*
X108155520Y-19764419D01*
X108168334Y-19700000D01*
X108168334Y-18600000D01*
X108155520Y-18535581D01*
X108119030Y-18480970D01*
X108064419Y-18444480D01*
X108000000Y-18431666D01*
X106591100Y-18431666D01*
X106591100Y-17777334D01*
X106672000Y-17777334D01*
X106736419Y-17764520D01*
X106791030Y-17728030D01*
X106827520Y-17673419D01*
X106840334Y-17609000D01*
X106840334Y-16109000D01*
X107003666Y-16109000D01*
X107003666Y-17609000D01*
X107016480Y-17673419D01*
X107052970Y-17728030D01*
X107107581Y-17764520D01*
X107172000Y-17777334D01*
X108172000Y-17777334D01*
X108236419Y-17764520D01*
X108291030Y-17728030D01*
X108327520Y-17673419D01*
X108340334Y-17609000D01*
X108340334Y-17299100D01*
X108585000Y-17299100D01*
X108745383Y-17267198D01*
X108881348Y-17176348D01*
X109520597Y-16537100D01*
X117047404Y-16537100D01*
X118730900Y-18220596D01*
X118730900Y-18431666D01*
X118000000Y-18431666D01*
X117935581Y-18444480D01*
X117880970Y-18480970D01*
X117844480Y-18535581D01*
X117831666Y-18600000D01*
X117831666Y-19700000D01*
X117844480Y-19764419D01*
X117880970Y-19819030D01*
X117935581Y-19855520D01*
X118000000Y-19868334D01*
X120300000Y-19868334D01*
X120364419Y-19855520D01*
X120419030Y-19819030D01*
X120455520Y-19764419D01*
X120468334Y-19700000D01*
X120468334Y-18600000D01*
X123531666Y-18600000D01*
X123531666Y-19700000D01*
X123544480Y-19764419D01*
X123580970Y-19819030D01*
X123635581Y-19855520D01*
X123700000Y-19868334D01*
X126000000Y-19868334D01*
X126064419Y-19855520D01*
X126119030Y-19819030D01*
X126155520Y-19764419D01*
X126168334Y-19700000D01*
X126168334Y-18600000D01*
X126155520Y-18535581D01*
X126119030Y-18480970D01*
X126064419Y-18444480D01*
X126000000Y-18431666D01*
X123700000Y-18431666D01*
X123635581Y-18444480D01*
X123580970Y-18480970D01*
X123544480Y-18535581D01*
X123531666Y-18600000D01*
X120468334Y-18600000D01*
X120455520Y-18535581D01*
X120419030Y-18480970D01*
X120364419Y-18444480D01*
X120300000Y-18431666D01*
X119569100Y-18431666D01*
X119569100Y-18047000D01*
X119537198Y-17886617D01*
X119446348Y-17750652D01*
X117517348Y-15821652D01*
X117505966Y-15814047D01*
X117381383Y-15730802D01*
X117221000Y-15698900D01*
X109347000Y-15698900D01*
X109186617Y-15730802D01*
X109132157Y-15767191D01*
X109050652Y-15821651D01*
X108411404Y-16460900D01*
X108340334Y-16460900D01*
X108340334Y-16109000D01*
X108327520Y-16044581D01*
X108291030Y-15989970D01*
X108236419Y-15953480D01*
X108172000Y-15940666D01*
X107172000Y-15940666D01*
X107107581Y-15953480D01*
X107052970Y-15989970D01*
X107016480Y-16044581D01*
X107003666Y-16109000D01*
X106840334Y-16109000D01*
X106827520Y-16044581D01*
X106791030Y-15989970D01*
X106736419Y-15953480D01*
X106672000Y-15940666D01*
X105672000Y-15940666D01*
X105666341Y-15941792D01*
X105613428Y-15814047D01*
X105466953Y-15667572D01*
X105275574Y-15588300D01*
X105043475Y-15588300D01*
X104913300Y-15718475D01*
X104430700Y-15718475D01*
X104300525Y-15588300D01*
X104068426Y-15588300D01*
X103877047Y-15667572D01*
X103730572Y-15814047D01*
X103651300Y-16005427D01*
X99215100Y-16005427D01*
X99215100Y-15215100D01*
X126784900Y-15215100D01*
X126784900Y-26784900D01*
X126784900Y-26784900D01*
G37*
X126784900Y-26784900D02*
X115065016Y-26784900D01*
X115062000Y-26784300D01*
X99215100Y-26784300D01*
X99215100Y-23221475D01*
X99479300Y-23221475D01*
X99479300Y-23503573D01*
X99558572Y-23694953D01*
X99705047Y-23841428D01*
X99896426Y-23920700D01*
X100778525Y-23920700D01*
X100908700Y-23790525D01*
X100908700Y-23091300D01*
X101391300Y-23091300D01*
X101391300Y-23790525D01*
X101521475Y-23920700D01*
X102403574Y-23920700D01*
X102594953Y-23841428D01*
X102741428Y-23694953D01*
X102820700Y-23503573D01*
X102820700Y-23221475D01*
X105179300Y-23221475D01*
X105179300Y-23503573D01*
X105258572Y-23694953D01*
X105405047Y-23841428D01*
X105596426Y-23920700D01*
X106478525Y-23920700D01*
X106608700Y-23790525D01*
X106608700Y-23091300D01*
X107091300Y-23091300D01*
X107091300Y-23790525D01*
X107221475Y-23920700D01*
X108103574Y-23920700D01*
X108294953Y-23841428D01*
X108441428Y-23694953D01*
X108520700Y-23503573D01*
X108520700Y-23221475D01*
X117479300Y-23221475D01*
X117479300Y-23503573D01*
X117558572Y-23694953D01*
X117705047Y-23841428D01*
X117896426Y-23920700D01*
X118778525Y-23920700D01*
X118908700Y-23790525D01*
X118908700Y-23091300D01*
X119391300Y-23091300D01*
X119391300Y-23790525D01*
X119521475Y-23920700D01*
X120403574Y-23920700D01*
X120594953Y-23841428D01*
X120741428Y-23694953D01*
X120820700Y-23503573D01*
X120820700Y-23221475D01*
X123179300Y-23221475D01*
X123179300Y-23503573D01*
X123258572Y-23694953D01*
X123405047Y-23841428D01*
X123596426Y-23920700D01*
X124478525Y-23920700D01*
X124608700Y-23790525D01*
X124608700Y-23091300D01*
X125091300Y-23091300D01*
X125091300Y-23790525D01*
X125221475Y-23920700D01*
X126103574Y-23920700D01*
X126294953Y-23841428D01*
X126441428Y-23694953D01*
X126520700Y-23503573D01*
X126520700Y-23221475D01*
X126390525Y-23091300D01*
X125091300Y-23091300D01*
X124608700Y-23091300D01*
X123309475Y-23091300D01*
X123179300Y-23221475D01*
X120820700Y-23221475D01*
X120690525Y-23091300D01*
X119391300Y-23091300D01*
X118908700Y-23091300D01*
X117609475Y-23091300D01*
X117479300Y-23221475D01*
X108520700Y-23221475D01*
X108390525Y-23091300D01*
X107091300Y-23091300D01*
X106608700Y-23091300D01*
X105309475Y-23091300D01*
X105179300Y-23221475D01*
X102820700Y-23221475D01*
X102690525Y-23091300D01*
X101391300Y-23091300D01*
X100908700Y-23091300D01*
X99609475Y-23091300D01*
X99479300Y-23221475D01*
X99215100Y-23221475D01*
X99215100Y-22196427D01*
X99479300Y-22196427D01*
X99479300Y-22478525D01*
X99609475Y-22608700D01*
X100908700Y-22608700D01*
X100908700Y-21909475D01*
X101391300Y-21909475D01*
X101391300Y-22608700D01*
X102690525Y-22608700D01*
X102820700Y-22478525D01*
X102820700Y-22196427D01*
X105179300Y-22196427D01*
X105179300Y-22478525D01*
X105309475Y-22608700D01*
X106608700Y-22608700D01*
X106608700Y-21909475D01*
X107091300Y-21909475D01*
X107091300Y-22608700D01*
X108390525Y-22608700D01*
X108520700Y-22478525D01*
X108520700Y-22196427D01*
X108441428Y-22005047D01*
X108294953Y-21858572D01*
X108103574Y-21779300D01*
X107221475Y-21779300D01*
X107091300Y-21909475D01*
X106608700Y-21909475D01*
X106478525Y-21779300D01*
X105596426Y-21779300D01*
X105405047Y-21858572D01*
X105258572Y-22005047D01*
X105179300Y-22196427D01*
X102820700Y-22196427D01*
X102741428Y-22005047D01*
X102594953Y-21858572D01*
X102403574Y-21779300D01*
X101521475Y-21779300D01*
X101391300Y-21909475D01*
X100908700Y-21909475D01*
X100778525Y-21779300D01*
X99896426Y-21779300D01*
X99705047Y-21858572D01*
X99558572Y-22005047D01*
X99479300Y-22196427D01*
X99215100Y-22196427D01*
X99215100Y-21324329D01*
X111362017Y-21324329D01*
X111610816Y-21926470D01*
X112071106Y-22387565D01*
X112672812Y-22637415D01*
X113324329Y-22637983D01*
X113926470Y-22389184D01*
X114119564Y-22196427D01*
X117479300Y-22196427D01*
X117479300Y-22478525D01*
X117609475Y-22608700D01*
X118908700Y-22608700D01*
X118908700Y-21909475D01*
X119391300Y-21909475D01*
X119391300Y-22608700D01*
X120690525Y-22608700D01*
X120820700Y-22478525D01*
X120820700Y-22196427D01*
X123179300Y-22196427D01*
X123179300Y-22478525D01*
X123309475Y-22608700D01*
X124608700Y-22608700D01*
X124608700Y-21909475D01*
X125091300Y-21909475D01*
X125091300Y-22608700D01*
X126390525Y-22608700D01*
X126520700Y-22478525D01*
X126520700Y-22196427D01*
X126441428Y-22005047D01*
X126294953Y-21858572D01*
X126103574Y-21779300D01*
X125221475Y-21779300D01*
X125091300Y-21909475D01*
X124608700Y-21909475D01*
X124478525Y-21779300D01*
X123596426Y-21779300D01*
X123405047Y-21858572D01*
X123258572Y-22005047D01*
X123179300Y-22196427D01*
X120820700Y-22196427D01*
X120741428Y-22005047D01*
X120594953Y-21858572D01*
X120403574Y-21779300D01*
X119521475Y-21779300D01*
X119391300Y-21909475D01*
X118908700Y-21909475D01*
X118778525Y-21779300D01*
X117896426Y-21779300D01*
X117705047Y-21858572D01*
X117558572Y-22005047D01*
X117479300Y-22196427D01*
X114119564Y-22196427D01*
X114387565Y-21928894D01*
X114637415Y-21327188D01*
X114637983Y-20675671D01*
X114389184Y-20073530D01*
X113928894Y-19612435D01*
X113327188Y-19362585D01*
X112675671Y-19362017D01*
X112073530Y-19610816D01*
X111612435Y-20071106D01*
X111362585Y-20672812D01*
X111362017Y-21324329D01*
X99215100Y-21324329D01*
X99215100Y-18600000D01*
X99831666Y-18600000D01*
X99831666Y-19700000D01*
X99844480Y-19764419D01*
X99880970Y-19819030D01*
X99935581Y-19855520D01*
X100000000Y-19868334D01*
X102300000Y-19868334D01*
X102364419Y-19855520D01*
X102419030Y-19819030D01*
X102455520Y-19764419D01*
X102468334Y-19700000D01*
X102468334Y-18600000D01*
X102455520Y-18535581D01*
X102419030Y-18480970D01*
X102364419Y-18444480D01*
X102300000Y-18431666D01*
X100000000Y-18431666D01*
X99935581Y-18444480D01*
X99880970Y-18480970D01*
X99844480Y-18535581D01*
X99831666Y-18600000D01*
X99215100Y-18600000D01*
X99215100Y-17230475D01*
X103651300Y-17230475D01*
X103651300Y-17712573D01*
X103730572Y-17903953D01*
X103877047Y-18050428D01*
X104068426Y-18129700D01*
X104300525Y-18129700D01*
X104430700Y-17999525D01*
X104430700Y-17100300D01*
X103781475Y-17100300D01*
X103651300Y-17230475D01*
X99215100Y-17230475D01*
X99215100Y-16005427D01*
X103651300Y-16005427D01*
X103651300Y-16487525D01*
X103781475Y-16617700D01*
X104430700Y-16617700D01*
X104430700Y-15718475D01*
X104913300Y-15718475D01*
X104913300Y-16617700D01*
X104933300Y-16617700D01*
X104933300Y-17100300D01*
X104913300Y-17100300D01*
X104913300Y-17999525D01*
X105043475Y-18129700D01*
X105275574Y-18129700D01*
X105466953Y-18050428D01*
X105613428Y-17903953D01*
X105666341Y-17776208D01*
X105672000Y-17777334D01*
X105752900Y-17777334D01*
X105752900Y-18431666D01*
X105700000Y-18431666D01*
X105635581Y-18444480D01*
X105580970Y-18480970D01*
X105544480Y-18535581D01*
X105531666Y-18600000D01*
X105531666Y-19700000D01*
X105544480Y-19764419D01*
X105580970Y-19819030D01*
X105635581Y-19855520D01*
X105700000Y-19868334D01*
X108000000Y-19868334D01*
X108064419Y-19855520D01*
X108119030Y-19819030D01*
X108155520Y-19764419D01*
X108168334Y-19700000D01*
X108168334Y-18600000D01*
X108155520Y-18535581D01*
X108119030Y-18480970D01*
X108064419Y-18444480D01*
X108000000Y-18431666D01*
X106591100Y-18431666D01*
X106591100Y-17777334D01*
X106672000Y-17777334D01*
X106736419Y-17764520D01*
X106791030Y-17728030D01*
X106827520Y-17673419D01*
X106840334Y-17609000D01*
X106840334Y-16109000D01*
X107003666Y-16109000D01*
X107003666Y-17609000D01*
X107016480Y-17673419D01*
X107052970Y-17728030D01*
X107107581Y-17764520D01*
X107172000Y-17777334D01*
X108172000Y-17777334D01*
X108236419Y-17764520D01*
X108291030Y-17728030D01*
X108327520Y-17673419D01*
X108340334Y-17609000D01*
X108340334Y-17299100D01*
X108585000Y-17299100D01*
X108745383Y-17267198D01*
X108881348Y-17176348D01*
X109520597Y-16537100D01*
X117047404Y-16537100D01*
X118730900Y-18220596D01*
X118730900Y-18431666D01*
X118000000Y-18431666D01*
X117935581Y-18444480D01*
X117880970Y-18480970D01*
X117844480Y-18535581D01*
X117831666Y-18600000D01*
X117831666Y-19700000D01*
X117844480Y-19764419D01*
X117880970Y-19819030D01*
X117935581Y-19855520D01*
X118000000Y-19868334D01*
X120300000Y-19868334D01*
X120364419Y-19855520D01*
X120419030Y-19819030D01*
X120455520Y-19764419D01*
X120468334Y-19700000D01*
X120468334Y-18600000D01*
X123531666Y-18600000D01*
X123531666Y-19700000D01*
X123544480Y-19764419D01*
X123580970Y-19819030D01*
X123635581Y-19855520D01*
X123700000Y-19868334D01*
X126000000Y-19868334D01*
X126064419Y-19855520D01*
X126119030Y-19819030D01*
X126155520Y-19764419D01*
X126168334Y-19700000D01*
X126168334Y-18600000D01*
X126155520Y-18535581D01*
X126119030Y-18480970D01*
X126064419Y-18444480D01*
X126000000Y-18431666D01*
X123700000Y-18431666D01*
X123635581Y-18444480D01*
X123580970Y-18480970D01*
X123544480Y-18535581D01*
X123531666Y-18600000D01*
X120468334Y-18600000D01*
X120455520Y-18535581D01*
X120419030Y-18480970D01*
X120364419Y-18444480D01*
X120300000Y-18431666D01*
X119569100Y-18431666D01*
X119569100Y-18047000D01*
X119537198Y-17886617D01*
X119446348Y-17750652D01*
X117517348Y-15821652D01*
X117505966Y-15814047D01*
X117381383Y-15730802D01*
X117221000Y-15698900D01*
X109347000Y-15698900D01*
X109186617Y-15730802D01*
X109132157Y-15767191D01*
X109050652Y-15821651D01*
X108411404Y-16460900D01*
X108340334Y-16460900D01*
X108340334Y-16109000D01*
X108327520Y-16044581D01*
X108291030Y-15989970D01*
X108236419Y-15953480D01*
X108172000Y-15940666D01*
X107172000Y-15940666D01*
X107107581Y-15953480D01*
X107052970Y-15989970D01*
X107016480Y-16044581D01*
X107003666Y-16109000D01*
X106840334Y-16109000D01*
X106827520Y-16044581D01*
X106791030Y-15989970D01*
X106736419Y-15953480D01*
X106672000Y-15940666D01*
X105672000Y-15940666D01*
X105666341Y-15941792D01*
X105613428Y-15814047D01*
X105466953Y-15667572D01*
X105275574Y-15588300D01*
X105043475Y-15588300D01*
X104913300Y-15718475D01*
X104430700Y-15718475D01*
X104300525Y-15588300D01*
X104068426Y-15588300D01*
X103877047Y-15667572D01*
X103730572Y-15814047D01*
X103651300Y-16005427D01*
X99215100Y-16005427D01*
X99215100Y-15215100D01*
X126784900Y-15215100D01*
X126784900Y-26784900D01*
G36*
X69491020Y-33008980D02*
X69495140Y-33011733D01*
X69500000Y-33012700D01*
X69504860Y-33011733D01*
X69508980Y-33008980D01*
X71505260Y-31012700D01*
X80708502Y-31012700D01*
X80847901Y-31152099D01*
X80917685Y-31198726D01*
X81000000Y-31215101D01*
X81000005Y-31215100D01*
X99000000Y-31215100D01*
X99082315Y-31198726D01*
X99152099Y-31152099D01*
X99168401Y-31127700D01*
X114831599Y-31127700D01*
X114847901Y-31152099D01*
X126784900Y-43089097D01*
X126784900Y-62784900D01*
X104856050Y-62784900D01*
X104063874Y-60196794D01*
X104049032Y-60169194D01*
X104037042Y-60140246D01*
X102139251Y-57300000D01*
X105831666Y-57300000D01*
X105831666Y-58400000D01*
X105844480Y-58464419D01*
X105880970Y-58519030D01*
X105935581Y-58555520D01*
X106000000Y-58568334D01*
X108300000Y-58568334D01*
X108364419Y-58555520D01*
X108419030Y-58519030D01*
X108455520Y-58464419D01*
X108468334Y-58400000D01*
X108468334Y-57300000D01*
X111531666Y-57300000D01*
X111531666Y-58400000D01*
X111544480Y-58464419D01*
X111580970Y-58519030D01*
X111635581Y-58555520D01*
X111700000Y-58568334D01*
X114000000Y-58568334D01*
X114064419Y-58555520D01*
X114119030Y-58519030D01*
X114155520Y-58464419D01*
X114168334Y-58400000D01*
X114168334Y-57300000D01*
X114155520Y-57235581D01*
X114119030Y-57180970D01*
X114064419Y-57144480D01*
X114000000Y-57131666D01*
X111700000Y-57131666D01*
X111635581Y-57144480D01*
X111580970Y-57180970D01*
X111544480Y-57235581D01*
X111531666Y-57300000D01*
X108468334Y-57300000D01*
X108455520Y-57235581D01*
X108419030Y-57180970D01*
X108364419Y-57144480D01*
X108300000Y-57131666D01*
X107391300Y-57131666D01*
X107391300Y-56865176D01*
X107392535Y-56863943D01*
X107452232Y-56720176D01*
X107452368Y-56564507D01*
X107392921Y-56420636D01*
X107282943Y-56310465D01*
X107139176Y-56250768D01*
X106983507Y-56250632D01*
X106839636Y-56310079D01*
X106729465Y-56420057D01*
X106669768Y-56563824D01*
X106669632Y-56719493D01*
X106729079Y-56863364D01*
X106839057Y-56973535D01*
X106908700Y-57002453D01*
X106908700Y-57131666D01*
X106000000Y-57131666D01*
X105935581Y-57144480D01*
X105880970Y-57180970D01*
X105844480Y-57235581D01*
X105831666Y-57300000D01*
X102139251Y-57300000D01*
X100785451Y-55273895D01*
X100726105Y-55214549D01*
X99688847Y-54521475D01*
X105479300Y-54521475D01*
X105479300Y-54803573D01*
X105558572Y-54994953D01*
X105705047Y-55141428D01*
X105896426Y-55220700D01*
X106778525Y-55220700D01*
X106908700Y-55090525D01*
X106908700Y-54391300D01*
X107391300Y-54391300D01*
X107391300Y-55090525D01*
X107521475Y-55220700D01*
X108403574Y-55220700D01*
X108594953Y-55141428D01*
X108741428Y-54994953D01*
X108820700Y-54803573D01*
X108820700Y-54521475D01*
X111179300Y-54521475D01*
X111179300Y-54803573D01*
X111258572Y-54994953D01*
X111405047Y-55141428D01*
X111596426Y-55220700D01*
X112478525Y-55220700D01*
X112608700Y-55090525D01*
X112608700Y-54391300D01*
X113091300Y-54391300D01*
X113091300Y-55090525D01*
X113221475Y-55220700D01*
X114103574Y-55220700D01*
X114294953Y-55141428D01*
X114441428Y-54994953D01*
X114520700Y-54803573D01*
X114520700Y-54521475D01*
X114390525Y-54391300D01*
X113091300Y-54391300D01*
X112608700Y-54391300D01*
X111309475Y-54391300D01*
X111179300Y-54521475D01*
X108820700Y-54521475D01*
X108690525Y-54391300D01*
X107391300Y-54391300D01*
X106908700Y-54391300D01*
X105609475Y-54391300D01*
X105479300Y-54521475D01*
X99688847Y-54521475D01*
X99393798Y-54324329D01*
X120362017Y-54324329D01*
X120610816Y-54926470D01*
X121071106Y-55387565D01*
X121672812Y-55637415D01*
X122324329Y-55637983D01*
X122926470Y-55389184D01*
X123387565Y-54928894D01*
X123637415Y-54327188D01*
X123637983Y-53675671D01*
X123389184Y-53073530D01*
X122928894Y-52612435D01*
X122327188Y-52362585D01*
X121675671Y-52362017D01*
X121073530Y-52610816D01*
X120612435Y-53071106D01*
X120362585Y-53672812D01*
X120362017Y-54324329D01*
X99393798Y-54324329D01*
X98154754Y-53496427D01*
X105479300Y-53496427D01*
X105479300Y-53778525D01*
X105609475Y-53908700D01*
X106908700Y-53908700D01*
X106908700Y-53209475D01*
X107391300Y-53209475D01*
X107391300Y-53908700D01*
X108690525Y-53908700D01*
X108820700Y-53778525D01*
X108820700Y-53496427D01*
X111179300Y-53496427D01*
X111179300Y-53778525D01*
X111309475Y-53908700D01*
X112608700Y-53908700D01*
X112608700Y-53209475D01*
X113091300Y-53209475D01*
X113091300Y-53908700D01*
X114390525Y-53908700D01*
X114520700Y-53778525D01*
X114520700Y-53496427D01*
X114441428Y-53305047D01*
X114294953Y-53158572D01*
X114103574Y-53079300D01*
X113221475Y-53079300D01*
X113091300Y-53209475D01*
X112608700Y-53209475D01*
X112478525Y-53079300D01*
X111596426Y-53079300D01*
X111405047Y-53158572D01*
X111258572Y-53305047D01*
X111179300Y-53496427D01*
X108820700Y-53496427D01*
X108741428Y-53305047D01*
X108594953Y-53158572D01*
X108403574Y-53079300D01*
X107521475Y-53079300D01*
X107391300Y-53209475D01*
X106908700Y-53209475D01*
X106778525Y-53079300D01*
X105896426Y-53079300D01*
X105705047Y-53158572D01*
X105558572Y-53305047D01*
X105479300Y-53496427D01*
X98154754Y-53496427D01*
X95859754Y-51962958D01*
X95782215Y-51930840D01*
X90041964Y-50789033D01*
X90010626Y-50789033D01*
X89979453Y-50785884D01*
X87126817Y-51059633D01*
X87096809Y-51068654D01*
X87066046Y-51074613D01*
X81647697Y-53287239D01*
X81577681Y-53333516D01*
X77418515Y-57451228D01*
X77399577Y-57479267D01*
X77371538Y-57520778D01*
X75160115Y-62784900D01*
X64855138Y-62784900D01*
X64063894Y-60196860D01*
X64049046Y-60169227D01*
X64037042Y-60140246D01*
X62823686Y-58324329D01*
X68362017Y-58324329D01*
X68610816Y-58926470D01*
X69071106Y-59387565D01*
X69672812Y-59637415D01*
X70324329Y-59637983D01*
X70926470Y-59389184D01*
X71387565Y-58928894D01*
X71637415Y-58327188D01*
X71637983Y-57675671D01*
X71389184Y-57073530D01*
X70928894Y-56612435D01*
X70327188Y-56362585D01*
X69675671Y-56362017D01*
X69073530Y-56610816D01*
X68612435Y-57071106D01*
X68362585Y-57672812D01*
X68362017Y-58324329D01*
X62823686Y-58324329D01*
X60785451Y-55273895D01*
X60726105Y-55214549D01*
X55859754Y-51962958D01*
X55782215Y-51930840D01*
X50041964Y-50789033D01*
X50010626Y-50789033D01*
X49979453Y-50785884D01*
X47126817Y-51059633D01*
X47096809Y-51068654D01*
X47066046Y-51074613D01*
X41647697Y-53287239D01*
X41577681Y-53333516D01*
X37418515Y-57451228D01*
X37399577Y-57479267D01*
X37371538Y-57520778D01*
X35160115Y-62784900D01*
X13215100Y-62784900D01*
X13215100Y-54324329D01*
X16362017Y-54324329D01*
X16610816Y-54926470D01*
X17071106Y-55387565D01*
X17672812Y-55637415D01*
X18324329Y-55637983D01*
X18926470Y-55389184D01*
X19387565Y-54928894D01*
X19637415Y-54327188D01*
X19637438Y-54300000D01*
X25831666Y-54300000D01*
X25831666Y-55400000D01*
X25844480Y-55464419D01*
X25880970Y-55519030D01*
X25935581Y-55555520D01*
X26000000Y-55568334D01*
X28300000Y-55568334D01*
X28364419Y-55555520D01*
X28419030Y-55519030D01*
X28455520Y-55464419D01*
X28468334Y-55400000D01*
X28468334Y-54300000D01*
X31531666Y-54300000D01*
X31531666Y-55400000D01*
X31544480Y-55464419D01*
X31580970Y-55519030D01*
X31635581Y-55555520D01*
X31700000Y-55568334D01*
X34000000Y-55568334D01*
X34064419Y-55555520D01*
X34119030Y-55519030D01*
X34155520Y-55464419D01*
X34168334Y-55400000D01*
X34168334Y-55091300D01*
X34345005Y-55091300D01*
X34449057Y-55195535D01*
X34592824Y-55255232D01*
X34748493Y-55255368D01*
X34892364Y-55195921D01*
X35002535Y-55085943D01*
X35062232Y-54942176D01*
X35062368Y-54786507D01*
X35002921Y-54642636D01*
X34892943Y-54532465D01*
X34749176Y-54472768D01*
X34593507Y-54472632D01*
X34449636Y-54532079D01*
X34372881Y-54608700D01*
X34168334Y-54608700D01*
X34168334Y-54300000D01*
X34155520Y-54235581D01*
X34119030Y-54180970D01*
X34064419Y-54144480D01*
X34000000Y-54131666D01*
X31700000Y-54131666D01*
X31635581Y-54144480D01*
X31580970Y-54180970D01*
X31544480Y-54235581D01*
X31531666Y-54300000D01*
X28468334Y-54300000D01*
X28455520Y-54235581D01*
X28419030Y-54180970D01*
X28364419Y-54144480D01*
X28300000Y-54131666D01*
X26000000Y-54131666D01*
X25935581Y-54144480D01*
X25880970Y-54180970D01*
X25844480Y-54235581D01*
X25831666Y-54300000D01*
X19637438Y-54300000D01*
X19637983Y-53675671D01*
X19389184Y-53073530D01*
X18928894Y-52612435D01*
X18327188Y-52362585D01*
X17675671Y-52362017D01*
X17073530Y-52610816D01*
X16612435Y-53071106D01*
X16362585Y-53672812D01*
X16362017Y-54324329D01*
X13215100Y-54324329D01*
X13215100Y-51521475D01*
X25479300Y-51521475D01*
X25479300Y-51803573D01*
X25558572Y-51994953D01*
X25705047Y-52141428D01*
X25896426Y-52220700D01*
X26778525Y-52220700D01*
X26908700Y-52090525D01*
X26908700Y-51391300D01*
X27391300Y-51391300D01*
X27391300Y-52090525D01*
X27521475Y-52220700D01*
X28403574Y-52220700D01*
X28594953Y-52141428D01*
X28741428Y-51994953D01*
X28820700Y-51803573D01*
X28820700Y-51521475D01*
X31179300Y-51521475D01*
X31179300Y-51803573D01*
X31258572Y-51994953D01*
X31405047Y-52141428D01*
X31596426Y-52220700D01*
X32478525Y-52220700D01*
X32608700Y-52090525D01*
X32608700Y-51391300D01*
X33091300Y-51391300D01*
X33091300Y-52090525D01*
X33221475Y-52220700D01*
X34103574Y-52220700D01*
X34294953Y-52141428D01*
X34441428Y-51994953D01*
X34520700Y-51803573D01*
X34520700Y-51521475D01*
X34390525Y-51391300D01*
X33091300Y-51391300D01*
X32608700Y-51391300D01*
X31309475Y-51391300D01*
X31179300Y-51521475D01*
X28820700Y-51521475D01*
X28690525Y-51391300D01*
X27391300Y-51391300D01*
X26908700Y-51391300D01*
X25609475Y-51391300D01*
X25479300Y-51521475D01*
X13215100Y-51521475D01*
X13215100Y-50496427D01*
X25479300Y-50496427D01*
X25479300Y-50778525D01*
X25609475Y-50908700D01*
X26908700Y-50908700D01*
X26908700Y-50209475D01*
X27391300Y-50209475D01*
X27391300Y-50908700D01*
X28690525Y-50908700D01*
X28820700Y-50778525D01*
X28820700Y-50496427D01*
X31179300Y-50496427D01*
X31179300Y-50778525D01*
X31309475Y-50908700D01*
X32608700Y-50908700D01*
X32608700Y-50209475D01*
X33091300Y-50209475D01*
X33091300Y-50908700D01*
X34390525Y-50908700D01*
X34520700Y-50778525D01*
X34520700Y-50496427D01*
X34441428Y-50305047D01*
X34294953Y-50158572D01*
X34103574Y-50079300D01*
X33221475Y-50079300D01*
X33091300Y-50209475D01*
X32608700Y-50209475D01*
X32478525Y-50079300D01*
X31596426Y-50079300D01*
X31405047Y-50158572D01*
X31258572Y-50305047D01*
X31179300Y-50496427D01*
X28820700Y-50496427D01*
X28741428Y-50305047D01*
X28594953Y-50158572D01*
X28403574Y-50079300D01*
X27521475Y-50079300D01*
X27391300Y-50209475D01*
X26908700Y-50209475D01*
X26778525Y-50079300D01*
X25896426Y-50079300D01*
X25705047Y-50158572D01*
X25558572Y-50305047D01*
X25479300Y-50496427D01*
X13215100Y-50496427D01*
X13215100Y-48221475D01*
X18479300Y-48221475D01*
X18479300Y-48503573D01*
X18558572Y-48694953D01*
X18705047Y-48841428D01*
X18896426Y-48920700D01*
X19778525Y-48920700D01*
X19908700Y-48790525D01*
X19908700Y-48091300D01*
X20391300Y-48091300D01*
X20391300Y-48790525D01*
X20521475Y-48920700D01*
X21403574Y-48920700D01*
X21594953Y-48841428D01*
X21741428Y-48694953D01*
X21820700Y-48503573D01*
X21820700Y-48221475D01*
X24179300Y-48221475D01*
X24179300Y-48503573D01*
X24258572Y-48694953D01*
X24405047Y-48841428D01*
X24596426Y-48920700D01*
X25478525Y-48920700D01*
X25608700Y-48790525D01*
X25608700Y-48091300D01*
X26091300Y-48091300D01*
X26091300Y-48790525D01*
X26221475Y-48920700D01*
X27103574Y-48920700D01*
X27294953Y-48841428D01*
X27441428Y-48694953D01*
X27520700Y-48503573D01*
X27520700Y-48221475D01*
X32479300Y-48221475D01*
X32479300Y-48503573D01*
X32558572Y-48694953D01*
X32705047Y-48841428D01*
X32896426Y-48920700D01*
X33778525Y-48920700D01*
X33908700Y-48790525D01*
X33908700Y-48091300D01*
X34391300Y-48091300D01*
X34391300Y-48790525D01*
X34521475Y-48920700D01*
X35403574Y-48920700D01*
X35594953Y-48841428D01*
X35741428Y-48694953D01*
X35820700Y-48503573D01*
X35820700Y-48221475D01*
X38179300Y-48221475D01*
X38179300Y-48503573D01*
X38258572Y-48694953D01*
X38405047Y-48841428D01*
X38596426Y-48920700D01*
X39478525Y-48920700D01*
X39608700Y-48790525D01*
X39608700Y-48091300D01*
X40091300Y-48091300D01*
X40091300Y-48790525D01*
X40221475Y-48920700D01*
X41103574Y-48920700D01*
X41294953Y-48841428D01*
X41441428Y-48694953D01*
X41520700Y-48503573D01*
X41520700Y-48221475D01*
X41390525Y-48091300D01*
X40091300Y-48091300D01*
X39608700Y-48091300D01*
X38309475Y-48091300D01*
X38179300Y-48221475D01*
X35820700Y-48221475D01*
X35690525Y-48091300D01*
X34391300Y-48091300D01*
X33908700Y-48091300D01*
X32609475Y-48091300D01*
X32479300Y-48221475D01*
X27520700Y-48221475D01*
X27390525Y-48091300D01*
X26091300Y-48091300D01*
X25608700Y-48091300D01*
X24309475Y-48091300D01*
X24179300Y-48221475D01*
X21820700Y-48221475D01*
X21690525Y-48091300D01*
X20391300Y-48091300D01*
X19908700Y-48091300D01*
X18609475Y-48091300D01*
X18479300Y-48221475D01*
X13215100Y-48221475D01*
X13215100Y-47196427D01*
X18479300Y-47196427D01*
X18479300Y-47478525D01*
X18609475Y-47608700D01*
X19908700Y-47608700D01*
X19908700Y-46909475D01*
X20391300Y-46909475D01*
X20391300Y-47608700D01*
X21690525Y-47608700D01*
X21820700Y-47478525D01*
X21820700Y-47196427D01*
X24179300Y-47196427D01*
X24179300Y-47478525D01*
X24309475Y-47608700D01*
X25608700Y-47608700D01*
X25608700Y-46909475D01*
X26091300Y-46909475D01*
X26091300Y-47608700D01*
X27390525Y-47608700D01*
X27520700Y-47478525D01*
X27520700Y-47196427D01*
X32479300Y-47196427D01*
X32479300Y-47478525D01*
X32609475Y-47608700D01*
X33908700Y-47608700D01*
X33908700Y-46909475D01*
X34391300Y-46909475D01*
X34391300Y-47608700D01*
X35690525Y-47608700D01*
X35820700Y-47478525D01*
X35820700Y-47196427D01*
X38179300Y-47196427D01*
X38179300Y-47478525D01*
X38309475Y-47608700D01*
X39608700Y-47608700D01*
X39608700Y-46909475D01*
X40091300Y-46909475D01*
X40091300Y-47608700D01*
X41390525Y-47608700D01*
X41520700Y-47478525D01*
X41520700Y-47196427D01*
X41441428Y-47005047D01*
X41294953Y-46858572D01*
X41103574Y-46779300D01*
X40221475Y-46779300D01*
X40091300Y-46909475D01*
X39608700Y-46909475D01*
X39478525Y-46779300D01*
X38596426Y-46779300D01*
X38405047Y-46858572D01*
X38258572Y-47005047D01*
X38179300Y-47196427D01*
X35820700Y-47196427D01*
X35741428Y-47005047D01*
X35594953Y-46858572D01*
X35403574Y-46779300D01*
X34521475Y-46779300D01*
X34391300Y-46909475D01*
X33908700Y-46909475D01*
X33778525Y-46779300D01*
X32896426Y-46779300D01*
X32705047Y-46858572D01*
X32558572Y-47005047D01*
X32479300Y-47196427D01*
X27520700Y-47196427D01*
X27441428Y-47005047D01*
X27294953Y-46858572D01*
X27103574Y-46779300D01*
X26221475Y-46779300D01*
X26091300Y-46909475D01*
X25608700Y-46909475D01*
X25478525Y-46779300D01*
X24596426Y-46779300D01*
X24405047Y-46858572D01*
X24258572Y-47005047D01*
X24179300Y-47196427D01*
X21820700Y-47196427D01*
X21741428Y-47005047D01*
X21594953Y-46858572D01*
X21403574Y-46779300D01*
X20521475Y-46779300D01*
X20391300Y-46909475D01*
X19908700Y-46909475D01*
X19778525Y-46779300D01*
X18896426Y-46779300D01*
X18705047Y-46858572D01*
X18558572Y-47005047D01*
X18479300Y-47196427D01*
X13215100Y-47196427D01*
X13215100Y-43600000D01*
X18831666Y-43600000D01*
X18831666Y-44700000D01*
X18844480Y-44764419D01*
X18880970Y-44819030D01*
X18935581Y-44855520D01*
X19000000Y-44868334D01*
X21300000Y-44868334D01*
X21364419Y-44855520D01*
X21419030Y-44819030D01*
X21455520Y-44764419D01*
X21468334Y-44700000D01*
X21468334Y-43600000D01*
X24531666Y-43600000D01*
X24531666Y-44700000D01*
X24544480Y-44764419D01*
X24580970Y-44819030D01*
X24635581Y-44855520D01*
X24700000Y-44868334D01*
X27000000Y-44868334D01*
X27064419Y-44855520D01*
X27119030Y-44819030D01*
X27155520Y-44764419D01*
X27168334Y-44700000D01*
X27168334Y-44391300D01*
X27343309Y-44391300D01*
X27354079Y-44417364D01*
X27464057Y-44527535D01*
X27607824Y-44587232D01*
X27763493Y-44587368D01*
X27907364Y-44527921D01*
X28017535Y-44417943D01*
X28077232Y-44274176D01*
X28077368Y-44118507D01*
X28017921Y-43974636D01*
X27907943Y-43864465D01*
X27764176Y-43804768D01*
X27608507Y-43804632D01*
X27464636Y-43864079D01*
X27419937Y-43908700D01*
X27168334Y-43908700D01*
X27168334Y-43600000D01*
X32831666Y-43600000D01*
X32831666Y-44700000D01*
X32844480Y-44764419D01*
X32880970Y-44819030D01*
X32935581Y-44855520D01*
X33000000Y-44868334D01*
X35300000Y-44868334D01*
X35364419Y-44855520D01*
X35419030Y-44819030D01*
X35455520Y-44764419D01*
X35468334Y-44700000D01*
X35468334Y-43600000D01*
X38531666Y-43600000D01*
X38531666Y-44700000D01*
X38544480Y-44764419D01*
X38580970Y-44819030D01*
X38635581Y-44855520D01*
X38700000Y-44868334D01*
X41000000Y-44868334D01*
X41064419Y-44855520D01*
X41119030Y-44819030D01*
X41155520Y-44764419D01*
X41168334Y-44700000D01*
X41168334Y-43600000D01*
X41155520Y-43535581D01*
X41119030Y-43480970D01*
X41064419Y-43444480D01*
X41000000Y-43431666D01*
X40091300Y-43431666D01*
X40091300Y-42385663D01*
X40221364Y-42331921D01*
X40331535Y-42221943D01*
X40391232Y-42078176D01*
X40391368Y-41922507D01*
X40331921Y-41778636D01*
X40221943Y-41668465D01*
X40078176Y-41608768D01*
X39922507Y-41608632D01*
X39778636Y-41668079D01*
X39668465Y-41778057D01*
X39608768Y-41921824D01*
X39608632Y-42077493D01*
X39618414Y-42101166D01*
X39608700Y-42150000D01*
X39608700Y-43431666D01*
X38700000Y-43431666D01*
X38635581Y-43444480D01*
X38580970Y-43480970D01*
X38544480Y-43535581D01*
X38531666Y-43600000D01*
X35468334Y-43600000D01*
X35455520Y-43535581D01*
X35419030Y-43480970D01*
X35364419Y-43444480D01*
X35300000Y-43431666D01*
X33000000Y-43431666D01*
X32935581Y-43444480D01*
X32880970Y-43480970D01*
X32844480Y-43535581D01*
X32831666Y-43600000D01*
X27168334Y-43600000D01*
X27155520Y-43535581D01*
X27119030Y-43480970D01*
X27064419Y-43444480D01*
X27000000Y-43431666D01*
X24700000Y-43431666D01*
X24635581Y-43444480D01*
X24580970Y-43480970D01*
X24544480Y-43535581D01*
X24531666Y-43600000D01*
X21468334Y-43600000D01*
X21455520Y-43535581D01*
X21419030Y-43480970D01*
X21364419Y-43444480D01*
X21300000Y-43431666D01*
X19000000Y-43431666D01*
X18935581Y-43444480D01*
X18880970Y-43480970D01*
X18844480Y-43535581D01*
X18831666Y-43600000D01*
X13215100Y-43600000D01*
X13215100Y-43089098D01*
X15082722Y-41221475D01*
X25479300Y-41221475D01*
X25479300Y-41503573D01*
X25558572Y-41694953D01*
X25705047Y-41841428D01*
X25896426Y-41920700D01*
X26778525Y-41920700D01*
X26908700Y-41790525D01*
X26908700Y-41091300D01*
X27391300Y-41091300D01*
X27391300Y-41790525D01*
X27521475Y-41920700D01*
X28403574Y-41920700D01*
X28594953Y-41841428D01*
X28741428Y-41694953D01*
X28820700Y-41503573D01*
X28820700Y-41221475D01*
X31179300Y-41221475D01*
X31179300Y-41503573D01*
X31258572Y-41694953D01*
X31405047Y-41841428D01*
X31596426Y-41920700D01*
X32478525Y-41920700D01*
X32608700Y-41790525D01*
X32608700Y-41091300D01*
X33091300Y-41091300D01*
X33091300Y-41790525D01*
X33221475Y-41920700D01*
X34103574Y-41920700D01*
X34294953Y-41841428D01*
X34441428Y-41694953D01*
X34520700Y-41503573D01*
X34520700Y-41221475D01*
X34390525Y-41091300D01*
X33091300Y-41091300D01*
X32608700Y-41091300D01*
X31309475Y-41091300D01*
X31179300Y-41221475D01*
X28820700Y-41221475D01*
X28690525Y-41091300D01*
X27391300Y-41091300D01*
X26908700Y-41091300D01*
X25609475Y-41091300D01*
X25479300Y-41221475D01*
X15082722Y-41221475D01*
X16107770Y-40196427D01*
X25479300Y-40196427D01*
X25479300Y-40478525D01*
X25609475Y-40608700D01*
X26908700Y-40608700D01*
X26908700Y-39909475D01*
X27391300Y-39909475D01*
X27391300Y-40608700D01*
X28690525Y-40608700D01*
X28820700Y-40478525D01*
X28820700Y-40196427D01*
X31179300Y-40196427D01*
X31179300Y-40478525D01*
X31309475Y-40608700D01*
X32608700Y-40608700D01*
X32608700Y-39909475D01*
X33091300Y-39909475D01*
X33091300Y-40608700D01*
X34390525Y-40608700D01*
X34520700Y-40478525D01*
X34520700Y-40196427D01*
X34441428Y-40005047D01*
X34294953Y-39858572D01*
X34103574Y-39779300D01*
X33221475Y-39779300D01*
X33091300Y-39909475D01*
X32608700Y-39909475D01*
X32478525Y-39779300D01*
X31596426Y-39779300D01*
X31405047Y-39858572D01*
X31258572Y-40005047D01*
X31179300Y-40196427D01*
X28820700Y-40196427D01*
X28741428Y-40005047D01*
X28594953Y-39858572D01*
X28403574Y-39779300D01*
X27521475Y-39779300D01*
X27391300Y-39909475D01*
X26908700Y-39909475D01*
X26778525Y-39779300D01*
X25896426Y-39779300D01*
X25705047Y-39858572D01*
X25558572Y-40005047D01*
X25479300Y-40196427D01*
X16107770Y-40196427D01*
X19704197Y-36600000D01*
X25831666Y-36600000D01*
X25831666Y-37700000D01*
X25844480Y-37764419D01*
X25880970Y-37819030D01*
X25935581Y-37855520D01*
X26000000Y-37868334D01*
X28300000Y-37868334D01*
X28364419Y-37855520D01*
X28419030Y-37819030D01*
X28455520Y-37764419D01*
X28468334Y-37700000D01*
X28468334Y-36600000D01*
X31531666Y-36600000D01*
X31531666Y-37700000D01*
X31544480Y-37764419D01*
X31580970Y-37819030D01*
X31635581Y-37855520D01*
X31700000Y-37868334D01*
X34000000Y-37868334D01*
X34064419Y-37855520D01*
X34119030Y-37819030D01*
X34155520Y-37764419D01*
X34168334Y-37700000D01*
X34168334Y-37391300D01*
X34322111Y-37391300D01*
X34339079Y-37432364D01*
X34449057Y-37542535D01*
X34592824Y-37602232D01*
X34748493Y-37602368D01*
X34892364Y-37542921D01*
X35002535Y-37432943D01*
X35062232Y-37289176D01*
X35062368Y-37133507D01*
X35002921Y-36989636D01*
X34892943Y-36879465D01*
X34749176Y-36819768D01*
X34593507Y-36819632D01*
X34449636Y-36879079D01*
X34419963Y-36908700D01*
X34168334Y-36908700D01*
X34168334Y-36600000D01*
X34155520Y-36535581D01*
X34119030Y-36480970D01*
X34064419Y-36444480D01*
X34000000Y-36431666D01*
X31700000Y-36431666D01*
X31635581Y-36444480D01*
X31580970Y-36480970D01*
X31544480Y-36535581D01*
X31531666Y-36600000D01*
X28468334Y-36600000D01*
X28455520Y-36535581D01*
X28419030Y-36480970D01*
X28364419Y-36444480D01*
X28300000Y-36431666D01*
X26000000Y-36431666D01*
X25935581Y-36444480D01*
X25880970Y-36480970D01*
X25844480Y-36535581D01*
X25831666Y-36600000D01*
X19704197Y-36600000D01*
X20236197Y-36068000D01*
X42633899Y-36068000D01*
X42633900Y-36068005D01*
X42633900Y-48513995D01*
X42633899Y-48514000D01*
X42685137Y-48771584D01*
X42831046Y-48989954D01*
X43847046Y-50005954D01*
X44065416Y-50151863D01*
X44323000Y-50203101D01*
X44323005Y-50203100D01*
X93852995Y-50203100D01*
X93853000Y-50203101D01*
X94110584Y-50151863D01*
X94328954Y-50005954D01*
X95217951Y-49116956D01*
X95217954Y-49116954D01*
X95363863Y-48898584D01*
X95375232Y-48841428D01*
X95415101Y-48641000D01*
X95415100Y-48640995D01*
X95415100Y-48221475D01*
X95479300Y-48221475D01*
X95479300Y-48503573D01*
X95558572Y-48694953D01*
X95705047Y-48841428D01*
X95896426Y-48920700D01*
X96778525Y-48920700D01*
X96908700Y-48790525D01*
X96908700Y-48091300D01*
X97391300Y-48091300D01*
X97391300Y-48790525D01*
X97521475Y-48920700D01*
X98403574Y-48920700D01*
X98594953Y-48841428D01*
X98741428Y-48694953D01*
X98820700Y-48503573D01*
X98820700Y-48221475D01*
X101179300Y-48221475D01*
X101179300Y-48503573D01*
X101258572Y-48694953D01*
X101405047Y-48841428D01*
X101596426Y-48920700D01*
X102478525Y-48920700D01*
X102608700Y-48790525D01*
X102608700Y-48091300D01*
X103091300Y-48091300D01*
X103091300Y-48790525D01*
X103221475Y-48920700D01*
X104103574Y-48920700D01*
X104294953Y-48841428D01*
X104441428Y-48694953D01*
X104520700Y-48503573D01*
X104520700Y-48221475D01*
X115479300Y-48221475D01*
X115479300Y-48503573D01*
X115558572Y-48694953D01*
X115705047Y-48841428D01*
X115896426Y-48920700D01*
X116778525Y-48920700D01*
X116908700Y-48790525D01*
X116908700Y-48091300D01*
X117391300Y-48091300D01*
X117391300Y-48790525D01*
X117521475Y-48920700D01*
X118403574Y-48920700D01*
X118594953Y-48841428D01*
X118741428Y-48694953D01*
X118820700Y-48503573D01*
X118820700Y-48221475D01*
X121179300Y-48221475D01*
X121179300Y-48503573D01*
X121258572Y-48694953D01*
X121405047Y-48841428D01*
X121596426Y-48920700D01*
X122478525Y-48920700D01*
X122608700Y-48790525D01*
X122608700Y-48091300D01*
X123091300Y-48091300D01*
X123091300Y-48790525D01*
X123221475Y-48920700D01*
X124103574Y-48920700D01*
X124294953Y-48841428D01*
X124441428Y-48694953D01*
X124520700Y-48503573D01*
X124520700Y-48221475D01*
X124390525Y-48091300D01*
X123091300Y-48091300D01*
X122608700Y-48091300D01*
X121309475Y-48091300D01*
X121179300Y-48221475D01*
X118820700Y-48221475D01*
X118690525Y-48091300D01*
X117391300Y-48091300D01*
X116908700Y-48091300D01*
X115609475Y-48091300D01*
X115479300Y-48221475D01*
X104520700Y-48221475D01*
X104390525Y-48091300D01*
X103091300Y-48091300D01*
X102608700Y-48091300D01*
X101309475Y-48091300D01*
X101179300Y-48221475D01*
X98820700Y-48221475D01*
X98690525Y-48091300D01*
X97391300Y-48091300D01*
X96908700Y-48091300D01*
X95609475Y-48091300D01*
X95479300Y-48221475D01*
X95415100Y-48221475D01*
X95415100Y-47196427D01*
X95479300Y-47196427D01*
X95479300Y-47478525D01*
X95609475Y-47608700D01*
X96908700Y-47608700D01*
X96908700Y-46909475D01*
X97391300Y-46909475D01*
X97391300Y-47608700D01*
X98690525Y-47608700D01*
X98820700Y-47478525D01*
X98820700Y-47196427D01*
X101179300Y-47196427D01*
X101179300Y-47478525D01*
X101309475Y-47608700D01*
X102608700Y-47608700D01*
X102608700Y-46909475D01*
X103091300Y-46909475D01*
X103091300Y-47608700D01*
X104390525Y-47608700D01*
X104520700Y-47478525D01*
X104520700Y-47196427D01*
X115479300Y-47196427D01*
X115479300Y-47478525D01*
X115609475Y-47608700D01*
X116908700Y-47608700D01*
X116908700Y-46909475D01*
X117391300Y-46909475D01*
X117391300Y-47608700D01*
X118690525Y-47608700D01*
X118820700Y-47478525D01*
X118820700Y-47196427D01*
X121179300Y-47196427D01*
X121179300Y-47478525D01*
X121309475Y-47608700D01*
X122608700Y-47608700D01*
X122608700Y-46909475D01*
X123091300Y-46909475D01*
X123091300Y-47608700D01*
X124390525Y-47608700D01*
X124520700Y-47478525D01*
X124520700Y-47196427D01*
X124441428Y-47005047D01*
X124294953Y-46858572D01*
X124103574Y-46779300D01*
X123221475Y-46779300D01*
X123091300Y-46909475D01*
X122608700Y-46909475D01*
X122478525Y-46779300D01*
X121596426Y-46779300D01*
X121405047Y-46858572D01*
X121258572Y-47005047D01*
X121179300Y-47196427D01*
X118820700Y-47196427D01*
X118741428Y-47005047D01*
X118594953Y-46858572D01*
X118403574Y-46779300D01*
X117521475Y-46779300D01*
X117391300Y-46909475D01*
X116908700Y-46909475D01*
X116778525Y-46779300D01*
X115896426Y-46779300D01*
X115705047Y-46858572D01*
X115558572Y-47005047D01*
X115479300Y-47196427D01*
X104520700Y-47196427D01*
X104441428Y-47005047D01*
X104294953Y-46858572D01*
X104103574Y-46779300D01*
X103221475Y-46779300D01*
X103091300Y-46909475D01*
X102608700Y-46909475D01*
X102478525Y-46779300D01*
X101596426Y-46779300D01*
X101405047Y-46858572D01*
X101258572Y-47005047D01*
X101179300Y-47196427D01*
X98820700Y-47196427D01*
X98741428Y-47005047D01*
X98594953Y-46858572D01*
X98403574Y-46779300D01*
X97521475Y-46779300D01*
X97391300Y-46909475D01*
X96908700Y-46909475D01*
X96778525Y-46779300D01*
X95896426Y-46779300D01*
X95705047Y-46858572D01*
X95558572Y-47005047D01*
X95479300Y-47196427D01*
X95415100Y-47196427D01*
X95415100Y-46101005D01*
X95415101Y-46101000D01*
X95363863Y-45843416D01*
X95217954Y-45625046D01*
X95217951Y-45625044D01*
X93815601Y-44222693D01*
X94909432Y-44222693D01*
X94968879Y-44366564D01*
X95078857Y-44476735D01*
X95222624Y-44536432D01*
X95378293Y-44536568D01*
X95522164Y-44477121D01*
X95608136Y-44391300D01*
X95831666Y-44391300D01*
X95831666Y-44700000D01*
X95844480Y-44764419D01*
X95880970Y-44819030D01*
X95935581Y-44855520D01*
X96000000Y-44868334D01*
X98300000Y-44868334D01*
X98364419Y-44855520D01*
X98419030Y-44819030D01*
X98455520Y-44764419D01*
X98468334Y-44700000D01*
X98468334Y-43600000D01*
X101531666Y-43600000D01*
X101531666Y-44700000D01*
X101544480Y-44764419D01*
X101580970Y-44819030D01*
X101635581Y-44855520D01*
X101700000Y-44868334D01*
X104000000Y-44868334D01*
X104064419Y-44855520D01*
X104119030Y-44819030D01*
X104155520Y-44764419D01*
X104168334Y-44700000D01*
X104168334Y-44222693D01*
X115077032Y-44222693D01*
X115136479Y-44366564D01*
X115246457Y-44476735D01*
X115390224Y-44536432D01*
X115545893Y-44536568D01*
X115689764Y-44477121D01*
X115775736Y-44391300D01*
X115831666Y-44391300D01*
X115831666Y-44700000D01*
X115844480Y-44764419D01*
X115880970Y-44819030D01*
X115935581Y-44855520D01*
X116000000Y-44868334D01*
X118300000Y-44868334D01*
X118364419Y-44855520D01*
X118419030Y-44819030D01*
X118455520Y-44764419D01*
X118468334Y-44700000D01*
X118468334Y-43600000D01*
X121531666Y-43600000D01*
X121531666Y-44700000D01*
X121544480Y-44764419D01*
X121580970Y-44819030D01*
X121635581Y-44855520D01*
X121700000Y-44868334D01*
X124000000Y-44868334D01*
X124064419Y-44855520D01*
X124119030Y-44819030D01*
X124155520Y-44764419D01*
X124168334Y-44700000D01*
X124168334Y-43600000D01*
X124155520Y-43535581D01*
X124119030Y-43480970D01*
X124064419Y-43444480D01*
X124000000Y-43431666D01*
X121700000Y-43431666D01*
X121635581Y-43444480D01*
X121580970Y-43480970D01*
X121544480Y-43535581D01*
X121531666Y-43600000D01*
X118468334Y-43600000D01*
X118455520Y-43535581D01*
X118419030Y-43480970D01*
X118364419Y-43444480D01*
X118300000Y-43431666D01*
X116000000Y-43431666D01*
X115935581Y-43444480D01*
X115880970Y-43480970D01*
X115844480Y-43535581D01*
X115831666Y-43600000D01*
X115831666Y-43908700D01*
X115785212Y-43908700D01*
X115690343Y-43813665D01*
X115546576Y-43753968D01*
X115390907Y-43753832D01*
X115247036Y-43813279D01*
X115136865Y-43923257D01*
X115077168Y-44067024D01*
X115077032Y-44222693D01*
X104168334Y-44222693D01*
X104168334Y-43600000D01*
X104155520Y-43535581D01*
X104119030Y-43480970D01*
X104064419Y-43444480D01*
X104000000Y-43431666D01*
X101700000Y-43431666D01*
X101635581Y-43444480D01*
X101580970Y-43480970D01*
X101544480Y-43535581D01*
X101531666Y-43600000D01*
X98468334Y-43600000D01*
X98455520Y-43535581D01*
X98419030Y-43480970D01*
X98364419Y-43444480D01*
X98300000Y-43431666D01*
X96000000Y-43431666D01*
X95935581Y-43444480D01*
X95880970Y-43480970D01*
X95844480Y-43535581D01*
X95831666Y-43600000D01*
X95831666Y-43908700D01*
X95617612Y-43908700D01*
X95522743Y-43813665D01*
X95378976Y-43753968D01*
X95223307Y-43753832D01*
X95079436Y-43813279D01*
X94969265Y-43923257D01*
X94909568Y-44067024D01*
X94909432Y-44222693D01*
X93815601Y-44222693D01*
X91963500Y-42370592D01*
X91963500Y-40388441D01*
X92011500Y-40316604D01*
X92011500Y-41021000D01*
X92028084Y-41104375D01*
X92035668Y-41142502D01*
X92104494Y-41245506D01*
X92488494Y-41629506D01*
X92591498Y-41698332D01*
X92713000Y-41722500D01*
X92842666Y-41722500D01*
X92842666Y-42105000D01*
X92855480Y-42169419D01*
X92891970Y-42224030D01*
X92946581Y-42260520D01*
X93011000Y-42273334D01*
X95711000Y-42273334D01*
X95775419Y-42260520D01*
X95830030Y-42224030D01*
X95866520Y-42169419D01*
X95879334Y-42105000D01*
X95879334Y-40705000D01*
X95866520Y-40640581D01*
X95830030Y-40585970D01*
X95775419Y-40549480D01*
X95711000Y-40536666D01*
X93011000Y-40536666D01*
X92946581Y-40549480D01*
X92891970Y-40585970D01*
X92855480Y-40640581D01*
X92842666Y-40705000D01*
X92842666Y-41085654D01*
X92646500Y-40889488D01*
X92646500Y-39116000D01*
X92622332Y-38994498D01*
X92590244Y-38946475D01*
X92553507Y-38891494D01*
X92301106Y-38639094D01*
X92198102Y-38570268D01*
X92186549Y-38567970D01*
X92076600Y-38546100D01*
X91908299Y-38546100D01*
X91894680Y-38537000D01*
X91941030Y-38506030D01*
X91977520Y-38451419D01*
X91990334Y-38387000D01*
X91990334Y-38037000D01*
X91977520Y-37972581D01*
X91941030Y-37917970D01*
X91886419Y-37881480D01*
X91822000Y-37868666D01*
X91707900Y-37868666D01*
X91707900Y-37234795D01*
X91734419Y-37229520D01*
X91789030Y-37193030D01*
X91825520Y-37138419D01*
X91828766Y-37122100D01*
X91926192Y-37122100D01*
X92808045Y-38003952D01*
X92808046Y-38003954D01*
X92808048Y-38003955D01*
X92842666Y-38038573D01*
X92842666Y-39305000D01*
X92855480Y-39369419D01*
X92891970Y-39424030D01*
X92946581Y-39460520D01*
X93011000Y-39473334D01*
X95711000Y-39473334D01*
X95775419Y-39460520D01*
X95830030Y-39424030D01*
X95866520Y-39369419D01*
X95879334Y-39305000D01*
X95879334Y-37923493D01*
X105018632Y-37923493D01*
X105078079Y-38067364D01*
X105188057Y-38177535D01*
X105331824Y-38237232D01*
X105487493Y-38237368D01*
X105631364Y-38177921D01*
X105718137Y-38091300D01*
X105831666Y-38091300D01*
X105831666Y-38400000D01*
X105844480Y-38464419D01*
X105880970Y-38519030D01*
X105935581Y-38555520D01*
X106000000Y-38568334D01*
X108300000Y-38568334D01*
X108364419Y-38555520D01*
X108419030Y-38519030D01*
X108455520Y-38464419D01*
X108468334Y-38400000D01*
X108468334Y-37300000D01*
X111531666Y-37300000D01*
X111531666Y-38400000D01*
X111544480Y-38464419D01*
X111580970Y-38519030D01*
X111635581Y-38555520D01*
X111700000Y-38568334D01*
X114000000Y-38568334D01*
X114064419Y-38555520D01*
X114119030Y-38519030D01*
X114155520Y-38464419D01*
X114168334Y-38400000D01*
X114168334Y-37300000D01*
X114155520Y-37235581D01*
X114119030Y-37180970D01*
X114064419Y-37144480D01*
X114000000Y-37131666D01*
X111700000Y-37131666D01*
X111635581Y-37144480D01*
X111580970Y-37180970D01*
X111544480Y-37235581D01*
X111531666Y-37300000D01*
X108468334Y-37300000D01*
X108455520Y-37235581D01*
X108419030Y-37180970D01*
X108364419Y-37144480D01*
X108300000Y-37131666D01*
X106000000Y-37131666D01*
X105935581Y-37144480D01*
X105880970Y-37180970D01*
X105844480Y-37235581D01*
X105831666Y-37300000D01*
X105831666Y-37608700D01*
X105726013Y-37608700D01*
X105631943Y-37514465D01*
X105488176Y-37454768D01*
X105332507Y-37454632D01*
X105188636Y-37514079D01*
X105078465Y-37624057D01*
X105018768Y-37767824D01*
X105018632Y-37923493D01*
X95879334Y-37923493D01*
X95879334Y-37905000D01*
X95866520Y-37840581D01*
X95830030Y-37785970D01*
X95775419Y-37749480D01*
X95773516Y-37749101D01*
X95878953Y-37705428D01*
X96025428Y-37558953D01*
X96104700Y-37367573D01*
X96104700Y-37169175D01*
X95974525Y-37039000D01*
X95384000Y-37039000D01*
X95384000Y-37075300D01*
X94984000Y-37075300D01*
X94984000Y-37039000D01*
X94393475Y-37039000D01*
X94263300Y-37169175D01*
X94263300Y-37367573D01*
X94342572Y-37558953D01*
X94489047Y-37705428D01*
X94564462Y-37736666D01*
X94444573Y-37736666D01*
X93957100Y-37249193D01*
X93957100Y-36814005D01*
X93957101Y-36814000D01*
X93905863Y-36556416D01*
X93852334Y-36476304D01*
X93852334Y-36364000D01*
X93839520Y-36299581D01*
X93813359Y-36260427D01*
X94263300Y-36260427D01*
X94263300Y-36458825D01*
X94393475Y-36589000D01*
X94984000Y-36589000D01*
X94984000Y-35973475D01*
X95384000Y-35973475D01*
X95384000Y-36589000D01*
X95974525Y-36589000D01*
X96104700Y-36458825D01*
X96104700Y-36260427D01*
X96025428Y-36069047D01*
X95878953Y-35922572D01*
X95687574Y-35843300D01*
X95514175Y-35843300D01*
X95384000Y-35973475D01*
X94984000Y-35973475D01*
X94853825Y-35843300D01*
X94680426Y-35843300D01*
X94489047Y-35922572D01*
X94342572Y-36069047D01*
X94263300Y-36260427D01*
X93813359Y-36260427D01*
X93803030Y-36244970D01*
X93748419Y-36208480D01*
X93684000Y-36195666D01*
X93617574Y-36195666D01*
X93423100Y-36001192D01*
X93423100Y-35266005D01*
X93423101Y-35266000D01*
X93423100Y-35265995D01*
X93423100Y-34814000D01*
X93560899Y-34814000D01*
X93612137Y-35071584D01*
X93665666Y-35151696D01*
X93665666Y-35264000D01*
X93678480Y-35328419D01*
X93714970Y-35383030D01*
X93769581Y-35419520D01*
X93834000Y-35432334D01*
X93971134Y-35432334D01*
X93976416Y-35435863D01*
X94234000Y-35487101D01*
X94491584Y-35435863D01*
X94496866Y-35432334D01*
X94634000Y-35432334D01*
X94698419Y-35419520D01*
X94753030Y-35383030D01*
X94789520Y-35328419D01*
X94802334Y-35264000D01*
X94802334Y-35159642D01*
X94871863Y-35055584D01*
X94923100Y-34798000D01*
X94923100Y-34521475D01*
X105479300Y-34521475D01*
X105479300Y-34803573D01*
X105558572Y-34994953D01*
X105705047Y-35141428D01*
X105896426Y-35220700D01*
X106778525Y-35220700D01*
X106908700Y-35090525D01*
X106908700Y-34391300D01*
X107391300Y-34391300D01*
X107391300Y-35090525D01*
X107521475Y-35220700D01*
X108403574Y-35220700D01*
X108594953Y-35141428D01*
X108741428Y-34994953D01*
X108820700Y-34803573D01*
X108820700Y-34521475D01*
X111179300Y-34521475D01*
X111179300Y-34803573D01*
X111258572Y-34994953D01*
X111405047Y-35141428D01*
X111596426Y-35220700D01*
X112478525Y-35220700D01*
X112608700Y-35090525D01*
X112608700Y-34391300D01*
X113091300Y-34391300D01*
X113091300Y-35090525D01*
X113221475Y-35220700D01*
X114103574Y-35220700D01*
X114294953Y-35141428D01*
X114441428Y-34994953D01*
X114520700Y-34803573D01*
X114520700Y-34521475D01*
X114390525Y-34391300D01*
X113091300Y-34391300D01*
X112608700Y-34391300D01*
X111309475Y-34391300D01*
X111179300Y-34521475D01*
X108820700Y-34521475D01*
X108690525Y-34391300D01*
X107391300Y-34391300D01*
X106908700Y-34391300D01*
X105609475Y-34391300D01*
X105479300Y-34521475D01*
X94923100Y-34521475D01*
X94923100Y-33000000D01*
X94918334Y-32976040D01*
X94918334Y-32250000D01*
X98831666Y-32250000D01*
X98831666Y-33750000D01*
X98844480Y-33814419D01*
X98880970Y-33869030D01*
X98935581Y-33905520D01*
X99000000Y-33918334D01*
X100000000Y-33918334D01*
X100064419Y-33905520D01*
X100119030Y-33869030D01*
X100155520Y-33814419D01*
X100168334Y-33750000D01*
X100168334Y-32250000D01*
X100331666Y-32250000D01*
X100331666Y-33750000D01*
X100344480Y-33814419D01*
X100380970Y-33869030D01*
X100435581Y-33905520D01*
X100500000Y-33918334D01*
X101500000Y-33918334D01*
X101505659Y-33917208D01*
X101558572Y-34044953D01*
X101705047Y-34191428D01*
X101896426Y-34270700D01*
X102128525Y-34270700D01*
X102258700Y-34140525D01*
X102258700Y-33241300D01*
X102741300Y-33241300D01*
X102741300Y-34140525D01*
X102871475Y-34270700D01*
X103103574Y-34270700D01*
X103294953Y-34191428D01*
X103441428Y-34044953D01*
X103520700Y-33853573D01*
X103520700Y-33496427D01*
X105479300Y-33496427D01*
X105479300Y-33778525D01*
X105609475Y-33908700D01*
X106908700Y-33908700D01*
X106908700Y-33209475D01*
X107391300Y-33209475D01*
X107391300Y-33908700D01*
X108690525Y-33908700D01*
X108820700Y-33778525D01*
X108820700Y-33496427D01*
X111179300Y-33496427D01*
X111179300Y-33778525D01*
X111309475Y-33908700D01*
X112608700Y-33908700D01*
X112608700Y-33209475D01*
X113091300Y-33209475D01*
X113091300Y-33908700D01*
X114390525Y-33908700D01*
X114520700Y-33778525D01*
X114520700Y-33496427D01*
X114441428Y-33305047D01*
X114294953Y-33158572D01*
X114103574Y-33079300D01*
X113221475Y-33079300D01*
X113091300Y-33209475D01*
X112608700Y-33209475D01*
X112478525Y-33079300D01*
X111596426Y-33079300D01*
X111405047Y-33158572D01*
X111258572Y-33305047D01*
X111179300Y-33496427D01*
X108820700Y-33496427D01*
X108741428Y-33305047D01*
X108594953Y-33158572D01*
X108403574Y-33079300D01*
X107521475Y-33079300D01*
X107391300Y-33209475D01*
X106908700Y-33209475D01*
X106778525Y-33079300D01*
X105896426Y-33079300D01*
X105705047Y-33158572D01*
X105558572Y-33305047D01*
X105479300Y-33496427D01*
X103520700Y-33496427D01*
X103520700Y-33371475D01*
X103390525Y-33241300D01*
X102741300Y-33241300D01*
X102258700Y-33241300D01*
X102238700Y-33241300D01*
X102238700Y-32758700D01*
X102258700Y-32758700D01*
X102258700Y-31859475D01*
X102741300Y-31859475D01*
X102741300Y-32758700D01*
X103390525Y-32758700D01*
X103520700Y-32628525D01*
X103520700Y-32146427D01*
X103441428Y-31955047D01*
X103294953Y-31808572D01*
X103103574Y-31729300D01*
X102871475Y-31729300D01*
X102741300Y-31859475D01*
X102258700Y-31859475D01*
X102128525Y-31729300D01*
X101896426Y-31729300D01*
X101705047Y-31808572D01*
X101558572Y-31955047D01*
X101505659Y-32082792D01*
X101500000Y-32081666D01*
X100500000Y-32081666D01*
X100435581Y-32094480D01*
X100380970Y-32130970D01*
X100344480Y-32185581D01*
X100331666Y-32250000D01*
X100168334Y-32250000D01*
X100155520Y-32185581D01*
X100119030Y-32130970D01*
X100064419Y-32094480D01*
X100000000Y-32081666D01*
X99000000Y-32081666D01*
X98935581Y-32094480D01*
X98880970Y-32130970D01*
X98844480Y-32185581D01*
X98831666Y-32250000D01*
X94918334Y-32250000D01*
X94905520Y-32185581D01*
X94869030Y-32130970D01*
X94814419Y-32094480D01*
X94750000Y-32081666D01*
X93750000Y-32081666D01*
X93685581Y-32094480D01*
X93630970Y-32130970D01*
X93594480Y-32185581D01*
X93581666Y-32250000D01*
X93581666Y-32976040D01*
X93576900Y-33000000D01*
X93576900Y-34733560D01*
X93560899Y-34814000D01*
X93423100Y-34814000D01*
X93423100Y-33000000D01*
X93418334Y-32976040D01*
X93418334Y-32250000D01*
X93405520Y-32185581D01*
X93369030Y-32130970D01*
X93314419Y-32094480D01*
X93250000Y-32081666D01*
X92250000Y-32081666D01*
X92185581Y-32094480D01*
X92130970Y-32130970D01*
X92094480Y-32185581D01*
X92081666Y-32250000D01*
X92081666Y-32976040D01*
X92076900Y-33000000D01*
X92076900Y-33844193D01*
X90694046Y-35227046D01*
X90548137Y-35445416D01*
X90496899Y-35703000D01*
X90496900Y-35703005D01*
X90496900Y-36449000D01*
X90501666Y-36472960D01*
X90501666Y-37074000D01*
X90514480Y-37138419D01*
X90550970Y-37193030D01*
X90605581Y-37229520D01*
X90670000Y-37242334D01*
X91072900Y-37242334D01*
X91072900Y-37868666D01*
X90972000Y-37868666D01*
X90907581Y-37881480D01*
X90885701Y-37896100D01*
X89708299Y-37896100D01*
X89686419Y-37881480D01*
X89622000Y-37868666D01*
X88772000Y-37868666D01*
X88707581Y-37881480D01*
X88652970Y-37917970D01*
X88616480Y-37972581D01*
X88603666Y-38037000D01*
X88603666Y-38387000D01*
X88616480Y-38451419D01*
X88652970Y-38506030D01*
X88699320Y-38537000D01*
X88652970Y-38567970D01*
X88616480Y-38622581D01*
X88603666Y-38687000D01*
X88603666Y-38843125D01*
X88477047Y-38895572D01*
X88330572Y-39042047D01*
X88251300Y-39233426D01*
X88251300Y-39294325D01*
X88381475Y-39424500D01*
X88984500Y-39424500D01*
X88984500Y-39337000D01*
X89409500Y-39337000D01*
X89409500Y-39424500D01*
X89458300Y-39424500D01*
X89458300Y-39599500D01*
X89409500Y-39599500D01*
X89409500Y-40077525D01*
X89531700Y-40199725D01*
X89531700Y-40908300D01*
X90180925Y-40908300D01*
X90311100Y-40778125D01*
X90311100Y-40421027D01*
X90231828Y-40229647D01*
X90085353Y-40083172D01*
X89998277Y-40047104D01*
X90063428Y-39981953D01*
X90142700Y-39790574D01*
X90142700Y-39537713D01*
X90343094Y-39738107D01*
X90343097Y-39738109D01*
X90640907Y-40035919D01*
X90617299Y-40154600D01*
X90617300Y-40154605D01*
X90617300Y-42230300D01*
X90050897Y-42230300D01*
X90085353Y-42216028D01*
X90231828Y-42069553D01*
X90311100Y-41878173D01*
X90311100Y-41521075D01*
X90180925Y-41390900D01*
X89531700Y-41390900D01*
X89531700Y-41410900D01*
X89049100Y-41410900D01*
X89049100Y-41390900D01*
X88399875Y-41390900D01*
X88269700Y-41521075D01*
X88269700Y-41878173D01*
X88348972Y-42069553D01*
X88495447Y-42216028D01*
X88529903Y-42230300D01*
X86129997Y-42230300D01*
X85001100Y-41101404D01*
X85001100Y-39729675D01*
X88251300Y-39729675D01*
X88251300Y-39790574D01*
X88330572Y-39981953D01*
X88463619Y-40115000D01*
X88348972Y-40229647D01*
X88269700Y-40421027D01*
X88269700Y-40778125D01*
X88399875Y-40908300D01*
X89049100Y-40908300D01*
X89049100Y-40134075D01*
X88984500Y-40069475D01*
X88984500Y-39599500D01*
X88381475Y-39599500D01*
X88251300Y-39729675D01*
X85001100Y-39729675D01*
X85001100Y-36820475D01*
X88149300Y-36820475D01*
X88149300Y-37177573D01*
X88228572Y-37368953D01*
X88375047Y-37515428D01*
X88566426Y-37594700D01*
X88798525Y-37594700D01*
X88928700Y-37464525D01*
X88928700Y-36690300D01*
X89411300Y-36690300D01*
X89411300Y-37464525D01*
X89541475Y-37594700D01*
X89773574Y-37594700D01*
X89964953Y-37515428D01*
X90111428Y-37368953D01*
X90190700Y-37177573D01*
X90190700Y-36820475D01*
X90060525Y-36690300D01*
X89411300Y-36690300D01*
X88928700Y-36690300D01*
X88279475Y-36690300D01*
X88149300Y-36820475D01*
X85001100Y-36820475D01*
X85001100Y-36703000D01*
X84969198Y-36542617D01*
X84958452Y-36526535D01*
X84878348Y-36406651D01*
X84370348Y-35898652D01*
X84354201Y-35887863D01*
X84234383Y-35807802D01*
X84074000Y-35775900D01*
X80904774Y-35775900D01*
X80904774Y-35720427D01*
X88149300Y-35720427D01*
X88149300Y-36077525D01*
X88279475Y-36207700D01*
X88928700Y-36207700D01*
X88928700Y-35433475D01*
X89411300Y-35433475D01*
X89411300Y-36207700D01*
X90060525Y-36207700D01*
X90190700Y-36077525D01*
X90190700Y-35720427D01*
X90111428Y-35529047D01*
X89964953Y-35382572D01*
X89773574Y-35303300D01*
X89541475Y-35303300D01*
X89411300Y-35433475D01*
X88928700Y-35433475D01*
X88798525Y-35303300D01*
X88566426Y-35303300D01*
X88375047Y-35382572D01*
X88228572Y-35529047D01*
X88149300Y-35720427D01*
X80904774Y-35720427D01*
X80904774Y-35501580D01*
X80891960Y-35437161D01*
X80855470Y-35382550D01*
X80800859Y-35346060D01*
X80736440Y-35333246D01*
X79537560Y-35333246D01*
X79473141Y-35346060D01*
X79418530Y-35382550D01*
X79382040Y-35437161D01*
X79369226Y-35501580D01*
X79369226Y-36700460D01*
X79382040Y-36764879D01*
X79418530Y-36819490D01*
X79473141Y-36855980D01*
X79537560Y-36868794D01*
X80736440Y-36868794D01*
X80800859Y-36855980D01*
X80855470Y-36819490D01*
X80891960Y-36764879D01*
X80904774Y-36700460D01*
X80904774Y-36614100D01*
X83900404Y-36614100D01*
X84162900Y-36876597D01*
X84162900Y-41275000D01*
X84194802Y-41435383D01*
X84240366Y-41503573D01*
X84285652Y-41571348D01*
X85660051Y-42945748D01*
X85768694Y-43018341D01*
X85796017Y-43036598D01*
X85956400Y-43068500D01*
X90776458Y-43068500D01*
X90814446Y-43125354D01*
X94068900Y-46379807D01*
X94068900Y-47080900D01*
X93668334Y-47080900D01*
X93668334Y-46750000D01*
X93655520Y-46685581D01*
X93619030Y-46630970D01*
X93564419Y-46594480D01*
X93500000Y-46581666D01*
X92500000Y-46581666D01*
X92435581Y-46594480D01*
X92380970Y-46630970D01*
X92344480Y-46685581D01*
X92331666Y-46750000D01*
X92331666Y-48250000D01*
X92344480Y-48314419D01*
X92380970Y-48369030D01*
X92435581Y-48405520D01*
X92500000Y-48418334D01*
X93500000Y-48418334D01*
X93564419Y-48405520D01*
X93619030Y-48369030D01*
X93655520Y-48314419D01*
X93668334Y-48250000D01*
X93668334Y-47919100D01*
X94068900Y-47919100D01*
X94068900Y-48362193D01*
X93574192Y-48856900D01*
X85257600Y-48856900D01*
X85294953Y-48841428D01*
X85441428Y-48694953D01*
X85520700Y-48503573D01*
X85520700Y-48221475D01*
X85390525Y-48091300D01*
X84091300Y-48091300D01*
X84091300Y-48111300D01*
X83608700Y-48111300D01*
X83608700Y-48091300D01*
X82309475Y-48091300D01*
X82179300Y-48221475D01*
X82179300Y-48503573D01*
X82258572Y-48694953D01*
X82405047Y-48841428D01*
X82442400Y-48856900D01*
X79557600Y-48856900D01*
X79594953Y-48841428D01*
X79741428Y-48694953D01*
X79820700Y-48503573D01*
X79820700Y-48221475D01*
X79690525Y-48091300D01*
X78391300Y-48091300D01*
X78391300Y-48111300D01*
X77908700Y-48111300D01*
X77908700Y-48091300D01*
X76609475Y-48091300D01*
X76479300Y-48221475D01*
X76479300Y-48503573D01*
X76558572Y-48694953D01*
X76705047Y-48841428D01*
X76742400Y-48856900D01*
X75984100Y-48856900D01*
X75984100Y-47871475D01*
X85979300Y-47871475D01*
X85979300Y-48353573D01*
X86058572Y-48544953D01*
X86205047Y-48691428D01*
X86396426Y-48770700D01*
X86628525Y-48770700D01*
X86758700Y-48640525D01*
X86758700Y-47741300D01*
X86109475Y-47741300D01*
X85979300Y-47871475D01*
X75984100Y-47871475D01*
X75984100Y-47196427D01*
X76479300Y-47196427D01*
X76479300Y-47478525D01*
X76609475Y-47608700D01*
X77908700Y-47608700D01*
X77908700Y-46909475D01*
X78391300Y-46909475D01*
X78391300Y-47608700D01*
X79690525Y-47608700D01*
X79820700Y-47478525D01*
X79820700Y-47196427D01*
X82179300Y-47196427D01*
X82179300Y-47478525D01*
X82309475Y-47608700D01*
X83608700Y-47608700D01*
X83608700Y-46909475D01*
X84091300Y-46909475D01*
X84091300Y-47608700D01*
X85390525Y-47608700D01*
X85520700Y-47478525D01*
X85520700Y-47196427D01*
X85441428Y-47005047D01*
X85294953Y-46858572D01*
X85103574Y-46779300D01*
X84221475Y-46779300D01*
X84091300Y-46909475D01*
X83608700Y-46909475D01*
X83478525Y-46779300D01*
X82596426Y-46779300D01*
X82405047Y-46858572D01*
X82258572Y-47005047D01*
X82179300Y-47196427D01*
X79820700Y-47196427D01*
X79741428Y-47005047D01*
X79594953Y-46858572D01*
X79403574Y-46779300D01*
X78521475Y-46779300D01*
X78391300Y-46909475D01*
X77908700Y-46909475D01*
X77778525Y-46779300D01*
X76896426Y-46779300D01*
X76705047Y-46858572D01*
X76558572Y-47005047D01*
X76479300Y-47196427D01*
X75984100Y-47196427D01*
X75984100Y-46736000D01*
X75966283Y-46646427D01*
X85979300Y-46646427D01*
X85979300Y-47128525D01*
X86109475Y-47258700D01*
X86758700Y-47258700D01*
X86758700Y-46359475D01*
X87241300Y-46359475D01*
X87241300Y-47258700D01*
X87261300Y-47258700D01*
X87261300Y-47741300D01*
X87241300Y-47741300D01*
X87241300Y-48640525D01*
X87371475Y-48770700D01*
X87603574Y-48770700D01*
X87794953Y-48691428D01*
X87941428Y-48544953D01*
X87994341Y-48417208D01*
X88000000Y-48418334D01*
X89000000Y-48418334D01*
X89064419Y-48405520D01*
X89119030Y-48369030D01*
X89155520Y-48314419D01*
X89168334Y-48250000D01*
X89168334Y-46750000D01*
X89331666Y-46750000D01*
X89331666Y-48250000D01*
X89344480Y-48314419D01*
X89380970Y-48369030D01*
X89435581Y-48405520D01*
X89500000Y-48418334D01*
X90500000Y-48418334D01*
X90564419Y-48405520D01*
X90619030Y-48369030D01*
X90655520Y-48314419D01*
X90668334Y-48250000D01*
X90668334Y-46750000D01*
X90831666Y-46750000D01*
X90831666Y-48250000D01*
X90844480Y-48314419D01*
X90880970Y-48369030D01*
X90935581Y-48405520D01*
X91000000Y-48418334D01*
X92000000Y-48418334D01*
X92064419Y-48405520D01*
X92119030Y-48369030D01*
X92155520Y-48314419D01*
X92168334Y-48250000D01*
X92168334Y-46750000D01*
X92155520Y-46685581D01*
X92119030Y-46630970D01*
X92064419Y-46594480D01*
X92000000Y-46581666D01*
X91000000Y-46581666D01*
X90935581Y-46594480D01*
X90880970Y-46630970D01*
X90844480Y-46685581D01*
X90831666Y-46750000D01*
X90668334Y-46750000D01*
X90655520Y-46685581D01*
X90619030Y-46630970D01*
X90564419Y-46594480D01*
X90500000Y-46581666D01*
X89500000Y-46581666D01*
X89435581Y-46594480D01*
X89380970Y-46630970D01*
X89344480Y-46685581D01*
X89331666Y-46750000D01*
X89168334Y-46750000D01*
X89155520Y-46685581D01*
X89119030Y-46630970D01*
X89064419Y-46594480D01*
X89000000Y-46581666D01*
X88000000Y-46581666D01*
X87994341Y-46582792D01*
X87941428Y-46455047D01*
X87794953Y-46308572D01*
X87603574Y-46229300D01*
X87371475Y-46229300D01*
X87241300Y-46359475D01*
X86758700Y-46359475D01*
X86628525Y-46229300D01*
X86396426Y-46229300D01*
X86205047Y-46308572D01*
X86058572Y-46455047D01*
X85979300Y-46646427D01*
X75966283Y-46646427D01*
X75952198Y-46575617D01*
X75861348Y-46439652D01*
X75725383Y-46348802D01*
X75565000Y-46316900D01*
X75404617Y-46348802D01*
X75268652Y-46439652D01*
X75177802Y-46575617D01*
X75145900Y-46736000D01*
X75145900Y-48856900D01*
X74257600Y-48856900D01*
X74294953Y-48841428D01*
X74441428Y-48694953D01*
X74520700Y-48503573D01*
X74520700Y-48221475D01*
X74390525Y-48091300D01*
X73091300Y-48091300D01*
X73091300Y-48111300D01*
X72608700Y-48111300D01*
X72608700Y-48091300D01*
X71309475Y-48091300D01*
X71179300Y-48221475D01*
X71179300Y-48503573D01*
X71258572Y-48694953D01*
X71405047Y-48841428D01*
X71442400Y-48856900D01*
X68557600Y-48856900D01*
X68594953Y-48841428D01*
X68741428Y-48694953D01*
X68820700Y-48503573D01*
X68820700Y-48221475D01*
X68690525Y-48091300D01*
X67391300Y-48091300D01*
X67391300Y-48111300D01*
X66908700Y-48111300D01*
X66908700Y-48091300D01*
X65609475Y-48091300D01*
X65479300Y-48221475D01*
X65479300Y-48503573D01*
X65558572Y-48694953D01*
X65705047Y-48841428D01*
X65742400Y-48856900D01*
X63257600Y-48856900D01*
X63294953Y-48841428D01*
X63441428Y-48694953D01*
X63520700Y-48503573D01*
X63520700Y-48221475D01*
X63390525Y-48091300D01*
X62091300Y-48091300D01*
X62091300Y-48111300D01*
X61608700Y-48111300D01*
X61608700Y-48091300D01*
X60309475Y-48091300D01*
X60179300Y-48221475D01*
X60179300Y-48503573D01*
X60258572Y-48694953D01*
X60405047Y-48841428D01*
X60442400Y-48856900D01*
X57557600Y-48856900D01*
X57594953Y-48841428D01*
X57741428Y-48694953D01*
X57820700Y-48503573D01*
X57820700Y-48221475D01*
X57690525Y-48091300D01*
X56391300Y-48091300D01*
X56391300Y-48111300D01*
X55908700Y-48111300D01*
X55908700Y-48091300D01*
X54609475Y-48091300D01*
X54479300Y-48221475D01*
X54479300Y-48503573D01*
X54558572Y-48694953D01*
X54705047Y-48841428D01*
X54742400Y-48856900D01*
X54013100Y-48856900D01*
X54013100Y-47196427D01*
X54479300Y-47196427D01*
X54479300Y-47478525D01*
X54609475Y-47608700D01*
X55908700Y-47608700D01*
X55908700Y-46909475D01*
X56391300Y-46909475D01*
X56391300Y-47608700D01*
X57690525Y-47608700D01*
X57820700Y-47478525D01*
X57820700Y-47196427D01*
X60179300Y-47196427D01*
X60179300Y-47478525D01*
X60309475Y-47608700D01*
X61608700Y-47608700D01*
X61608700Y-46909475D01*
X62091300Y-46909475D01*
X62091300Y-47608700D01*
X63390525Y-47608700D01*
X63520700Y-47478525D01*
X63520700Y-47196427D01*
X65479300Y-47196427D01*
X65479300Y-47478525D01*
X65609475Y-47608700D01*
X66908700Y-47608700D01*
X66908700Y-46909475D01*
X67391300Y-46909475D01*
X67391300Y-47608700D01*
X68690525Y-47608700D01*
X68820700Y-47478525D01*
X68820700Y-47196427D01*
X71179300Y-47196427D01*
X71179300Y-47478525D01*
X71309475Y-47608700D01*
X72608700Y-47608700D01*
X72608700Y-46909475D01*
X73091300Y-46909475D01*
X73091300Y-47608700D01*
X74390525Y-47608700D01*
X74520700Y-47478525D01*
X74520700Y-47196427D01*
X74441428Y-47005047D01*
X74294953Y-46858572D01*
X74103574Y-46779300D01*
X73221475Y-46779300D01*
X73091300Y-46909475D01*
X72608700Y-46909475D01*
X72478525Y-46779300D01*
X71596426Y-46779300D01*
X71405047Y-46858572D01*
X71258572Y-47005047D01*
X71179300Y-47196427D01*
X68820700Y-47196427D01*
X68741428Y-47005047D01*
X68594953Y-46858572D01*
X68403574Y-46779300D01*
X67521475Y-46779300D01*
X67391300Y-46909475D01*
X66908700Y-46909475D01*
X66778525Y-46779300D01*
X65896426Y-46779300D01*
X65705047Y-46858572D01*
X65558572Y-47005047D01*
X65479300Y-47196427D01*
X63520700Y-47196427D01*
X63441428Y-47005047D01*
X63294953Y-46858572D01*
X63103574Y-46779300D01*
X62221475Y-46779300D01*
X62091300Y-46909475D01*
X61608700Y-46909475D01*
X61478525Y-46779300D01*
X60596426Y-46779300D01*
X60405047Y-46858572D01*
X60258572Y-47005047D01*
X60179300Y-47196427D01*
X57820700Y-47196427D01*
X57741428Y-47005047D01*
X57594953Y-46858572D01*
X57403574Y-46779300D01*
X56521475Y-46779300D01*
X56391300Y-46909475D01*
X55908700Y-46909475D01*
X55778525Y-46779300D01*
X54896426Y-46779300D01*
X54705047Y-46858572D01*
X54558572Y-47005047D01*
X54479300Y-47196427D01*
X54013100Y-47196427D01*
X54013100Y-43734596D01*
X54147696Y-43600000D01*
X54831666Y-43600000D01*
X54831666Y-44700000D01*
X54844480Y-44764419D01*
X54880970Y-44819030D01*
X54935581Y-44855520D01*
X55000000Y-44868334D01*
X57300000Y-44868334D01*
X57364419Y-44855520D01*
X57419030Y-44819030D01*
X57455520Y-44764419D01*
X57468334Y-44700000D01*
X57468334Y-43600000D01*
X60531666Y-43600000D01*
X60531666Y-44700000D01*
X60544480Y-44764419D01*
X60580970Y-44819030D01*
X60635581Y-44855520D01*
X60700000Y-44868334D01*
X63000000Y-44868334D01*
X63064419Y-44855520D01*
X63119030Y-44819030D01*
X63155520Y-44764419D01*
X63168334Y-44700000D01*
X63168334Y-43600000D01*
X65831666Y-43600000D01*
X65831666Y-44700000D01*
X65844480Y-44764419D01*
X65880970Y-44819030D01*
X65935581Y-44855520D01*
X66000000Y-44868334D01*
X68300000Y-44868334D01*
X68364419Y-44855520D01*
X68419030Y-44819030D01*
X68455520Y-44764419D01*
X68468334Y-44700000D01*
X68468334Y-43600000D01*
X71531666Y-43600000D01*
X71531666Y-44700000D01*
X71544480Y-44764419D01*
X71580970Y-44819030D01*
X71635581Y-44855520D01*
X71700000Y-44868334D01*
X74000000Y-44868334D01*
X74064419Y-44855520D01*
X74119030Y-44819030D01*
X74155520Y-44764419D01*
X74168334Y-44700000D01*
X74168334Y-43600000D01*
X74155520Y-43535581D01*
X74119030Y-43480970D01*
X74064419Y-43444480D01*
X74000000Y-43431666D01*
X71700000Y-43431666D01*
X71635581Y-43444480D01*
X71580970Y-43480970D01*
X71544480Y-43535581D01*
X71531666Y-43600000D01*
X68468334Y-43600000D01*
X68455520Y-43535581D01*
X68419030Y-43480970D01*
X68364419Y-43444480D01*
X68300000Y-43431666D01*
X67391300Y-43431666D01*
X67391300Y-42630876D01*
X67447232Y-42496176D01*
X67447368Y-42340507D01*
X67387921Y-42196636D01*
X67277943Y-42086465D01*
X67134176Y-42026768D01*
X66978507Y-42026632D01*
X66834636Y-42086079D01*
X66724465Y-42196057D01*
X66664768Y-42339824D01*
X66664632Y-42495493D01*
X66724079Y-42639364D01*
X66834057Y-42749535D01*
X66908700Y-42780529D01*
X66908700Y-43431666D01*
X66000000Y-43431666D01*
X65935581Y-43444480D01*
X65880970Y-43480970D01*
X65844480Y-43535581D01*
X65831666Y-43600000D01*
X63168334Y-43600000D01*
X63155520Y-43535581D01*
X63119030Y-43480970D01*
X63064419Y-43444480D01*
X63000000Y-43431666D01*
X62091300Y-43431666D01*
X62091300Y-43301746D01*
X62197364Y-43257921D01*
X62307535Y-43147943D01*
X62367232Y-43004176D01*
X62367368Y-42848507D01*
X62307921Y-42704636D01*
X62197943Y-42594465D01*
X62054176Y-42534768D01*
X61898507Y-42534632D01*
X61754636Y-42594079D01*
X61644465Y-42704057D01*
X61584768Y-42847824D01*
X61584632Y-43003493D01*
X61608700Y-43061741D01*
X61608700Y-43431666D01*
X60700000Y-43431666D01*
X60635581Y-43444480D01*
X60580970Y-43480970D01*
X60544480Y-43535581D01*
X60531666Y-43600000D01*
X57468334Y-43600000D01*
X57455520Y-43535581D01*
X57419030Y-43480970D01*
X57364419Y-43444480D01*
X57300000Y-43431666D01*
X55000000Y-43431666D01*
X54935581Y-43444480D01*
X54880970Y-43480970D01*
X54844480Y-43535581D01*
X54831666Y-43600000D01*
X54147696Y-43600000D01*
X56395203Y-41352493D01*
X72633632Y-41352493D01*
X72693079Y-41496364D01*
X72803057Y-41606535D01*
X72946824Y-41666232D01*
X73102493Y-41666368D01*
X73246364Y-41606921D01*
X73337144Y-41516300D01*
X76354050Y-41516300D01*
X77908700Y-43070950D01*
X77908700Y-43431666D01*
X77000000Y-43431666D01*
X76935581Y-43444480D01*
X76880970Y-43480970D01*
X76844480Y-43535581D01*
X76831666Y-43600000D01*
X76831666Y-44700000D01*
X76844480Y-44764419D01*
X76880970Y-44819030D01*
X76935581Y-44855520D01*
X77000000Y-44868334D01*
X79300000Y-44868334D01*
X79364419Y-44855520D01*
X79419030Y-44819030D01*
X79455520Y-44764419D01*
X79468334Y-44700000D01*
X79468334Y-43600000D01*
X82531666Y-43600000D01*
X82531666Y-44700000D01*
X82544480Y-44764419D01*
X82580970Y-44819030D01*
X82635581Y-44855520D01*
X82700000Y-44868334D01*
X85000000Y-44868334D01*
X85064419Y-44855520D01*
X85119030Y-44819030D01*
X85155520Y-44764419D01*
X85168334Y-44700000D01*
X85168334Y-43600000D01*
X85155520Y-43535581D01*
X85119030Y-43480970D01*
X85064419Y-43444480D01*
X85000000Y-43431666D01*
X82700000Y-43431666D01*
X82635581Y-43444480D01*
X82580970Y-43480970D01*
X82544480Y-43535581D01*
X82531666Y-43600000D01*
X79468334Y-43600000D01*
X79455520Y-43535581D01*
X79419030Y-43480970D01*
X79364419Y-43444480D01*
X79300000Y-43431666D01*
X78391300Y-43431666D01*
X78391300Y-42971000D01*
X78372932Y-42878658D01*
X78320625Y-42800375D01*
X76624625Y-41104375D01*
X76605057Y-41091300D01*
X76546342Y-41052068D01*
X76454000Y-41033700D01*
X73337020Y-41033700D01*
X73246943Y-40943465D01*
X73103176Y-40883768D01*
X72947507Y-40883632D01*
X72803636Y-40943079D01*
X72693465Y-41053057D01*
X72633768Y-41196824D01*
X72633632Y-41352493D01*
X56395203Y-41352493D01*
X60113348Y-37634348D01*
X60133158Y-37604700D01*
X60204198Y-37498383D01*
X60236100Y-37338000D01*
X60236100Y-36868794D01*
X60416440Y-36868794D01*
X60480859Y-36855980D01*
X60535470Y-36819490D01*
X60571960Y-36764879D01*
X60584774Y-36700460D01*
X60584774Y-35600000D01*
X61181666Y-35600000D01*
X61181666Y-36300000D01*
X61194480Y-36364419D01*
X61230970Y-36419030D01*
X61285581Y-36455520D01*
X61350000Y-36468334D01*
X62650000Y-36468334D01*
X62714419Y-36455520D01*
X62769030Y-36419030D01*
X62805520Y-36364419D01*
X62818334Y-36300000D01*
X62818334Y-36173530D01*
X62821342Y-36172932D01*
X62899625Y-36120625D01*
X63449993Y-35570257D01*
X63577493Y-35570368D01*
X63721364Y-35510921D01*
X63831535Y-35400943D01*
X63891232Y-35257176D01*
X63891368Y-35101507D01*
X63831921Y-34957636D01*
X63721943Y-34847465D01*
X63578176Y-34787768D01*
X63422507Y-34787632D01*
X63278636Y-34847079D01*
X63168465Y-34957057D01*
X63108768Y-35100824D01*
X63108656Y-35229094D01*
X62804178Y-35533572D01*
X62769030Y-35480970D01*
X62714419Y-35444480D01*
X62650000Y-35431666D01*
X61350000Y-35431666D01*
X61285581Y-35444480D01*
X61230970Y-35480970D01*
X61194480Y-35535581D01*
X61181666Y-35600000D01*
X60584774Y-35600000D01*
X60584774Y-35501580D01*
X60571960Y-35437161D01*
X60535470Y-35382550D01*
X60480859Y-35346060D01*
X60416440Y-35333246D01*
X59217560Y-35333246D01*
X59153141Y-35346060D01*
X59098530Y-35382550D01*
X59062040Y-35437161D01*
X59049226Y-35501580D01*
X59049226Y-36700460D01*
X59062040Y-36764879D01*
X59098530Y-36819490D01*
X59153141Y-36855980D01*
X59217560Y-36868794D01*
X59397900Y-36868794D01*
X59397900Y-37164404D01*
X53297652Y-43264652D01*
X53206802Y-43400617D01*
X53174900Y-43561000D01*
X53174900Y-48856900D01*
X52419100Y-48856900D01*
X52419100Y-48418334D01*
X52500000Y-48418334D01*
X52564419Y-48405520D01*
X52619030Y-48369030D01*
X52655520Y-48314419D01*
X52668334Y-48250000D01*
X52668334Y-46750000D01*
X52655520Y-46685581D01*
X52619030Y-46630970D01*
X52564419Y-46594480D01*
X52500000Y-46581666D01*
X51500000Y-46581666D01*
X51435581Y-46594480D01*
X51380970Y-46630970D01*
X51344480Y-46685581D01*
X51331666Y-46750000D01*
X51331666Y-48250000D01*
X51344480Y-48314419D01*
X51380970Y-48369030D01*
X51435581Y-48405520D01*
X51500000Y-48418334D01*
X51580900Y-48418334D01*
X51580900Y-48856900D01*
X44601808Y-48856900D01*
X43980100Y-48235192D01*
X43980100Y-47871475D01*
X44979300Y-47871475D01*
X44979300Y-48353573D01*
X45058572Y-48544953D01*
X45205047Y-48691428D01*
X45396426Y-48770700D01*
X45628525Y-48770700D01*
X45758700Y-48640525D01*
X45758700Y-47741300D01*
X45109475Y-47741300D01*
X44979300Y-47871475D01*
X43980100Y-47871475D01*
X43980100Y-46646427D01*
X44979300Y-46646427D01*
X44979300Y-47128525D01*
X45109475Y-47258700D01*
X45758700Y-47258700D01*
X45758700Y-46359475D01*
X46241300Y-46359475D01*
X46241300Y-47258700D01*
X46261300Y-47258700D01*
X46261300Y-47741300D01*
X46241300Y-47741300D01*
X46241300Y-48640525D01*
X46371475Y-48770700D01*
X46603574Y-48770700D01*
X46794953Y-48691428D01*
X46941428Y-48544953D01*
X46994341Y-48417208D01*
X47000000Y-48418334D01*
X48000000Y-48418334D01*
X48064419Y-48405520D01*
X48119030Y-48369030D01*
X48155520Y-48314419D01*
X48168334Y-48250000D01*
X48168334Y-46750000D01*
X48331666Y-46750000D01*
X48331666Y-48250000D01*
X48344480Y-48314419D01*
X48380970Y-48369030D01*
X48435581Y-48405520D01*
X48500000Y-48418334D01*
X49500000Y-48418334D01*
X49564419Y-48405520D01*
X49619030Y-48369030D01*
X49655520Y-48314419D01*
X49668334Y-48250000D01*
X49668334Y-46750000D01*
X49831666Y-46750000D01*
X49831666Y-48250000D01*
X49844480Y-48314419D01*
X49880970Y-48369030D01*
X49935581Y-48405520D01*
X50000000Y-48418334D01*
X51000000Y-48418334D01*
X51064419Y-48405520D01*
X51119030Y-48369030D01*
X51155520Y-48314419D01*
X51168334Y-48250000D01*
X51168334Y-46750000D01*
X51155520Y-46685581D01*
X51119030Y-46630970D01*
X51064419Y-46594480D01*
X51000000Y-46581666D01*
X50000000Y-46581666D01*
X49935581Y-46594480D01*
X49880970Y-46630970D01*
X49844480Y-46685581D01*
X49831666Y-46750000D01*
X49668334Y-46750000D01*
X49655520Y-46685581D01*
X49619030Y-46630970D01*
X49564419Y-46594480D01*
X49500000Y-46581666D01*
X48500000Y-46581666D01*
X48435581Y-46594480D01*
X48380970Y-46630970D01*
X48344480Y-46685581D01*
X48331666Y-46750000D01*
X48168334Y-46750000D01*
X48155520Y-46685581D01*
X48119030Y-46630970D01*
X48064419Y-46594480D01*
X48000000Y-46581666D01*
X47000000Y-46581666D01*
X46994341Y-46582792D01*
X46941428Y-46455047D01*
X46794953Y-46308572D01*
X46603574Y-46229300D01*
X46371475Y-46229300D01*
X46241300Y-46359475D01*
X45758700Y-46359475D01*
X45628525Y-46229300D01*
X45396426Y-46229300D01*
X45205047Y-46308572D01*
X45058572Y-46455047D01*
X44979300Y-46646427D01*
X43980100Y-46646427D01*
X43980100Y-36346808D01*
X46653807Y-33673100D01*
X50399476Y-33673100D01*
X50410581Y-33680520D01*
X50475000Y-33693334D01*
X50600871Y-33693334D01*
X50415303Y-33878579D01*
X50310020Y-34132128D01*
X50309780Y-34406667D01*
X50414620Y-34660400D01*
X50608579Y-34854697D01*
X50862128Y-34959980D01*
X51136667Y-34960220D01*
X51390400Y-34855380D01*
X51584697Y-34661421D01*
X51634993Y-34540294D01*
X51684620Y-34660400D01*
X51878579Y-34854697D01*
X52132128Y-34959980D01*
X52406667Y-34960220D01*
X52660400Y-34855380D01*
X52854697Y-34661421D01*
X52904993Y-34540294D01*
X52954620Y-34660400D01*
X53148579Y-34854697D01*
X53402128Y-34959980D01*
X53676667Y-34960220D01*
X53930400Y-34855380D01*
X54124697Y-34661421D01*
X54174993Y-34540294D01*
X54224620Y-34660400D01*
X54418579Y-34854697D01*
X54672128Y-34959980D01*
X54946667Y-34960220D01*
X55200400Y-34855380D01*
X55394697Y-34661421D01*
X55444993Y-34540294D01*
X55494620Y-34660400D01*
X55688579Y-34854697D01*
X55942128Y-34959980D01*
X56216667Y-34960220D01*
X56470400Y-34855380D01*
X56664697Y-34661421D01*
X56769980Y-34407872D01*
X56770220Y-34133333D01*
X56665380Y-33879600D01*
X56471421Y-33685303D01*
X56350294Y-33635007D01*
X56470400Y-33585380D01*
X56652556Y-33403540D01*
X59049226Y-33403540D01*
X59049226Y-34602420D01*
X59062040Y-34666839D01*
X59098530Y-34721450D01*
X59153141Y-34757940D01*
X59217560Y-34770754D01*
X60416440Y-34770754D01*
X60480859Y-34757940D01*
X60535470Y-34721450D01*
X60571960Y-34666839D01*
X60584774Y-34602420D01*
X60584774Y-34422080D01*
X61186058Y-34422080D01*
X61194480Y-34464419D01*
X61230970Y-34519030D01*
X61285581Y-34555520D01*
X61350000Y-34568334D01*
X62650000Y-34568334D01*
X62714419Y-34555520D01*
X62769030Y-34519030D01*
X62805520Y-34464419D01*
X62818334Y-34400000D01*
X62818334Y-34367493D01*
X71109632Y-34367493D01*
X71169079Y-34511364D01*
X71279057Y-34621535D01*
X71422824Y-34681232D01*
X71578493Y-34681368D01*
X71722364Y-34621921D01*
X71832535Y-34511943D01*
X71877232Y-34404300D01*
X76001666Y-34404300D01*
X76001666Y-34813000D01*
X76014480Y-34877419D01*
X76050970Y-34932030D01*
X76105581Y-34968520D01*
X76170000Y-34981334D01*
X76870000Y-34981334D01*
X76934419Y-34968520D01*
X76989030Y-34932030D01*
X77025520Y-34877419D01*
X77038334Y-34813000D01*
X77038334Y-33513000D01*
X77901666Y-33513000D01*
X77901666Y-34813000D01*
X77914480Y-34877419D01*
X77950970Y-34932030D01*
X78005581Y-34968520D01*
X78070000Y-34981334D01*
X78770000Y-34981334D01*
X78834419Y-34968520D01*
X78889030Y-34932030D01*
X78925520Y-34877419D01*
X78938334Y-34813000D01*
X78938334Y-34244280D01*
X79369226Y-34244280D01*
X79369226Y-34602420D01*
X79382040Y-34666839D01*
X79418530Y-34721450D01*
X79473141Y-34757940D01*
X79537560Y-34770754D01*
X80736440Y-34770754D01*
X80800859Y-34757940D01*
X80855470Y-34721450D01*
X80891960Y-34666839D01*
X80904774Y-34602420D01*
X80904774Y-33403540D01*
X80891960Y-33339121D01*
X80855470Y-33284510D01*
X80800859Y-33248020D01*
X80736440Y-33235206D01*
X79537560Y-33235206D01*
X79473141Y-33248020D01*
X79418530Y-33284510D01*
X79382040Y-33339121D01*
X79369226Y-33403540D01*
X79369226Y-33761680D01*
X78938334Y-33761680D01*
X78938334Y-33513000D01*
X78925520Y-33448581D01*
X78889030Y-33393970D01*
X78834419Y-33357480D01*
X78770000Y-33344666D01*
X78070000Y-33344666D01*
X78005581Y-33357480D01*
X77950970Y-33393970D01*
X77914480Y-33448581D01*
X77901666Y-33513000D01*
X77038334Y-33513000D01*
X77025520Y-33448581D01*
X76989030Y-33393970D01*
X76934419Y-33357480D01*
X76870000Y-33344666D01*
X76170000Y-33344666D01*
X76105581Y-33357480D01*
X76050970Y-33393970D01*
X76014480Y-33448581D01*
X76001666Y-33513000D01*
X76001666Y-33921700D01*
X71634403Y-33921700D01*
X71579176Y-33898768D01*
X71423507Y-33898632D01*
X71279636Y-33958079D01*
X71169465Y-34068057D01*
X71109768Y-34211824D01*
X71109632Y-34367493D01*
X62818334Y-34367493D01*
X62818334Y-33700000D01*
X62805520Y-33635581D01*
X62769030Y-33580970D01*
X62714419Y-33544480D01*
X62650000Y-33531666D01*
X61350000Y-33531666D01*
X61285581Y-33544480D01*
X61230970Y-33580970D01*
X61229026Y-33583880D01*
X60584774Y-33583880D01*
X60584774Y-33403540D01*
X60571960Y-33339121D01*
X60535470Y-33284510D01*
X60480859Y-33248020D01*
X60416440Y-33235206D01*
X59217560Y-33235206D01*
X59153141Y-33248020D01*
X59098530Y-33284510D01*
X59062040Y-33339121D01*
X59049226Y-33403540D01*
X56652556Y-33403540D01*
X56664697Y-33391421D01*
X56769980Y-33137872D01*
X56770220Y-32863333D01*
X56665380Y-32609600D01*
X56471421Y-32415303D01*
X56217872Y-32310020D01*
X55943333Y-32309780D01*
X55689600Y-32414620D01*
X55495303Y-32608579D01*
X55445007Y-32729706D01*
X55395380Y-32609600D01*
X55201421Y-32415303D01*
X54947872Y-32310020D01*
X54673333Y-32309780D01*
X54419600Y-32414620D01*
X54225303Y-32608579D01*
X54191667Y-32689583D01*
X53881250Y-33000000D01*
X54191505Y-33310255D01*
X54224620Y-33390400D01*
X54418579Y-33584697D01*
X54539706Y-33634993D01*
X54419600Y-33684620D01*
X54225303Y-33878579D01*
X54175007Y-33999706D01*
X54125380Y-33879600D01*
X53931421Y-33685303D01*
X53850417Y-33651667D01*
X53540000Y-33341250D01*
X53229745Y-33651505D01*
X53149600Y-33684620D01*
X52955303Y-33878579D01*
X52905007Y-33999706D01*
X52855380Y-33879600D01*
X52661421Y-33685303D01*
X52580417Y-33651667D01*
X52270000Y-33341250D01*
X51959745Y-33651505D01*
X51879600Y-33684620D01*
X51685303Y-33878579D01*
X51635007Y-33999706D01*
X51585380Y-33879600D01*
X51399438Y-33693334D01*
X51525000Y-33693334D01*
X51589419Y-33680520D01*
X51644030Y-33644030D01*
X51680520Y-33589419D01*
X51693334Y-33525000D01*
X51693334Y-33235416D01*
X51928750Y-33000000D01*
X51920946Y-32992196D01*
X52473843Y-32992196D01*
X52552013Y-33400790D01*
X52557986Y-33415211D01*
X52729887Y-33468863D01*
X52905000Y-33293750D01*
X53080113Y-33468863D01*
X53252014Y-33415211D01*
X53336157Y-33007804D01*
X53257987Y-32599210D01*
X53252014Y-32584789D01*
X53080113Y-32531137D01*
X52905000Y-32706250D01*
X52729887Y-32531137D01*
X52557986Y-32584789D01*
X52473843Y-32992196D01*
X51920946Y-32992196D01*
X51693334Y-32764584D01*
X51693334Y-32475000D01*
X51680520Y-32410581D01*
X51644030Y-32355970D01*
X51589419Y-32319480D01*
X51525000Y-32306666D01*
X50475000Y-32306666D01*
X50410581Y-32319480D01*
X50399476Y-32326900D01*
X46375000Y-32326900D01*
X46117416Y-32378137D01*
X45899046Y-32524046D01*
X45899044Y-32524049D01*
X42831046Y-35592046D01*
X42685137Y-35810416D01*
X42633899Y-36068000D01*
X20236197Y-36068000D01*
X22932722Y-33371475D01*
X36479300Y-33371475D01*
X36479300Y-33853573D01*
X36558572Y-34044953D01*
X36705047Y-34191428D01*
X36896426Y-34270700D01*
X37128525Y-34270700D01*
X37258700Y-34140525D01*
X37258700Y-33241300D01*
X36609475Y-33241300D01*
X36479300Y-33371475D01*
X22932722Y-33371475D01*
X24157770Y-32146427D01*
X36479300Y-32146427D01*
X36479300Y-32628525D01*
X36609475Y-32758700D01*
X37258700Y-32758700D01*
X37258700Y-31859475D01*
X37741300Y-31859475D01*
X37741300Y-32758700D01*
X37761300Y-32758700D01*
X37761300Y-33241300D01*
X37741300Y-33241300D01*
X37741300Y-34140525D01*
X37871475Y-34270700D01*
X38103574Y-34270700D01*
X38294953Y-34191428D01*
X38441428Y-34044953D01*
X38494341Y-33917208D01*
X38500000Y-33918334D01*
X39500000Y-33918334D01*
X39564419Y-33905520D01*
X39619030Y-33869030D01*
X39655520Y-33814419D01*
X39668334Y-33750000D01*
X39668334Y-32250000D01*
X39831666Y-32250000D01*
X39831666Y-33750000D01*
X39844480Y-33814419D01*
X39880970Y-33869030D01*
X39935581Y-33905520D01*
X40000000Y-33918334D01*
X41000000Y-33918334D01*
X41064419Y-33905520D01*
X41119030Y-33869030D01*
X41155520Y-33814419D01*
X41168334Y-33750000D01*
X41168334Y-32250000D01*
X41156377Y-32189887D01*
X51801137Y-32189887D01*
X52270000Y-32658750D01*
X52738863Y-32189887D01*
X53071137Y-32189887D01*
X53540000Y-32658750D01*
X54008863Y-32189887D01*
X53955211Y-32017986D01*
X53547804Y-31933843D01*
X53139210Y-32012013D01*
X53124789Y-32017986D01*
X53071137Y-32189887D01*
X52738863Y-32189887D01*
X52685211Y-32017986D01*
X52277804Y-31933843D01*
X51869210Y-32012013D01*
X51854789Y-32017986D01*
X51801137Y-32189887D01*
X41156377Y-32189887D01*
X41155520Y-32185581D01*
X41119030Y-32130970D01*
X41064419Y-32094480D01*
X41000000Y-32081666D01*
X40000000Y-32081666D01*
X39935581Y-32094480D01*
X39880970Y-32130970D01*
X39844480Y-32185581D01*
X39831666Y-32250000D01*
X39668334Y-32250000D01*
X39655520Y-32185581D01*
X39619030Y-32130970D01*
X39564419Y-32094480D01*
X39500000Y-32081666D01*
X38500000Y-32081666D01*
X38494341Y-32082792D01*
X38441428Y-31955047D01*
X38294953Y-31808572D01*
X38103574Y-31729300D01*
X37871475Y-31729300D01*
X37741300Y-31859475D01*
X37258700Y-31859475D01*
X37128525Y-31729300D01*
X36896426Y-31729300D01*
X36705047Y-31808572D01*
X36558572Y-31955047D01*
X36479300Y-32146427D01*
X24157770Y-32146427D01*
X25152096Y-31152101D01*
X25152099Y-31152099D01*
X25168401Y-31127700D01*
X40831599Y-31127700D01*
X40847901Y-31152099D01*
X40917685Y-31198726D01*
X41000000Y-31215100D01*
X59000000Y-31215100D01*
X59082315Y-31198726D01*
X59152099Y-31152099D01*
X59291498Y-31012700D01*
X67494740Y-31012700D01*
X69491020Y-33008980D01*
X69491020Y-33008980D01*
G37*
X69491020Y-33008980D02*
X69495140Y-33011733D01*
X69500000Y-33012700D01*
X69504860Y-33011733D01*
X69508980Y-33008980D01*
X71505260Y-31012700D01*
X80708502Y-31012700D01*
X80847901Y-31152099D01*
X80917685Y-31198726D01*
X81000000Y-31215101D01*
X81000005Y-31215100D01*
X99000000Y-31215100D01*
X99082315Y-31198726D01*
X99152099Y-31152099D01*
X99168401Y-31127700D01*
X114831599Y-31127700D01*
X114847901Y-31152099D01*
X126784900Y-43089097D01*
X126784900Y-62784900D01*
X104856050Y-62784900D01*
X104063874Y-60196794D01*
X104049032Y-60169194D01*
X104037042Y-60140246D01*
X102139251Y-57300000D01*
X105831666Y-57300000D01*
X105831666Y-58400000D01*
X105844480Y-58464419D01*
X105880970Y-58519030D01*
X105935581Y-58555520D01*
X106000000Y-58568334D01*
X108300000Y-58568334D01*
X108364419Y-58555520D01*
X108419030Y-58519030D01*
X108455520Y-58464419D01*
X108468334Y-58400000D01*
X108468334Y-57300000D01*
X111531666Y-57300000D01*
X111531666Y-58400000D01*
X111544480Y-58464419D01*
X111580970Y-58519030D01*
X111635581Y-58555520D01*
X111700000Y-58568334D01*
X114000000Y-58568334D01*
X114064419Y-58555520D01*
X114119030Y-58519030D01*
X114155520Y-58464419D01*
X114168334Y-58400000D01*
X114168334Y-57300000D01*
X114155520Y-57235581D01*
X114119030Y-57180970D01*
X114064419Y-57144480D01*
X114000000Y-57131666D01*
X111700000Y-57131666D01*
X111635581Y-57144480D01*
X111580970Y-57180970D01*
X111544480Y-57235581D01*
X111531666Y-57300000D01*
X108468334Y-57300000D01*
X108455520Y-57235581D01*
X108419030Y-57180970D01*
X108364419Y-57144480D01*
X108300000Y-57131666D01*
X107391300Y-57131666D01*
X107391300Y-56865176D01*
X107392535Y-56863943D01*
X107452232Y-56720176D01*
X107452368Y-56564507D01*
X107392921Y-56420636D01*
X107282943Y-56310465D01*
X107139176Y-56250768D01*
X106983507Y-56250632D01*
X106839636Y-56310079D01*
X106729465Y-56420057D01*
X106669768Y-56563824D01*
X106669632Y-56719493D01*
X106729079Y-56863364D01*
X106839057Y-56973535D01*
X106908700Y-57002453D01*
X106908700Y-57131666D01*
X106000000Y-57131666D01*
X105935581Y-57144480D01*
X105880970Y-57180970D01*
X105844480Y-57235581D01*
X105831666Y-57300000D01*
X102139251Y-57300000D01*
X100785451Y-55273895D01*
X100726105Y-55214549D01*
X99688847Y-54521475D01*
X105479300Y-54521475D01*
X105479300Y-54803573D01*
X105558572Y-54994953D01*
X105705047Y-55141428D01*
X105896426Y-55220700D01*
X106778525Y-55220700D01*
X106908700Y-55090525D01*
X106908700Y-54391300D01*
X107391300Y-54391300D01*
X107391300Y-55090525D01*
X107521475Y-55220700D01*
X108403574Y-55220700D01*
X108594953Y-55141428D01*
X108741428Y-54994953D01*
X108820700Y-54803573D01*
X108820700Y-54521475D01*
X111179300Y-54521475D01*
X111179300Y-54803573D01*
X111258572Y-54994953D01*
X111405047Y-55141428D01*
X111596426Y-55220700D01*
X112478525Y-55220700D01*
X112608700Y-55090525D01*
X112608700Y-54391300D01*
X113091300Y-54391300D01*
X113091300Y-55090525D01*
X113221475Y-55220700D01*
X114103574Y-55220700D01*
X114294953Y-55141428D01*
X114441428Y-54994953D01*
X114520700Y-54803573D01*
X114520700Y-54521475D01*
X114390525Y-54391300D01*
X113091300Y-54391300D01*
X112608700Y-54391300D01*
X111309475Y-54391300D01*
X111179300Y-54521475D01*
X108820700Y-54521475D01*
X108690525Y-54391300D01*
X107391300Y-54391300D01*
X106908700Y-54391300D01*
X105609475Y-54391300D01*
X105479300Y-54521475D01*
X99688847Y-54521475D01*
X99393798Y-54324329D01*
X120362017Y-54324329D01*
X120610816Y-54926470D01*
X121071106Y-55387565D01*
X121672812Y-55637415D01*
X122324329Y-55637983D01*
X122926470Y-55389184D01*
X123387565Y-54928894D01*
X123637415Y-54327188D01*
X123637983Y-53675671D01*
X123389184Y-53073530D01*
X122928894Y-52612435D01*
X122327188Y-52362585D01*
X121675671Y-52362017D01*
X121073530Y-52610816D01*
X120612435Y-53071106D01*
X120362585Y-53672812D01*
X120362017Y-54324329D01*
X99393798Y-54324329D01*
X98154754Y-53496427D01*
X105479300Y-53496427D01*
X105479300Y-53778525D01*
X105609475Y-53908700D01*
X106908700Y-53908700D01*
X106908700Y-53209475D01*
X107391300Y-53209475D01*
X107391300Y-53908700D01*
X108690525Y-53908700D01*
X108820700Y-53778525D01*
X108820700Y-53496427D01*
X111179300Y-53496427D01*
X111179300Y-53778525D01*
X111309475Y-53908700D01*
X112608700Y-53908700D01*
X112608700Y-53209475D01*
X113091300Y-53209475D01*
X113091300Y-53908700D01*
X114390525Y-53908700D01*
X114520700Y-53778525D01*
X114520700Y-53496427D01*
X114441428Y-53305047D01*
X114294953Y-53158572D01*
X114103574Y-53079300D01*
X113221475Y-53079300D01*
X113091300Y-53209475D01*
X112608700Y-53209475D01*
X112478525Y-53079300D01*
X111596426Y-53079300D01*
X111405047Y-53158572D01*
X111258572Y-53305047D01*
X111179300Y-53496427D01*
X108820700Y-53496427D01*
X108741428Y-53305047D01*
X108594953Y-53158572D01*
X108403574Y-53079300D01*
X107521475Y-53079300D01*
X107391300Y-53209475D01*
X106908700Y-53209475D01*
X106778525Y-53079300D01*
X105896426Y-53079300D01*
X105705047Y-53158572D01*
X105558572Y-53305047D01*
X105479300Y-53496427D01*
X98154754Y-53496427D01*
X95859754Y-51962958D01*
X95782215Y-51930840D01*
X90041964Y-50789033D01*
X90010626Y-50789033D01*
X89979453Y-50785884D01*
X87126817Y-51059633D01*
X87096809Y-51068654D01*
X87066046Y-51074613D01*
X81647697Y-53287239D01*
X81577681Y-53333516D01*
X77418515Y-57451228D01*
X77399577Y-57479267D01*
X77371538Y-57520778D01*
X75160115Y-62784900D01*
X64855138Y-62784900D01*
X64063894Y-60196860D01*
X64049046Y-60169227D01*
X64037042Y-60140246D01*
X62823686Y-58324329D01*
X68362017Y-58324329D01*
X68610816Y-58926470D01*
X69071106Y-59387565D01*
X69672812Y-59637415D01*
X70324329Y-59637983D01*
X70926470Y-59389184D01*
X71387565Y-58928894D01*
X71637415Y-58327188D01*
X71637983Y-57675671D01*
X71389184Y-57073530D01*
X70928894Y-56612435D01*
X70327188Y-56362585D01*
X69675671Y-56362017D01*
X69073530Y-56610816D01*
X68612435Y-57071106D01*
X68362585Y-57672812D01*
X68362017Y-58324329D01*
X62823686Y-58324329D01*
X60785451Y-55273895D01*
X60726105Y-55214549D01*
X55859754Y-51962958D01*
X55782215Y-51930840D01*
X50041964Y-50789033D01*
X50010626Y-50789033D01*
X49979453Y-50785884D01*
X47126817Y-51059633D01*
X47096809Y-51068654D01*
X47066046Y-51074613D01*
X41647697Y-53287239D01*
X41577681Y-53333516D01*
X37418515Y-57451228D01*
X37399577Y-57479267D01*
X37371538Y-57520778D01*
X35160115Y-62784900D01*
X13215100Y-62784900D01*
X13215100Y-54324329D01*
X16362017Y-54324329D01*
X16610816Y-54926470D01*
X17071106Y-55387565D01*
X17672812Y-55637415D01*
X18324329Y-55637983D01*
X18926470Y-55389184D01*
X19387565Y-54928894D01*
X19637415Y-54327188D01*
X19637438Y-54300000D01*
X25831666Y-54300000D01*
X25831666Y-55400000D01*
X25844480Y-55464419D01*
X25880970Y-55519030D01*
X25935581Y-55555520D01*
X26000000Y-55568334D01*
X28300000Y-55568334D01*
X28364419Y-55555520D01*
X28419030Y-55519030D01*
X28455520Y-55464419D01*
X28468334Y-55400000D01*
X28468334Y-54300000D01*
X31531666Y-54300000D01*
X31531666Y-55400000D01*
X31544480Y-55464419D01*
X31580970Y-55519030D01*
X31635581Y-55555520D01*
X31700000Y-55568334D01*
X34000000Y-55568334D01*
X34064419Y-55555520D01*
X34119030Y-55519030D01*
X34155520Y-55464419D01*
X34168334Y-55400000D01*
X34168334Y-55091300D01*
X34345005Y-55091300D01*
X34449057Y-55195535D01*
X34592824Y-55255232D01*
X34748493Y-55255368D01*
X34892364Y-55195921D01*
X35002535Y-55085943D01*
X35062232Y-54942176D01*
X35062368Y-54786507D01*
X35002921Y-54642636D01*
X34892943Y-54532465D01*
X34749176Y-54472768D01*
X34593507Y-54472632D01*
X34449636Y-54532079D01*
X34372881Y-54608700D01*
X34168334Y-54608700D01*
X34168334Y-54300000D01*
X34155520Y-54235581D01*
X34119030Y-54180970D01*
X34064419Y-54144480D01*
X34000000Y-54131666D01*
X31700000Y-54131666D01*
X31635581Y-54144480D01*
X31580970Y-54180970D01*
X31544480Y-54235581D01*
X31531666Y-54300000D01*
X28468334Y-54300000D01*
X28455520Y-54235581D01*
X28419030Y-54180970D01*
X28364419Y-54144480D01*
X28300000Y-54131666D01*
X26000000Y-54131666D01*
X25935581Y-54144480D01*
X25880970Y-54180970D01*
X25844480Y-54235581D01*
X25831666Y-54300000D01*
X19637438Y-54300000D01*
X19637983Y-53675671D01*
X19389184Y-53073530D01*
X18928894Y-52612435D01*
X18327188Y-52362585D01*
X17675671Y-52362017D01*
X17073530Y-52610816D01*
X16612435Y-53071106D01*
X16362585Y-53672812D01*
X16362017Y-54324329D01*
X13215100Y-54324329D01*
X13215100Y-51521475D01*
X25479300Y-51521475D01*
X25479300Y-51803573D01*
X25558572Y-51994953D01*
X25705047Y-52141428D01*
X25896426Y-52220700D01*
X26778525Y-52220700D01*
X26908700Y-52090525D01*
X26908700Y-51391300D01*
X27391300Y-51391300D01*
X27391300Y-52090525D01*
X27521475Y-52220700D01*
X28403574Y-52220700D01*
X28594953Y-52141428D01*
X28741428Y-51994953D01*
X28820700Y-51803573D01*
X28820700Y-51521475D01*
X31179300Y-51521475D01*
X31179300Y-51803573D01*
X31258572Y-51994953D01*
X31405047Y-52141428D01*
X31596426Y-52220700D01*
X32478525Y-52220700D01*
X32608700Y-52090525D01*
X32608700Y-51391300D01*
X33091300Y-51391300D01*
X33091300Y-52090525D01*
X33221475Y-52220700D01*
X34103574Y-52220700D01*
X34294953Y-52141428D01*
X34441428Y-51994953D01*
X34520700Y-51803573D01*
X34520700Y-51521475D01*
X34390525Y-51391300D01*
X33091300Y-51391300D01*
X32608700Y-51391300D01*
X31309475Y-51391300D01*
X31179300Y-51521475D01*
X28820700Y-51521475D01*
X28690525Y-51391300D01*
X27391300Y-51391300D01*
X26908700Y-51391300D01*
X25609475Y-51391300D01*
X25479300Y-51521475D01*
X13215100Y-51521475D01*
X13215100Y-50496427D01*
X25479300Y-50496427D01*
X25479300Y-50778525D01*
X25609475Y-50908700D01*
X26908700Y-50908700D01*
X26908700Y-50209475D01*
X27391300Y-50209475D01*
X27391300Y-50908700D01*
X28690525Y-50908700D01*
X28820700Y-50778525D01*
X28820700Y-50496427D01*
X31179300Y-50496427D01*
X31179300Y-50778525D01*
X31309475Y-50908700D01*
X32608700Y-50908700D01*
X32608700Y-50209475D01*
X33091300Y-50209475D01*
X33091300Y-50908700D01*
X34390525Y-50908700D01*
X34520700Y-50778525D01*
X34520700Y-50496427D01*
X34441428Y-50305047D01*
X34294953Y-50158572D01*
X34103574Y-50079300D01*
X33221475Y-50079300D01*
X33091300Y-50209475D01*
X32608700Y-50209475D01*
X32478525Y-50079300D01*
X31596426Y-50079300D01*
X31405047Y-50158572D01*
X31258572Y-50305047D01*
X31179300Y-50496427D01*
X28820700Y-50496427D01*
X28741428Y-50305047D01*
X28594953Y-50158572D01*
X28403574Y-50079300D01*
X27521475Y-50079300D01*
X27391300Y-50209475D01*
X26908700Y-50209475D01*
X26778525Y-50079300D01*
X25896426Y-50079300D01*
X25705047Y-50158572D01*
X25558572Y-50305047D01*
X25479300Y-50496427D01*
X13215100Y-50496427D01*
X13215100Y-48221475D01*
X18479300Y-48221475D01*
X18479300Y-48503573D01*
X18558572Y-48694953D01*
X18705047Y-48841428D01*
X18896426Y-48920700D01*
X19778525Y-48920700D01*
X19908700Y-48790525D01*
X19908700Y-48091300D01*
X20391300Y-48091300D01*
X20391300Y-48790525D01*
X20521475Y-48920700D01*
X21403574Y-48920700D01*
X21594953Y-48841428D01*
X21741428Y-48694953D01*
X21820700Y-48503573D01*
X21820700Y-48221475D01*
X24179300Y-48221475D01*
X24179300Y-48503573D01*
X24258572Y-48694953D01*
X24405047Y-48841428D01*
X24596426Y-48920700D01*
X25478525Y-48920700D01*
X25608700Y-48790525D01*
X25608700Y-48091300D01*
X26091300Y-48091300D01*
X26091300Y-48790525D01*
X26221475Y-48920700D01*
X27103574Y-48920700D01*
X27294953Y-48841428D01*
X27441428Y-48694953D01*
X27520700Y-48503573D01*
X27520700Y-48221475D01*
X32479300Y-48221475D01*
X32479300Y-48503573D01*
X32558572Y-48694953D01*
X32705047Y-48841428D01*
X32896426Y-48920700D01*
X33778525Y-48920700D01*
X33908700Y-48790525D01*
X33908700Y-48091300D01*
X34391300Y-48091300D01*
X34391300Y-48790525D01*
X34521475Y-48920700D01*
X35403574Y-48920700D01*
X35594953Y-48841428D01*
X35741428Y-48694953D01*
X35820700Y-48503573D01*
X35820700Y-48221475D01*
X38179300Y-48221475D01*
X38179300Y-48503573D01*
X38258572Y-48694953D01*
X38405047Y-48841428D01*
X38596426Y-48920700D01*
X39478525Y-48920700D01*
X39608700Y-48790525D01*
X39608700Y-48091300D01*
X40091300Y-48091300D01*
X40091300Y-48790525D01*
X40221475Y-48920700D01*
X41103574Y-48920700D01*
X41294953Y-48841428D01*
X41441428Y-48694953D01*
X41520700Y-48503573D01*
X41520700Y-48221475D01*
X41390525Y-48091300D01*
X40091300Y-48091300D01*
X39608700Y-48091300D01*
X38309475Y-48091300D01*
X38179300Y-48221475D01*
X35820700Y-48221475D01*
X35690525Y-48091300D01*
X34391300Y-48091300D01*
X33908700Y-48091300D01*
X32609475Y-48091300D01*
X32479300Y-48221475D01*
X27520700Y-48221475D01*
X27390525Y-48091300D01*
X26091300Y-48091300D01*
X25608700Y-48091300D01*
X24309475Y-48091300D01*
X24179300Y-48221475D01*
X21820700Y-48221475D01*
X21690525Y-48091300D01*
X20391300Y-48091300D01*
X19908700Y-48091300D01*
X18609475Y-48091300D01*
X18479300Y-48221475D01*
X13215100Y-48221475D01*
X13215100Y-47196427D01*
X18479300Y-47196427D01*
X18479300Y-47478525D01*
X18609475Y-47608700D01*
X19908700Y-47608700D01*
X19908700Y-46909475D01*
X20391300Y-46909475D01*
X20391300Y-47608700D01*
X21690525Y-47608700D01*
X21820700Y-47478525D01*
X21820700Y-47196427D01*
X24179300Y-47196427D01*
X24179300Y-47478525D01*
X24309475Y-47608700D01*
X25608700Y-47608700D01*
X25608700Y-46909475D01*
X26091300Y-46909475D01*
X26091300Y-47608700D01*
X27390525Y-47608700D01*
X27520700Y-47478525D01*
X27520700Y-47196427D01*
X32479300Y-47196427D01*
X32479300Y-47478525D01*
X32609475Y-47608700D01*
X33908700Y-47608700D01*
X33908700Y-46909475D01*
X34391300Y-46909475D01*
X34391300Y-47608700D01*
X35690525Y-47608700D01*
X35820700Y-47478525D01*
X35820700Y-47196427D01*
X38179300Y-47196427D01*
X38179300Y-47478525D01*
X38309475Y-47608700D01*
X39608700Y-47608700D01*
X39608700Y-46909475D01*
X40091300Y-46909475D01*
X40091300Y-47608700D01*
X41390525Y-47608700D01*
X41520700Y-47478525D01*
X41520700Y-47196427D01*
X41441428Y-47005047D01*
X41294953Y-46858572D01*
X41103574Y-46779300D01*
X40221475Y-46779300D01*
X40091300Y-46909475D01*
X39608700Y-46909475D01*
X39478525Y-46779300D01*
X38596426Y-46779300D01*
X38405047Y-46858572D01*
X38258572Y-47005047D01*
X38179300Y-47196427D01*
X35820700Y-47196427D01*
X35741428Y-47005047D01*
X35594953Y-46858572D01*
X35403574Y-46779300D01*
X34521475Y-46779300D01*
X34391300Y-46909475D01*
X33908700Y-46909475D01*
X33778525Y-46779300D01*
X32896426Y-46779300D01*
X32705047Y-46858572D01*
X32558572Y-47005047D01*
X32479300Y-47196427D01*
X27520700Y-47196427D01*
X27441428Y-47005047D01*
X27294953Y-46858572D01*
X27103574Y-46779300D01*
X26221475Y-46779300D01*
X26091300Y-46909475D01*
X25608700Y-46909475D01*
X25478525Y-46779300D01*
X24596426Y-46779300D01*
X24405047Y-46858572D01*
X24258572Y-47005047D01*
X24179300Y-47196427D01*
X21820700Y-47196427D01*
X21741428Y-47005047D01*
X21594953Y-46858572D01*
X21403574Y-46779300D01*
X20521475Y-46779300D01*
X20391300Y-46909475D01*
X19908700Y-46909475D01*
X19778525Y-46779300D01*
X18896426Y-46779300D01*
X18705047Y-46858572D01*
X18558572Y-47005047D01*
X18479300Y-47196427D01*
X13215100Y-47196427D01*
X13215100Y-43600000D01*
X18831666Y-43600000D01*
X18831666Y-44700000D01*
X18844480Y-44764419D01*
X18880970Y-44819030D01*
X18935581Y-44855520D01*
X19000000Y-44868334D01*
X21300000Y-44868334D01*
X21364419Y-44855520D01*
X21419030Y-44819030D01*
X21455520Y-44764419D01*
X21468334Y-44700000D01*
X21468334Y-43600000D01*
X24531666Y-43600000D01*
X24531666Y-44700000D01*
X24544480Y-44764419D01*
X24580970Y-44819030D01*
X24635581Y-44855520D01*
X24700000Y-44868334D01*
X27000000Y-44868334D01*
X27064419Y-44855520D01*
X27119030Y-44819030D01*
X27155520Y-44764419D01*
X27168334Y-44700000D01*
X27168334Y-44391300D01*
X27343309Y-44391300D01*
X27354079Y-44417364D01*
X27464057Y-44527535D01*
X27607824Y-44587232D01*
X27763493Y-44587368D01*
X27907364Y-44527921D01*
X28017535Y-44417943D01*
X28077232Y-44274176D01*
X28077368Y-44118507D01*
X28017921Y-43974636D01*
X27907943Y-43864465D01*
X27764176Y-43804768D01*
X27608507Y-43804632D01*
X27464636Y-43864079D01*
X27419937Y-43908700D01*
X27168334Y-43908700D01*
X27168334Y-43600000D01*
X32831666Y-43600000D01*
X32831666Y-44700000D01*
X32844480Y-44764419D01*
X32880970Y-44819030D01*
X32935581Y-44855520D01*
X33000000Y-44868334D01*
X35300000Y-44868334D01*
X35364419Y-44855520D01*
X35419030Y-44819030D01*
X35455520Y-44764419D01*
X35468334Y-44700000D01*
X35468334Y-43600000D01*
X38531666Y-43600000D01*
X38531666Y-44700000D01*
X38544480Y-44764419D01*
X38580970Y-44819030D01*
X38635581Y-44855520D01*
X38700000Y-44868334D01*
X41000000Y-44868334D01*
X41064419Y-44855520D01*
X41119030Y-44819030D01*
X41155520Y-44764419D01*
X41168334Y-44700000D01*
X41168334Y-43600000D01*
X41155520Y-43535581D01*
X41119030Y-43480970D01*
X41064419Y-43444480D01*
X41000000Y-43431666D01*
X40091300Y-43431666D01*
X40091300Y-42385663D01*
X40221364Y-42331921D01*
X40331535Y-42221943D01*
X40391232Y-42078176D01*
X40391368Y-41922507D01*
X40331921Y-41778636D01*
X40221943Y-41668465D01*
X40078176Y-41608768D01*
X39922507Y-41608632D01*
X39778636Y-41668079D01*
X39668465Y-41778057D01*
X39608768Y-41921824D01*
X39608632Y-42077493D01*
X39618414Y-42101166D01*
X39608700Y-42150000D01*
X39608700Y-43431666D01*
X38700000Y-43431666D01*
X38635581Y-43444480D01*
X38580970Y-43480970D01*
X38544480Y-43535581D01*
X38531666Y-43600000D01*
X35468334Y-43600000D01*
X35455520Y-43535581D01*
X35419030Y-43480970D01*
X35364419Y-43444480D01*
X35300000Y-43431666D01*
X33000000Y-43431666D01*
X32935581Y-43444480D01*
X32880970Y-43480970D01*
X32844480Y-43535581D01*
X32831666Y-43600000D01*
X27168334Y-43600000D01*
X27155520Y-43535581D01*
X27119030Y-43480970D01*
X27064419Y-43444480D01*
X27000000Y-43431666D01*
X24700000Y-43431666D01*
X24635581Y-43444480D01*
X24580970Y-43480970D01*
X24544480Y-43535581D01*
X24531666Y-43600000D01*
X21468334Y-43600000D01*
X21455520Y-43535581D01*
X21419030Y-43480970D01*
X21364419Y-43444480D01*
X21300000Y-43431666D01*
X19000000Y-43431666D01*
X18935581Y-43444480D01*
X18880970Y-43480970D01*
X18844480Y-43535581D01*
X18831666Y-43600000D01*
X13215100Y-43600000D01*
X13215100Y-43089098D01*
X15082722Y-41221475D01*
X25479300Y-41221475D01*
X25479300Y-41503573D01*
X25558572Y-41694953D01*
X25705047Y-41841428D01*
X25896426Y-41920700D01*
X26778525Y-41920700D01*
X26908700Y-41790525D01*
X26908700Y-41091300D01*
X27391300Y-41091300D01*
X27391300Y-41790525D01*
X27521475Y-41920700D01*
X28403574Y-41920700D01*
X28594953Y-41841428D01*
X28741428Y-41694953D01*
X28820700Y-41503573D01*
X28820700Y-41221475D01*
X31179300Y-41221475D01*
X31179300Y-41503573D01*
X31258572Y-41694953D01*
X31405047Y-41841428D01*
X31596426Y-41920700D01*
X32478525Y-41920700D01*
X32608700Y-41790525D01*
X32608700Y-41091300D01*
X33091300Y-41091300D01*
X33091300Y-41790525D01*
X33221475Y-41920700D01*
X34103574Y-41920700D01*
X34294953Y-41841428D01*
X34441428Y-41694953D01*
X34520700Y-41503573D01*
X34520700Y-41221475D01*
X34390525Y-41091300D01*
X33091300Y-41091300D01*
X32608700Y-41091300D01*
X31309475Y-41091300D01*
X31179300Y-41221475D01*
X28820700Y-41221475D01*
X28690525Y-41091300D01*
X27391300Y-41091300D01*
X26908700Y-41091300D01*
X25609475Y-41091300D01*
X25479300Y-41221475D01*
X15082722Y-41221475D01*
X16107770Y-40196427D01*
X25479300Y-40196427D01*
X25479300Y-40478525D01*
X25609475Y-40608700D01*
X26908700Y-40608700D01*
X26908700Y-39909475D01*
X27391300Y-39909475D01*
X27391300Y-40608700D01*
X28690525Y-40608700D01*
X28820700Y-40478525D01*
X28820700Y-40196427D01*
X31179300Y-40196427D01*
X31179300Y-40478525D01*
X31309475Y-40608700D01*
X32608700Y-40608700D01*
X32608700Y-39909475D01*
X33091300Y-39909475D01*
X33091300Y-40608700D01*
X34390525Y-40608700D01*
X34520700Y-40478525D01*
X34520700Y-40196427D01*
X34441428Y-40005047D01*
X34294953Y-39858572D01*
X34103574Y-39779300D01*
X33221475Y-39779300D01*
X33091300Y-39909475D01*
X32608700Y-39909475D01*
X32478525Y-39779300D01*
X31596426Y-39779300D01*
X31405047Y-39858572D01*
X31258572Y-40005047D01*
X31179300Y-40196427D01*
X28820700Y-40196427D01*
X28741428Y-40005047D01*
X28594953Y-39858572D01*
X28403574Y-39779300D01*
X27521475Y-39779300D01*
X27391300Y-39909475D01*
X26908700Y-39909475D01*
X26778525Y-39779300D01*
X25896426Y-39779300D01*
X25705047Y-39858572D01*
X25558572Y-40005047D01*
X25479300Y-40196427D01*
X16107770Y-40196427D01*
X19704197Y-36600000D01*
X25831666Y-36600000D01*
X25831666Y-37700000D01*
X25844480Y-37764419D01*
X25880970Y-37819030D01*
X25935581Y-37855520D01*
X26000000Y-37868334D01*
X28300000Y-37868334D01*
X28364419Y-37855520D01*
X28419030Y-37819030D01*
X28455520Y-37764419D01*
X28468334Y-37700000D01*
X28468334Y-36600000D01*
X31531666Y-36600000D01*
X31531666Y-37700000D01*
X31544480Y-37764419D01*
X31580970Y-37819030D01*
X31635581Y-37855520D01*
X31700000Y-37868334D01*
X34000000Y-37868334D01*
X34064419Y-37855520D01*
X34119030Y-37819030D01*
X34155520Y-37764419D01*
X34168334Y-37700000D01*
X34168334Y-37391300D01*
X34322111Y-37391300D01*
X34339079Y-37432364D01*
X34449057Y-37542535D01*
X34592824Y-37602232D01*
X34748493Y-37602368D01*
X34892364Y-37542921D01*
X35002535Y-37432943D01*
X35062232Y-37289176D01*
X35062368Y-37133507D01*
X35002921Y-36989636D01*
X34892943Y-36879465D01*
X34749176Y-36819768D01*
X34593507Y-36819632D01*
X34449636Y-36879079D01*
X34419963Y-36908700D01*
X34168334Y-36908700D01*
X34168334Y-36600000D01*
X34155520Y-36535581D01*
X34119030Y-36480970D01*
X34064419Y-36444480D01*
X34000000Y-36431666D01*
X31700000Y-36431666D01*
X31635581Y-36444480D01*
X31580970Y-36480970D01*
X31544480Y-36535581D01*
X31531666Y-36600000D01*
X28468334Y-36600000D01*
X28455520Y-36535581D01*
X28419030Y-36480970D01*
X28364419Y-36444480D01*
X28300000Y-36431666D01*
X26000000Y-36431666D01*
X25935581Y-36444480D01*
X25880970Y-36480970D01*
X25844480Y-36535581D01*
X25831666Y-36600000D01*
X19704197Y-36600000D01*
X20236197Y-36068000D01*
X42633899Y-36068000D01*
X42633900Y-36068005D01*
X42633900Y-48513995D01*
X42633899Y-48514000D01*
X42685137Y-48771584D01*
X42831046Y-48989954D01*
X43847046Y-50005954D01*
X44065416Y-50151863D01*
X44323000Y-50203101D01*
X44323005Y-50203100D01*
X93852995Y-50203100D01*
X93853000Y-50203101D01*
X94110584Y-50151863D01*
X94328954Y-50005954D01*
X95217951Y-49116956D01*
X95217954Y-49116954D01*
X95363863Y-48898584D01*
X95375232Y-48841428D01*
X95415101Y-48641000D01*
X95415100Y-48640995D01*
X95415100Y-48221475D01*
X95479300Y-48221475D01*
X95479300Y-48503573D01*
X95558572Y-48694953D01*
X95705047Y-48841428D01*
X95896426Y-48920700D01*
X96778525Y-48920700D01*
X96908700Y-48790525D01*
X96908700Y-48091300D01*
X97391300Y-48091300D01*
X97391300Y-48790525D01*
X97521475Y-48920700D01*
X98403574Y-48920700D01*
X98594953Y-48841428D01*
X98741428Y-48694953D01*
X98820700Y-48503573D01*
X98820700Y-48221475D01*
X101179300Y-48221475D01*
X101179300Y-48503573D01*
X101258572Y-48694953D01*
X101405047Y-48841428D01*
X101596426Y-48920700D01*
X102478525Y-48920700D01*
X102608700Y-48790525D01*
X102608700Y-48091300D01*
X103091300Y-48091300D01*
X103091300Y-48790525D01*
X103221475Y-48920700D01*
X104103574Y-48920700D01*
X104294953Y-48841428D01*
X104441428Y-48694953D01*
X104520700Y-48503573D01*
X104520700Y-48221475D01*
X115479300Y-48221475D01*
X115479300Y-48503573D01*
X115558572Y-48694953D01*
X115705047Y-48841428D01*
X115896426Y-48920700D01*
X116778525Y-48920700D01*
X116908700Y-48790525D01*
X116908700Y-48091300D01*
X117391300Y-48091300D01*
X117391300Y-48790525D01*
X117521475Y-48920700D01*
X118403574Y-48920700D01*
X118594953Y-48841428D01*
X118741428Y-48694953D01*
X118820700Y-48503573D01*
X118820700Y-48221475D01*
X121179300Y-48221475D01*
X121179300Y-48503573D01*
X121258572Y-48694953D01*
X121405047Y-48841428D01*
X121596426Y-48920700D01*
X122478525Y-48920700D01*
X122608700Y-48790525D01*
X122608700Y-48091300D01*
X123091300Y-48091300D01*
X123091300Y-48790525D01*
X123221475Y-48920700D01*
X124103574Y-48920700D01*
X124294953Y-48841428D01*
X124441428Y-48694953D01*
X124520700Y-48503573D01*
X124520700Y-48221475D01*
X124390525Y-48091300D01*
X123091300Y-48091300D01*
X122608700Y-48091300D01*
X121309475Y-48091300D01*
X121179300Y-48221475D01*
X118820700Y-48221475D01*
X118690525Y-48091300D01*
X117391300Y-48091300D01*
X116908700Y-48091300D01*
X115609475Y-48091300D01*
X115479300Y-48221475D01*
X104520700Y-48221475D01*
X104390525Y-48091300D01*
X103091300Y-48091300D01*
X102608700Y-48091300D01*
X101309475Y-48091300D01*
X101179300Y-48221475D01*
X98820700Y-48221475D01*
X98690525Y-48091300D01*
X97391300Y-48091300D01*
X96908700Y-48091300D01*
X95609475Y-48091300D01*
X95479300Y-48221475D01*
X95415100Y-48221475D01*
X95415100Y-47196427D01*
X95479300Y-47196427D01*
X95479300Y-47478525D01*
X95609475Y-47608700D01*
X96908700Y-47608700D01*
X96908700Y-46909475D01*
X97391300Y-46909475D01*
X97391300Y-47608700D01*
X98690525Y-47608700D01*
X98820700Y-47478525D01*
X98820700Y-47196427D01*
X101179300Y-47196427D01*
X101179300Y-47478525D01*
X101309475Y-47608700D01*
X102608700Y-47608700D01*
X102608700Y-46909475D01*
X103091300Y-46909475D01*
X103091300Y-47608700D01*
X104390525Y-47608700D01*
X104520700Y-47478525D01*
X104520700Y-47196427D01*
X115479300Y-47196427D01*
X115479300Y-47478525D01*
X115609475Y-47608700D01*
X116908700Y-47608700D01*
X116908700Y-46909475D01*
X117391300Y-46909475D01*
X117391300Y-47608700D01*
X118690525Y-47608700D01*
X118820700Y-47478525D01*
X118820700Y-47196427D01*
X121179300Y-47196427D01*
X121179300Y-47478525D01*
X121309475Y-47608700D01*
X122608700Y-47608700D01*
X122608700Y-46909475D01*
X123091300Y-46909475D01*
X123091300Y-47608700D01*
X124390525Y-47608700D01*
X124520700Y-47478525D01*
X124520700Y-47196427D01*
X124441428Y-47005047D01*
X124294953Y-46858572D01*
X124103574Y-46779300D01*
X123221475Y-46779300D01*
X123091300Y-46909475D01*
X122608700Y-46909475D01*
X122478525Y-46779300D01*
X121596426Y-46779300D01*
X121405047Y-46858572D01*
X121258572Y-47005047D01*
X121179300Y-47196427D01*
X118820700Y-47196427D01*
X118741428Y-47005047D01*
X118594953Y-46858572D01*
X118403574Y-46779300D01*
X117521475Y-46779300D01*
X117391300Y-46909475D01*
X116908700Y-46909475D01*
X116778525Y-46779300D01*
X115896426Y-46779300D01*
X115705047Y-46858572D01*
X115558572Y-47005047D01*
X115479300Y-47196427D01*
X104520700Y-47196427D01*
X104441428Y-47005047D01*
X104294953Y-46858572D01*
X104103574Y-46779300D01*
X103221475Y-46779300D01*
X103091300Y-46909475D01*
X102608700Y-46909475D01*
X102478525Y-46779300D01*
X101596426Y-46779300D01*
X101405047Y-46858572D01*
X101258572Y-47005047D01*
X101179300Y-47196427D01*
X98820700Y-47196427D01*
X98741428Y-47005047D01*
X98594953Y-46858572D01*
X98403574Y-46779300D01*
X97521475Y-46779300D01*
X97391300Y-46909475D01*
X96908700Y-46909475D01*
X96778525Y-46779300D01*
X95896426Y-46779300D01*
X95705047Y-46858572D01*
X95558572Y-47005047D01*
X95479300Y-47196427D01*
X95415100Y-47196427D01*
X95415100Y-46101005D01*
X95415101Y-46101000D01*
X95363863Y-45843416D01*
X95217954Y-45625046D01*
X95217951Y-45625044D01*
X93815601Y-44222693D01*
X94909432Y-44222693D01*
X94968879Y-44366564D01*
X95078857Y-44476735D01*
X95222624Y-44536432D01*
X95378293Y-44536568D01*
X95522164Y-44477121D01*
X95608136Y-44391300D01*
X95831666Y-44391300D01*
X95831666Y-44700000D01*
X95844480Y-44764419D01*
X95880970Y-44819030D01*
X95935581Y-44855520D01*
X96000000Y-44868334D01*
X98300000Y-44868334D01*
X98364419Y-44855520D01*
X98419030Y-44819030D01*
X98455520Y-44764419D01*
X98468334Y-44700000D01*
X98468334Y-43600000D01*
X101531666Y-43600000D01*
X101531666Y-44700000D01*
X101544480Y-44764419D01*
X101580970Y-44819030D01*
X101635581Y-44855520D01*
X101700000Y-44868334D01*
X104000000Y-44868334D01*
X104064419Y-44855520D01*
X104119030Y-44819030D01*
X104155520Y-44764419D01*
X104168334Y-44700000D01*
X104168334Y-44222693D01*
X115077032Y-44222693D01*
X115136479Y-44366564D01*
X115246457Y-44476735D01*
X115390224Y-44536432D01*
X115545893Y-44536568D01*
X115689764Y-44477121D01*
X115775736Y-44391300D01*
X115831666Y-44391300D01*
X115831666Y-44700000D01*
X115844480Y-44764419D01*
X115880970Y-44819030D01*
X115935581Y-44855520D01*
X116000000Y-44868334D01*
X118300000Y-44868334D01*
X118364419Y-44855520D01*
X118419030Y-44819030D01*
X118455520Y-44764419D01*
X118468334Y-44700000D01*
X118468334Y-43600000D01*
X121531666Y-43600000D01*
X121531666Y-44700000D01*
X121544480Y-44764419D01*
X121580970Y-44819030D01*
X121635581Y-44855520D01*
X121700000Y-44868334D01*
X124000000Y-44868334D01*
X124064419Y-44855520D01*
X124119030Y-44819030D01*
X124155520Y-44764419D01*
X124168334Y-44700000D01*
X124168334Y-43600000D01*
X124155520Y-43535581D01*
X124119030Y-43480970D01*
X124064419Y-43444480D01*
X124000000Y-43431666D01*
X121700000Y-43431666D01*
X121635581Y-43444480D01*
X121580970Y-43480970D01*
X121544480Y-43535581D01*
X121531666Y-43600000D01*
X118468334Y-43600000D01*
X118455520Y-43535581D01*
X118419030Y-43480970D01*
X118364419Y-43444480D01*
X118300000Y-43431666D01*
X116000000Y-43431666D01*
X115935581Y-43444480D01*
X115880970Y-43480970D01*
X115844480Y-43535581D01*
X115831666Y-43600000D01*
X115831666Y-43908700D01*
X115785212Y-43908700D01*
X115690343Y-43813665D01*
X115546576Y-43753968D01*
X115390907Y-43753832D01*
X115247036Y-43813279D01*
X115136865Y-43923257D01*
X115077168Y-44067024D01*
X115077032Y-44222693D01*
X104168334Y-44222693D01*
X104168334Y-43600000D01*
X104155520Y-43535581D01*
X104119030Y-43480970D01*
X104064419Y-43444480D01*
X104000000Y-43431666D01*
X101700000Y-43431666D01*
X101635581Y-43444480D01*
X101580970Y-43480970D01*
X101544480Y-43535581D01*
X101531666Y-43600000D01*
X98468334Y-43600000D01*
X98455520Y-43535581D01*
X98419030Y-43480970D01*
X98364419Y-43444480D01*
X98300000Y-43431666D01*
X96000000Y-43431666D01*
X95935581Y-43444480D01*
X95880970Y-43480970D01*
X95844480Y-43535581D01*
X95831666Y-43600000D01*
X95831666Y-43908700D01*
X95617612Y-43908700D01*
X95522743Y-43813665D01*
X95378976Y-43753968D01*
X95223307Y-43753832D01*
X95079436Y-43813279D01*
X94969265Y-43923257D01*
X94909568Y-44067024D01*
X94909432Y-44222693D01*
X93815601Y-44222693D01*
X91963500Y-42370592D01*
X91963500Y-40388441D01*
X92011500Y-40316604D01*
X92011500Y-41021000D01*
X92028084Y-41104375D01*
X92035668Y-41142502D01*
X92104494Y-41245506D01*
X92488494Y-41629506D01*
X92591498Y-41698332D01*
X92713000Y-41722500D01*
X92842666Y-41722500D01*
X92842666Y-42105000D01*
X92855480Y-42169419D01*
X92891970Y-42224030D01*
X92946581Y-42260520D01*
X93011000Y-42273334D01*
X95711000Y-42273334D01*
X95775419Y-42260520D01*
X95830030Y-42224030D01*
X95866520Y-42169419D01*
X95879334Y-42105000D01*
X95879334Y-40705000D01*
X95866520Y-40640581D01*
X95830030Y-40585970D01*
X95775419Y-40549480D01*
X95711000Y-40536666D01*
X93011000Y-40536666D01*
X92946581Y-40549480D01*
X92891970Y-40585970D01*
X92855480Y-40640581D01*
X92842666Y-40705000D01*
X92842666Y-41085654D01*
X92646500Y-40889488D01*
X92646500Y-39116000D01*
X92622332Y-38994498D01*
X92590244Y-38946475D01*
X92553507Y-38891494D01*
X92301106Y-38639094D01*
X92198102Y-38570268D01*
X92186549Y-38567970D01*
X92076600Y-38546100D01*
X91908299Y-38546100D01*
X91894680Y-38537000D01*
X91941030Y-38506030D01*
X91977520Y-38451419D01*
X91990334Y-38387000D01*
X91990334Y-38037000D01*
X91977520Y-37972581D01*
X91941030Y-37917970D01*
X91886419Y-37881480D01*
X91822000Y-37868666D01*
X91707900Y-37868666D01*
X91707900Y-37234795D01*
X91734419Y-37229520D01*
X91789030Y-37193030D01*
X91825520Y-37138419D01*
X91828766Y-37122100D01*
X91926192Y-37122100D01*
X92808045Y-38003952D01*
X92808046Y-38003954D01*
X92808048Y-38003955D01*
X92842666Y-38038573D01*
X92842666Y-39305000D01*
X92855480Y-39369419D01*
X92891970Y-39424030D01*
X92946581Y-39460520D01*
X93011000Y-39473334D01*
X95711000Y-39473334D01*
X95775419Y-39460520D01*
X95830030Y-39424030D01*
X95866520Y-39369419D01*
X95879334Y-39305000D01*
X95879334Y-37923493D01*
X105018632Y-37923493D01*
X105078079Y-38067364D01*
X105188057Y-38177535D01*
X105331824Y-38237232D01*
X105487493Y-38237368D01*
X105631364Y-38177921D01*
X105718137Y-38091300D01*
X105831666Y-38091300D01*
X105831666Y-38400000D01*
X105844480Y-38464419D01*
X105880970Y-38519030D01*
X105935581Y-38555520D01*
X106000000Y-38568334D01*
X108300000Y-38568334D01*
X108364419Y-38555520D01*
X108419030Y-38519030D01*
X108455520Y-38464419D01*
X108468334Y-38400000D01*
X108468334Y-37300000D01*
X111531666Y-37300000D01*
X111531666Y-38400000D01*
X111544480Y-38464419D01*
X111580970Y-38519030D01*
X111635581Y-38555520D01*
X111700000Y-38568334D01*
X114000000Y-38568334D01*
X114064419Y-38555520D01*
X114119030Y-38519030D01*
X114155520Y-38464419D01*
X114168334Y-38400000D01*
X114168334Y-37300000D01*
X114155520Y-37235581D01*
X114119030Y-37180970D01*
X114064419Y-37144480D01*
X114000000Y-37131666D01*
X111700000Y-37131666D01*
X111635581Y-37144480D01*
X111580970Y-37180970D01*
X111544480Y-37235581D01*
X111531666Y-37300000D01*
X108468334Y-37300000D01*
X108455520Y-37235581D01*
X108419030Y-37180970D01*
X108364419Y-37144480D01*
X108300000Y-37131666D01*
X106000000Y-37131666D01*
X105935581Y-37144480D01*
X105880970Y-37180970D01*
X105844480Y-37235581D01*
X105831666Y-37300000D01*
X105831666Y-37608700D01*
X105726013Y-37608700D01*
X105631943Y-37514465D01*
X105488176Y-37454768D01*
X105332507Y-37454632D01*
X105188636Y-37514079D01*
X105078465Y-37624057D01*
X105018768Y-37767824D01*
X105018632Y-37923493D01*
X95879334Y-37923493D01*
X95879334Y-37905000D01*
X95866520Y-37840581D01*
X95830030Y-37785970D01*
X95775419Y-37749480D01*
X95773516Y-37749101D01*
X95878953Y-37705428D01*
X96025428Y-37558953D01*
X96104700Y-37367573D01*
X96104700Y-37169175D01*
X95974525Y-37039000D01*
X95384000Y-37039000D01*
X95384000Y-37075300D01*
X94984000Y-37075300D01*
X94984000Y-37039000D01*
X94393475Y-37039000D01*
X94263300Y-37169175D01*
X94263300Y-37367573D01*
X94342572Y-37558953D01*
X94489047Y-37705428D01*
X94564462Y-37736666D01*
X94444573Y-37736666D01*
X93957100Y-37249193D01*
X93957100Y-36814005D01*
X93957101Y-36814000D01*
X93905863Y-36556416D01*
X93852334Y-36476304D01*
X93852334Y-36364000D01*
X93839520Y-36299581D01*
X93813359Y-36260427D01*
X94263300Y-36260427D01*
X94263300Y-36458825D01*
X94393475Y-36589000D01*
X94984000Y-36589000D01*
X94984000Y-35973475D01*
X95384000Y-35973475D01*
X95384000Y-36589000D01*
X95974525Y-36589000D01*
X96104700Y-36458825D01*
X96104700Y-36260427D01*
X96025428Y-36069047D01*
X95878953Y-35922572D01*
X95687574Y-35843300D01*
X95514175Y-35843300D01*
X95384000Y-35973475D01*
X94984000Y-35973475D01*
X94853825Y-35843300D01*
X94680426Y-35843300D01*
X94489047Y-35922572D01*
X94342572Y-36069047D01*
X94263300Y-36260427D01*
X93813359Y-36260427D01*
X93803030Y-36244970D01*
X93748419Y-36208480D01*
X93684000Y-36195666D01*
X93617574Y-36195666D01*
X93423100Y-36001192D01*
X93423100Y-35266005D01*
X93423101Y-35266000D01*
X93423100Y-35265995D01*
X93423100Y-34814000D01*
X93560899Y-34814000D01*
X93612137Y-35071584D01*
X93665666Y-35151696D01*
X93665666Y-35264000D01*
X93678480Y-35328419D01*
X93714970Y-35383030D01*
X93769581Y-35419520D01*
X93834000Y-35432334D01*
X93971134Y-35432334D01*
X93976416Y-35435863D01*
X94234000Y-35487101D01*
X94491584Y-35435863D01*
X94496866Y-35432334D01*
X94634000Y-35432334D01*
X94698419Y-35419520D01*
X94753030Y-35383030D01*
X94789520Y-35328419D01*
X94802334Y-35264000D01*
X94802334Y-35159642D01*
X94871863Y-35055584D01*
X94923100Y-34798000D01*
X94923100Y-34521475D01*
X105479300Y-34521475D01*
X105479300Y-34803573D01*
X105558572Y-34994953D01*
X105705047Y-35141428D01*
X105896426Y-35220700D01*
X106778525Y-35220700D01*
X106908700Y-35090525D01*
X106908700Y-34391300D01*
X107391300Y-34391300D01*
X107391300Y-35090525D01*
X107521475Y-35220700D01*
X108403574Y-35220700D01*
X108594953Y-35141428D01*
X108741428Y-34994953D01*
X108820700Y-34803573D01*
X108820700Y-34521475D01*
X111179300Y-34521475D01*
X111179300Y-34803573D01*
X111258572Y-34994953D01*
X111405047Y-35141428D01*
X111596426Y-35220700D01*
X112478525Y-35220700D01*
X112608700Y-35090525D01*
X112608700Y-34391300D01*
X113091300Y-34391300D01*
X113091300Y-35090525D01*
X113221475Y-35220700D01*
X114103574Y-35220700D01*
X114294953Y-35141428D01*
X114441428Y-34994953D01*
X114520700Y-34803573D01*
X114520700Y-34521475D01*
X114390525Y-34391300D01*
X113091300Y-34391300D01*
X112608700Y-34391300D01*
X111309475Y-34391300D01*
X111179300Y-34521475D01*
X108820700Y-34521475D01*
X108690525Y-34391300D01*
X107391300Y-34391300D01*
X106908700Y-34391300D01*
X105609475Y-34391300D01*
X105479300Y-34521475D01*
X94923100Y-34521475D01*
X94923100Y-33000000D01*
X94918334Y-32976040D01*
X94918334Y-32250000D01*
X98831666Y-32250000D01*
X98831666Y-33750000D01*
X98844480Y-33814419D01*
X98880970Y-33869030D01*
X98935581Y-33905520D01*
X99000000Y-33918334D01*
X100000000Y-33918334D01*
X100064419Y-33905520D01*
X100119030Y-33869030D01*
X100155520Y-33814419D01*
X100168334Y-33750000D01*
X100168334Y-32250000D01*
X100331666Y-32250000D01*
X100331666Y-33750000D01*
X100344480Y-33814419D01*
X100380970Y-33869030D01*
X100435581Y-33905520D01*
X100500000Y-33918334D01*
X101500000Y-33918334D01*
X101505659Y-33917208D01*
X101558572Y-34044953D01*
X101705047Y-34191428D01*
X101896426Y-34270700D01*
X102128525Y-34270700D01*
X102258700Y-34140525D01*
X102258700Y-33241300D01*
X102741300Y-33241300D01*
X102741300Y-34140525D01*
X102871475Y-34270700D01*
X103103574Y-34270700D01*
X103294953Y-34191428D01*
X103441428Y-34044953D01*
X103520700Y-33853573D01*
X103520700Y-33496427D01*
X105479300Y-33496427D01*
X105479300Y-33778525D01*
X105609475Y-33908700D01*
X106908700Y-33908700D01*
X106908700Y-33209475D01*
X107391300Y-33209475D01*
X107391300Y-33908700D01*
X108690525Y-33908700D01*
X108820700Y-33778525D01*
X108820700Y-33496427D01*
X111179300Y-33496427D01*
X111179300Y-33778525D01*
X111309475Y-33908700D01*
X112608700Y-33908700D01*
X112608700Y-33209475D01*
X113091300Y-33209475D01*
X113091300Y-33908700D01*
X114390525Y-33908700D01*
X114520700Y-33778525D01*
X114520700Y-33496427D01*
X114441428Y-33305047D01*
X114294953Y-33158572D01*
X114103574Y-33079300D01*
X113221475Y-33079300D01*
X113091300Y-33209475D01*
X112608700Y-33209475D01*
X112478525Y-33079300D01*
X111596426Y-33079300D01*
X111405047Y-33158572D01*
X111258572Y-33305047D01*
X111179300Y-33496427D01*
X108820700Y-33496427D01*
X108741428Y-33305047D01*
X108594953Y-33158572D01*
X108403574Y-33079300D01*
X107521475Y-33079300D01*
X107391300Y-33209475D01*
X106908700Y-33209475D01*
X106778525Y-33079300D01*
X105896426Y-33079300D01*
X105705047Y-33158572D01*
X105558572Y-33305047D01*
X105479300Y-33496427D01*
X103520700Y-33496427D01*
X103520700Y-33371475D01*
X103390525Y-33241300D01*
X102741300Y-33241300D01*
X102258700Y-33241300D01*
X102238700Y-33241300D01*
X102238700Y-32758700D01*
X102258700Y-32758700D01*
X102258700Y-31859475D01*
X102741300Y-31859475D01*
X102741300Y-32758700D01*
X103390525Y-32758700D01*
X103520700Y-32628525D01*
X103520700Y-32146427D01*
X103441428Y-31955047D01*
X103294953Y-31808572D01*
X103103574Y-31729300D01*
X102871475Y-31729300D01*
X102741300Y-31859475D01*
X102258700Y-31859475D01*
X102128525Y-31729300D01*
X101896426Y-31729300D01*
X101705047Y-31808572D01*
X101558572Y-31955047D01*
X101505659Y-32082792D01*
X101500000Y-32081666D01*
X100500000Y-32081666D01*
X100435581Y-32094480D01*
X100380970Y-32130970D01*
X100344480Y-32185581D01*
X100331666Y-32250000D01*
X100168334Y-32250000D01*
X100155520Y-32185581D01*
X100119030Y-32130970D01*
X100064419Y-32094480D01*
X100000000Y-32081666D01*
X99000000Y-32081666D01*
X98935581Y-32094480D01*
X98880970Y-32130970D01*
X98844480Y-32185581D01*
X98831666Y-32250000D01*
X94918334Y-32250000D01*
X94905520Y-32185581D01*
X94869030Y-32130970D01*
X94814419Y-32094480D01*
X94750000Y-32081666D01*
X93750000Y-32081666D01*
X93685581Y-32094480D01*
X93630970Y-32130970D01*
X93594480Y-32185581D01*
X93581666Y-32250000D01*
X93581666Y-32976040D01*
X93576900Y-33000000D01*
X93576900Y-34733560D01*
X93560899Y-34814000D01*
X93423100Y-34814000D01*
X93423100Y-33000000D01*
X93418334Y-32976040D01*
X93418334Y-32250000D01*
X93405520Y-32185581D01*
X93369030Y-32130970D01*
X93314419Y-32094480D01*
X93250000Y-32081666D01*
X92250000Y-32081666D01*
X92185581Y-32094480D01*
X92130970Y-32130970D01*
X92094480Y-32185581D01*
X92081666Y-32250000D01*
X92081666Y-32976040D01*
X92076900Y-33000000D01*
X92076900Y-33844193D01*
X90694046Y-35227046D01*
X90548137Y-35445416D01*
X90496899Y-35703000D01*
X90496900Y-35703005D01*
X90496900Y-36449000D01*
X90501666Y-36472960D01*
X90501666Y-37074000D01*
X90514480Y-37138419D01*
X90550970Y-37193030D01*
X90605581Y-37229520D01*
X90670000Y-37242334D01*
X91072900Y-37242334D01*
X91072900Y-37868666D01*
X90972000Y-37868666D01*
X90907581Y-37881480D01*
X90885701Y-37896100D01*
X89708299Y-37896100D01*
X89686419Y-37881480D01*
X89622000Y-37868666D01*
X88772000Y-37868666D01*
X88707581Y-37881480D01*
X88652970Y-37917970D01*
X88616480Y-37972581D01*
X88603666Y-38037000D01*
X88603666Y-38387000D01*
X88616480Y-38451419D01*
X88652970Y-38506030D01*
X88699320Y-38537000D01*
X88652970Y-38567970D01*
X88616480Y-38622581D01*
X88603666Y-38687000D01*
X88603666Y-38843125D01*
X88477047Y-38895572D01*
X88330572Y-39042047D01*
X88251300Y-39233426D01*
X88251300Y-39294325D01*
X88381475Y-39424500D01*
X88984500Y-39424500D01*
X88984500Y-39337000D01*
X89409500Y-39337000D01*
X89409500Y-39424500D01*
X89458300Y-39424500D01*
X89458300Y-39599500D01*
X89409500Y-39599500D01*
X89409500Y-40077525D01*
X89531700Y-40199725D01*
X89531700Y-40908300D01*
X90180925Y-40908300D01*
X90311100Y-40778125D01*
X90311100Y-40421027D01*
X90231828Y-40229647D01*
X90085353Y-40083172D01*
X89998277Y-40047104D01*
X90063428Y-39981953D01*
X90142700Y-39790574D01*
X90142700Y-39537713D01*
X90343094Y-39738107D01*
X90343097Y-39738109D01*
X90640907Y-40035919D01*
X90617299Y-40154600D01*
X90617300Y-40154605D01*
X90617300Y-42230300D01*
X90050897Y-42230300D01*
X90085353Y-42216028D01*
X90231828Y-42069553D01*
X90311100Y-41878173D01*
X90311100Y-41521075D01*
X90180925Y-41390900D01*
X89531700Y-41390900D01*
X89531700Y-41410900D01*
X89049100Y-41410900D01*
X89049100Y-41390900D01*
X88399875Y-41390900D01*
X88269700Y-41521075D01*
X88269700Y-41878173D01*
X88348972Y-42069553D01*
X88495447Y-42216028D01*
X88529903Y-42230300D01*
X86129997Y-42230300D01*
X85001100Y-41101404D01*
X85001100Y-39729675D01*
X88251300Y-39729675D01*
X88251300Y-39790574D01*
X88330572Y-39981953D01*
X88463619Y-40115000D01*
X88348972Y-40229647D01*
X88269700Y-40421027D01*
X88269700Y-40778125D01*
X88399875Y-40908300D01*
X89049100Y-40908300D01*
X89049100Y-40134075D01*
X88984500Y-40069475D01*
X88984500Y-39599500D01*
X88381475Y-39599500D01*
X88251300Y-39729675D01*
X85001100Y-39729675D01*
X85001100Y-36820475D01*
X88149300Y-36820475D01*
X88149300Y-37177573D01*
X88228572Y-37368953D01*
X88375047Y-37515428D01*
X88566426Y-37594700D01*
X88798525Y-37594700D01*
X88928700Y-37464525D01*
X88928700Y-36690300D01*
X89411300Y-36690300D01*
X89411300Y-37464525D01*
X89541475Y-37594700D01*
X89773574Y-37594700D01*
X89964953Y-37515428D01*
X90111428Y-37368953D01*
X90190700Y-37177573D01*
X90190700Y-36820475D01*
X90060525Y-36690300D01*
X89411300Y-36690300D01*
X88928700Y-36690300D01*
X88279475Y-36690300D01*
X88149300Y-36820475D01*
X85001100Y-36820475D01*
X85001100Y-36703000D01*
X84969198Y-36542617D01*
X84958452Y-36526535D01*
X84878348Y-36406651D01*
X84370348Y-35898652D01*
X84354201Y-35887863D01*
X84234383Y-35807802D01*
X84074000Y-35775900D01*
X80904774Y-35775900D01*
X80904774Y-35720427D01*
X88149300Y-35720427D01*
X88149300Y-36077525D01*
X88279475Y-36207700D01*
X88928700Y-36207700D01*
X88928700Y-35433475D01*
X89411300Y-35433475D01*
X89411300Y-36207700D01*
X90060525Y-36207700D01*
X90190700Y-36077525D01*
X90190700Y-35720427D01*
X90111428Y-35529047D01*
X89964953Y-35382572D01*
X89773574Y-35303300D01*
X89541475Y-35303300D01*
X89411300Y-35433475D01*
X88928700Y-35433475D01*
X88798525Y-35303300D01*
X88566426Y-35303300D01*
X88375047Y-35382572D01*
X88228572Y-35529047D01*
X88149300Y-35720427D01*
X80904774Y-35720427D01*
X80904774Y-35501580D01*
X80891960Y-35437161D01*
X80855470Y-35382550D01*
X80800859Y-35346060D01*
X80736440Y-35333246D01*
X79537560Y-35333246D01*
X79473141Y-35346060D01*
X79418530Y-35382550D01*
X79382040Y-35437161D01*
X79369226Y-35501580D01*
X79369226Y-36700460D01*
X79382040Y-36764879D01*
X79418530Y-36819490D01*
X79473141Y-36855980D01*
X79537560Y-36868794D01*
X80736440Y-36868794D01*
X80800859Y-36855980D01*
X80855470Y-36819490D01*
X80891960Y-36764879D01*
X80904774Y-36700460D01*
X80904774Y-36614100D01*
X83900404Y-36614100D01*
X84162900Y-36876597D01*
X84162900Y-41275000D01*
X84194802Y-41435383D01*
X84240366Y-41503573D01*
X84285652Y-41571348D01*
X85660051Y-42945748D01*
X85768694Y-43018341D01*
X85796017Y-43036598D01*
X85956400Y-43068500D01*
X90776458Y-43068500D01*
X90814446Y-43125354D01*
X94068900Y-46379807D01*
X94068900Y-47080900D01*
X93668334Y-47080900D01*
X93668334Y-46750000D01*
X93655520Y-46685581D01*
X93619030Y-46630970D01*
X93564419Y-46594480D01*
X93500000Y-46581666D01*
X92500000Y-46581666D01*
X92435581Y-46594480D01*
X92380970Y-46630970D01*
X92344480Y-46685581D01*
X92331666Y-46750000D01*
X92331666Y-48250000D01*
X92344480Y-48314419D01*
X92380970Y-48369030D01*
X92435581Y-48405520D01*
X92500000Y-48418334D01*
X93500000Y-48418334D01*
X93564419Y-48405520D01*
X93619030Y-48369030D01*
X93655520Y-48314419D01*
X93668334Y-48250000D01*
X93668334Y-47919100D01*
X94068900Y-47919100D01*
X94068900Y-48362193D01*
X93574192Y-48856900D01*
X85257600Y-48856900D01*
X85294953Y-48841428D01*
X85441428Y-48694953D01*
X85520700Y-48503573D01*
X85520700Y-48221475D01*
X85390525Y-48091300D01*
X84091300Y-48091300D01*
X84091300Y-48111300D01*
X83608700Y-48111300D01*
X83608700Y-48091300D01*
X82309475Y-48091300D01*
X82179300Y-48221475D01*
X82179300Y-48503573D01*
X82258572Y-48694953D01*
X82405047Y-48841428D01*
X82442400Y-48856900D01*
X79557600Y-48856900D01*
X79594953Y-48841428D01*
X79741428Y-48694953D01*
X79820700Y-48503573D01*
X79820700Y-48221475D01*
X79690525Y-48091300D01*
X78391300Y-48091300D01*
X78391300Y-48111300D01*
X77908700Y-48111300D01*
X77908700Y-48091300D01*
X76609475Y-48091300D01*
X76479300Y-48221475D01*
X76479300Y-48503573D01*
X76558572Y-48694953D01*
X76705047Y-48841428D01*
X76742400Y-48856900D01*
X75984100Y-48856900D01*
X75984100Y-47871475D01*
X85979300Y-47871475D01*
X85979300Y-48353573D01*
X86058572Y-48544953D01*
X86205047Y-48691428D01*
X86396426Y-48770700D01*
X86628525Y-48770700D01*
X86758700Y-48640525D01*
X86758700Y-47741300D01*
X86109475Y-47741300D01*
X85979300Y-47871475D01*
X75984100Y-47871475D01*
X75984100Y-47196427D01*
X76479300Y-47196427D01*
X76479300Y-47478525D01*
X76609475Y-47608700D01*
X77908700Y-47608700D01*
X77908700Y-46909475D01*
X78391300Y-46909475D01*
X78391300Y-47608700D01*
X79690525Y-47608700D01*
X79820700Y-47478525D01*
X79820700Y-47196427D01*
X82179300Y-47196427D01*
X82179300Y-47478525D01*
X82309475Y-47608700D01*
X83608700Y-47608700D01*
X83608700Y-46909475D01*
X84091300Y-46909475D01*
X84091300Y-47608700D01*
X85390525Y-47608700D01*
X85520700Y-47478525D01*
X85520700Y-47196427D01*
X85441428Y-47005047D01*
X85294953Y-46858572D01*
X85103574Y-46779300D01*
X84221475Y-46779300D01*
X84091300Y-46909475D01*
X83608700Y-46909475D01*
X83478525Y-46779300D01*
X82596426Y-46779300D01*
X82405047Y-46858572D01*
X82258572Y-47005047D01*
X82179300Y-47196427D01*
X79820700Y-47196427D01*
X79741428Y-47005047D01*
X79594953Y-46858572D01*
X79403574Y-46779300D01*
X78521475Y-46779300D01*
X78391300Y-46909475D01*
X77908700Y-46909475D01*
X77778525Y-46779300D01*
X76896426Y-46779300D01*
X76705047Y-46858572D01*
X76558572Y-47005047D01*
X76479300Y-47196427D01*
X75984100Y-47196427D01*
X75984100Y-46736000D01*
X75966283Y-46646427D01*
X85979300Y-46646427D01*
X85979300Y-47128525D01*
X86109475Y-47258700D01*
X86758700Y-47258700D01*
X86758700Y-46359475D01*
X87241300Y-46359475D01*
X87241300Y-47258700D01*
X87261300Y-47258700D01*
X87261300Y-47741300D01*
X87241300Y-47741300D01*
X87241300Y-48640525D01*
X87371475Y-48770700D01*
X87603574Y-48770700D01*
X87794953Y-48691428D01*
X87941428Y-48544953D01*
X87994341Y-48417208D01*
X88000000Y-48418334D01*
X89000000Y-48418334D01*
X89064419Y-48405520D01*
X89119030Y-48369030D01*
X89155520Y-48314419D01*
X89168334Y-48250000D01*
X89168334Y-46750000D01*
X89331666Y-46750000D01*
X89331666Y-48250000D01*
X89344480Y-48314419D01*
X89380970Y-48369030D01*
X89435581Y-48405520D01*
X89500000Y-48418334D01*
X90500000Y-48418334D01*
X90564419Y-48405520D01*
X90619030Y-48369030D01*
X90655520Y-48314419D01*
X90668334Y-48250000D01*
X90668334Y-46750000D01*
X90831666Y-46750000D01*
X90831666Y-48250000D01*
X90844480Y-48314419D01*
X90880970Y-48369030D01*
X90935581Y-48405520D01*
X91000000Y-48418334D01*
X92000000Y-48418334D01*
X92064419Y-48405520D01*
X92119030Y-48369030D01*
X92155520Y-48314419D01*
X92168334Y-48250000D01*
X92168334Y-46750000D01*
X92155520Y-46685581D01*
X92119030Y-46630970D01*
X92064419Y-46594480D01*
X92000000Y-46581666D01*
X91000000Y-46581666D01*
X90935581Y-46594480D01*
X90880970Y-46630970D01*
X90844480Y-46685581D01*
X90831666Y-46750000D01*
X90668334Y-46750000D01*
X90655520Y-46685581D01*
X90619030Y-46630970D01*
X90564419Y-46594480D01*
X90500000Y-46581666D01*
X89500000Y-46581666D01*
X89435581Y-46594480D01*
X89380970Y-46630970D01*
X89344480Y-46685581D01*
X89331666Y-46750000D01*
X89168334Y-46750000D01*
X89155520Y-46685581D01*
X89119030Y-46630970D01*
X89064419Y-46594480D01*
X89000000Y-46581666D01*
X88000000Y-46581666D01*
X87994341Y-46582792D01*
X87941428Y-46455047D01*
X87794953Y-46308572D01*
X87603574Y-46229300D01*
X87371475Y-46229300D01*
X87241300Y-46359475D01*
X86758700Y-46359475D01*
X86628525Y-46229300D01*
X86396426Y-46229300D01*
X86205047Y-46308572D01*
X86058572Y-46455047D01*
X85979300Y-46646427D01*
X75966283Y-46646427D01*
X75952198Y-46575617D01*
X75861348Y-46439652D01*
X75725383Y-46348802D01*
X75565000Y-46316900D01*
X75404617Y-46348802D01*
X75268652Y-46439652D01*
X75177802Y-46575617D01*
X75145900Y-46736000D01*
X75145900Y-48856900D01*
X74257600Y-48856900D01*
X74294953Y-48841428D01*
X74441428Y-48694953D01*
X74520700Y-48503573D01*
X74520700Y-48221475D01*
X74390525Y-48091300D01*
X73091300Y-48091300D01*
X73091300Y-48111300D01*
X72608700Y-48111300D01*
X72608700Y-48091300D01*
X71309475Y-48091300D01*
X71179300Y-48221475D01*
X71179300Y-48503573D01*
X71258572Y-48694953D01*
X71405047Y-48841428D01*
X71442400Y-48856900D01*
X68557600Y-48856900D01*
X68594953Y-48841428D01*
X68741428Y-48694953D01*
X68820700Y-48503573D01*
X68820700Y-48221475D01*
X68690525Y-48091300D01*
X67391300Y-48091300D01*
X67391300Y-48111300D01*
X66908700Y-48111300D01*
X66908700Y-48091300D01*
X65609475Y-48091300D01*
X65479300Y-48221475D01*
X65479300Y-48503573D01*
X65558572Y-48694953D01*
X65705047Y-48841428D01*
X65742400Y-48856900D01*
X63257600Y-48856900D01*
X63294953Y-48841428D01*
X63441428Y-48694953D01*
X63520700Y-48503573D01*
X63520700Y-48221475D01*
X63390525Y-48091300D01*
X62091300Y-48091300D01*
X62091300Y-48111300D01*
X61608700Y-48111300D01*
X61608700Y-48091300D01*
X60309475Y-48091300D01*
X60179300Y-48221475D01*
X60179300Y-48503573D01*
X60258572Y-48694953D01*
X60405047Y-48841428D01*
X60442400Y-48856900D01*
X57557600Y-48856900D01*
X57594953Y-48841428D01*
X57741428Y-48694953D01*
X57820700Y-48503573D01*
X57820700Y-48221475D01*
X57690525Y-48091300D01*
X56391300Y-48091300D01*
X56391300Y-48111300D01*
X55908700Y-48111300D01*
X55908700Y-48091300D01*
X54609475Y-48091300D01*
X54479300Y-48221475D01*
X54479300Y-48503573D01*
X54558572Y-48694953D01*
X54705047Y-48841428D01*
X54742400Y-48856900D01*
X54013100Y-48856900D01*
X54013100Y-47196427D01*
X54479300Y-47196427D01*
X54479300Y-47478525D01*
X54609475Y-47608700D01*
X55908700Y-47608700D01*
X55908700Y-46909475D01*
X56391300Y-46909475D01*
X56391300Y-47608700D01*
X57690525Y-47608700D01*
X57820700Y-47478525D01*
X57820700Y-47196427D01*
X60179300Y-47196427D01*
X60179300Y-47478525D01*
X60309475Y-47608700D01*
X61608700Y-47608700D01*
X61608700Y-46909475D01*
X62091300Y-46909475D01*
X62091300Y-47608700D01*
X63390525Y-47608700D01*
X63520700Y-47478525D01*
X63520700Y-47196427D01*
X65479300Y-47196427D01*
X65479300Y-47478525D01*
X65609475Y-47608700D01*
X66908700Y-47608700D01*
X66908700Y-46909475D01*
X67391300Y-46909475D01*
X67391300Y-47608700D01*
X68690525Y-47608700D01*
X68820700Y-47478525D01*
X68820700Y-47196427D01*
X71179300Y-47196427D01*
X71179300Y-47478525D01*
X71309475Y-47608700D01*
X72608700Y-47608700D01*
X72608700Y-46909475D01*
X73091300Y-46909475D01*
X73091300Y-47608700D01*
X74390525Y-47608700D01*
X74520700Y-47478525D01*
X74520700Y-47196427D01*
X74441428Y-47005047D01*
X74294953Y-46858572D01*
X74103574Y-46779300D01*
X73221475Y-46779300D01*
X73091300Y-46909475D01*
X72608700Y-46909475D01*
X72478525Y-46779300D01*
X71596426Y-46779300D01*
X71405047Y-46858572D01*
X71258572Y-47005047D01*
X71179300Y-47196427D01*
X68820700Y-47196427D01*
X68741428Y-47005047D01*
X68594953Y-46858572D01*
X68403574Y-46779300D01*
X67521475Y-46779300D01*
X67391300Y-46909475D01*
X66908700Y-46909475D01*
X66778525Y-46779300D01*
X65896426Y-46779300D01*
X65705047Y-46858572D01*
X65558572Y-47005047D01*
X65479300Y-47196427D01*
X63520700Y-47196427D01*
X63441428Y-47005047D01*
X63294953Y-46858572D01*
X63103574Y-46779300D01*
X62221475Y-46779300D01*
X62091300Y-46909475D01*
X61608700Y-46909475D01*
X61478525Y-46779300D01*
X60596426Y-46779300D01*
X60405047Y-46858572D01*
X60258572Y-47005047D01*
X60179300Y-47196427D01*
X57820700Y-47196427D01*
X57741428Y-47005047D01*
X57594953Y-46858572D01*
X57403574Y-46779300D01*
X56521475Y-46779300D01*
X56391300Y-46909475D01*
X55908700Y-46909475D01*
X55778525Y-46779300D01*
X54896426Y-46779300D01*
X54705047Y-46858572D01*
X54558572Y-47005047D01*
X54479300Y-47196427D01*
X54013100Y-47196427D01*
X54013100Y-43734596D01*
X54147696Y-43600000D01*
X54831666Y-43600000D01*
X54831666Y-44700000D01*
X54844480Y-44764419D01*
X54880970Y-44819030D01*
X54935581Y-44855520D01*
X55000000Y-44868334D01*
X57300000Y-44868334D01*
X57364419Y-44855520D01*
X57419030Y-44819030D01*
X57455520Y-44764419D01*
X57468334Y-44700000D01*
X57468334Y-43600000D01*
X60531666Y-43600000D01*
X60531666Y-44700000D01*
X60544480Y-44764419D01*
X60580970Y-44819030D01*
X60635581Y-44855520D01*
X60700000Y-44868334D01*
X63000000Y-44868334D01*
X63064419Y-44855520D01*
X63119030Y-44819030D01*
X63155520Y-44764419D01*
X63168334Y-44700000D01*
X63168334Y-43600000D01*
X65831666Y-43600000D01*
X65831666Y-44700000D01*
X65844480Y-44764419D01*
X65880970Y-44819030D01*
X65935581Y-44855520D01*
X66000000Y-44868334D01*
X68300000Y-44868334D01*
X68364419Y-44855520D01*
X68419030Y-44819030D01*
X68455520Y-44764419D01*
X68468334Y-44700000D01*
X68468334Y-43600000D01*
X71531666Y-43600000D01*
X71531666Y-44700000D01*
X71544480Y-44764419D01*
X71580970Y-44819030D01*
X71635581Y-44855520D01*
X71700000Y-44868334D01*
X74000000Y-44868334D01*
X74064419Y-44855520D01*
X74119030Y-44819030D01*
X74155520Y-44764419D01*
X74168334Y-44700000D01*
X74168334Y-43600000D01*
X74155520Y-43535581D01*
X74119030Y-43480970D01*
X74064419Y-43444480D01*
X74000000Y-43431666D01*
X71700000Y-43431666D01*
X71635581Y-43444480D01*
X71580970Y-43480970D01*
X71544480Y-43535581D01*
X71531666Y-43600000D01*
X68468334Y-43600000D01*
X68455520Y-43535581D01*
X68419030Y-43480970D01*
X68364419Y-43444480D01*
X68300000Y-43431666D01*
X67391300Y-43431666D01*
X67391300Y-42630876D01*
X67447232Y-42496176D01*
X67447368Y-42340507D01*
X67387921Y-42196636D01*
X67277943Y-42086465D01*
X67134176Y-42026768D01*
X66978507Y-42026632D01*
X66834636Y-42086079D01*
X66724465Y-42196057D01*
X66664768Y-42339824D01*
X66664632Y-42495493D01*
X66724079Y-42639364D01*
X66834057Y-42749535D01*
X66908700Y-42780529D01*
X66908700Y-43431666D01*
X66000000Y-43431666D01*
X65935581Y-43444480D01*
X65880970Y-43480970D01*
X65844480Y-43535581D01*
X65831666Y-43600000D01*
X63168334Y-43600000D01*
X63155520Y-43535581D01*
X63119030Y-43480970D01*
X63064419Y-43444480D01*
X63000000Y-43431666D01*
X62091300Y-43431666D01*
X62091300Y-43301746D01*
X62197364Y-43257921D01*
X62307535Y-43147943D01*
X62367232Y-43004176D01*
X62367368Y-42848507D01*
X62307921Y-42704636D01*
X62197943Y-42594465D01*
X62054176Y-42534768D01*
X61898507Y-42534632D01*
X61754636Y-42594079D01*
X61644465Y-42704057D01*
X61584768Y-42847824D01*
X61584632Y-43003493D01*
X61608700Y-43061741D01*
X61608700Y-43431666D01*
X60700000Y-43431666D01*
X60635581Y-43444480D01*
X60580970Y-43480970D01*
X60544480Y-43535581D01*
X60531666Y-43600000D01*
X57468334Y-43600000D01*
X57455520Y-43535581D01*
X57419030Y-43480970D01*
X57364419Y-43444480D01*
X57300000Y-43431666D01*
X55000000Y-43431666D01*
X54935581Y-43444480D01*
X54880970Y-43480970D01*
X54844480Y-43535581D01*
X54831666Y-43600000D01*
X54147696Y-43600000D01*
X56395203Y-41352493D01*
X72633632Y-41352493D01*
X72693079Y-41496364D01*
X72803057Y-41606535D01*
X72946824Y-41666232D01*
X73102493Y-41666368D01*
X73246364Y-41606921D01*
X73337144Y-41516300D01*
X76354050Y-41516300D01*
X77908700Y-43070950D01*
X77908700Y-43431666D01*
X77000000Y-43431666D01*
X76935581Y-43444480D01*
X76880970Y-43480970D01*
X76844480Y-43535581D01*
X76831666Y-43600000D01*
X76831666Y-44700000D01*
X76844480Y-44764419D01*
X76880970Y-44819030D01*
X76935581Y-44855520D01*
X77000000Y-44868334D01*
X79300000Y-44868334D01*
X79364419Y-44855520D01*
X79419030Y-44819030D01*
X79455520Y-44764419D01*
X79468334Y-44700000D01*
X79468334Y-43600000D01*
X82531666Y-43600000D01*
X82531666Y-44700000D01*
X82544480Y-44764419D01*
X82580970Y-44819030D01*
X82635581Y-44855520D01*
X82700000Y-44868334D01*
X85000000Y-44868334D01*
X85064419Y-44855520D01*
X85119030Y-44819030D01*
X85155520Y-44764419D01*
X85168334Y-44700000D01*
X85168334Y-43600000D01*
X85155520Y-43535581D01*
X85119030Y-43480970D01*
X85064419Y-43444480D01*
X85000000Y-43431666D01*
X82700000Y-43431666D01*
X82635581Y-43444480D01*
X82580970Y-43480970D01*
X82544480Y-43535581D01*
X82531666Y-43600000D01*
X79468334Y-43600000D01*
X79455520Y-43535581D01*
X79419030Y-43480970D01*
X79364419Y-43444480D01*
X79300000Y-43431666D01*
X78391300Y-43431666D01*
X78391300Y-42971000D01*
X78372932Y-42878658D01*
X78320625Y-42800375D01*
X76624625Y-41104375D01*
X76605057Y-41091300D01*
X76546342Y-41052068D01*
X76454000Y-41033700D01*
X73337020Y-41033700D01*
X73246943Y-40943465D01*
X73103176Y-40883768D01*
X72947507Y-40883632D01*
X72803636Y-40943079D01*
X72693465Y-41053057D01*
X72633768Y-41196824D01*
X72633632Y-41352493D01*
X56395203Y-41352493D01*
X60113348Y-37634348D01*
X60133158Y-37604700D01*
X60204198Y-37498383D01*
X60236100Y-37338000D01*
X60236100Y-36868794D01*
X60416440Y-36868794D01*
X60480859Y-36855980D01*
X60535470Y-36819490D01*
X60571960Y-36764879D01*
X60584774Y-36700460D01*
X60584774Y-35600000D01*
X61181666Y-35600000D01*
X61181666Y-36300000D01*
X61194480Y-36364419D01*
X61230970Y-36419030D01*
X61285581Y-36455520D01*
X61350000Y-36468334D01*
X62650000Y-36468334D01*
X62714419Y-36455520D01*
X62769030Y-36419030D01*
X62805520Y-36364419D01*
X62818334Y-36300000D01*
X62818334Y-36173530D01*
X62821342Y-36172932D01*
X62899625Y-36120625D01*
X63449993Y-35570257D01*
X63577493Y-35570368D01*
X63721364Y-35510921D01*
X63831535Y-35400943D01*
X63891232Y-35257176D01*
X63891368Y-35101507D01*
X63831921Y-34957636D01*
X63721943Y-34847465D01*
X63578176Y-34787768D01*
X63422507Y-34787632D01*
X63278636Y-34847079D01*
X63168465Y-34957057D01*
X63108768Y-35100824D01*
X63108656Y-35229094D01*
X62804178Y-35533572D01*
X62769030Y-35480970D01*
X62714419Y-35444480D01*
X62650000Y-35431666D01*
X61350000Y-35431666D01*
X61285581Y-35444480D01*
X61230970Y-35480970D01*
X61194480Y-35535581D01*
X61181666Y-35600000D01*
X60584774Y-35600000D01*
X60584774Y-35501580D01*
X60571960Y-35437161D01*
X60535470Y-35382550D01*
X60480859Y-35346060D01*
X60416440Y-35333246D01*
X59217560Y-35333246D01*
X59153141Y-35346060D01*
X59098530Y-35382550D01*
X59062040Y-35437161D01*
X59049226Y-35501580D01*
X59049226Y-36700460D01*
X59062040Y-36764879D01*
X59098530Y-36819490D01*
X59153141Y-36855980D01*
X59217560Y-36868794D01*
X59397900Y-36868794D01*
X59397900Y-37164404D01*
X53297652Y-43264652D01*
X53206802Y-43400617D01*
X53174900Y-43561000D01*
X53174900Y-48856900D01*
X52419100Y-48856900D01*
X52419100Y-48418334D01*
X52500000Y-48418334D01*
X52564419Y-48405520D01*
X52619030Y-48369030D01*
X52655520Y-48314419D01*
X52668334Y-48250000D01*
X52668334Y-46750000D01*
X52655520Y-46685581D01*
X52619030Y-46630970D01*
X52564419Y-46594480D01*
X52500000Y-46581666D01*
X51500000Y-46581666D01*
X51435581Y-46594480D01*
X51380970Y-46630970D01*
X51344480Y-46685581D01*
X51331666Y-46750000D01*
X51331666Y-48250000D01*
X51344480Y-48314419D01*
X51380970Y-48369030D01*
X51435581Y-48405520D01*
X51500000Y-48418334D01*
X51580900Y-48418334D01*
X51580900Y-48856900D01*
X44601808Y-48856900D01*
X43980100Y-48235192D01*
X43980100Y-47871475D01*
X44979300Y-47871475D01*
X44979300Y-48353573D01*
X45058572Y-48544953D01*
X45205047Y-48691428D01*
X45396426Y-48770700D01*
X45628525Y-48770700D01*
X45758700Y-48640525D01*
X45758700Y-47741300D01*
X45109475Y-47741300D01*
X44979300Y-47871475D01*
X43980100Y-47871475D01*
X43980100Y-46646427D01*
X44979300Y-46646427D01*
X44979300Y-47128525D01*
X45109475Y-47258700D01*
X45758700Y-47258700D01*
X45758700Y-46359475D01*
X46241300Y-46359475D01*
X46241300Y-47258700D01*
X46261300Y-47258700D01*
X46261300Y-47741300D01*
X46241300Y-47741300D01*
X46241300Y-48640525D01*
X46371475Y-48770700D01*
X46603574Y-48770700D01*
X46794953Y-48691428D01*
X46941428Y-48544953D01*
X46994341Y-48417208D01*
X47000000Y-48418334D01*
X48000000Y-48418334D01*
X48064419Y-48405520D01*
X48119030Y-48369030D01*
X48155520Y-48314419D01*
X48168334Y-48250000D01*
X48168334Y-46750000D01*
X48331666Y-46750000D01*
X48331666Y-48250000D01*
X48344480Y-48314419D01*
X48380970Y-48369030D01*
X48435581Y-48405520D01*
X48500000Y-48418334D01*
X49500000Y-48418334D01*
X49564419Y-48405520D01*
X49619030Y-48369030D01*
X49655520Y-48314419D01*
X49668334Y-48250000D01*
X49668334Y-46750000D01*
X49831666Y-46750000D01*
X49831666Y-48250000D01*
X49844480Y-48314419D01*
X49880970Y-48369030D01*
X49935581Y-48405520D01*
X50000000Y-48418334D01*
X51000000Y-48418334D01*
X51064419Y-48405520D01*
X51119030Y-48369030D01*
X51155520Y-48314419D01*
X51168334Y-48250000D01*
X51168334Y-46750000D01*
X51155520Y-46685581D01*
X51119030Y-46630970D01*
X51064419Y-46594480D01*
X51000000Y-46581666D01*
X50000000Y-46581666D01*
X49935581Y-46594480D01*
X49880970Y-46630970D01*
X49844480Y-46685581D01*
X49831666Y-46750000D01*
X49668334Y-46750000D01*
X49655520Y-46685581D01*
X49619030Y-46630970D01*
X49564419Y-46594480D01*
X49500000Y-46581666D01*
X48500000Y-46581666D01*
X48435581Y-46594480D01*
X48380970Y-46630970D01*
X48344480Y-46685581D01*
X48331666Y-46750000D01*
X48168334Y-46750000D01*
X48155520Y-46685581D01*
X48119030Y-46630970D01*
X48064419Y-46594480D01*
X48000000Y-46581666D01*
X47000000Y-46581666D01*
X46994341Y-46582792D01*
X46941428Y-46455047D01*
X46794953Y-46308572D01*
X46603574Y-46229300D01*
X46371475Y-46229300D01*
X46241300Y-46359475D01*
X45758700Y-46359475D01*
X45628525Y-46229300D01*
X45396426Y-46229300D01*
X45205047Y-46308572D01*
X45058572Y-46455047D01*
X44979300Y-46646427D01*
X43980100Y-46646427D01*
X43980100Y-36346808D01*
X46653807Y-33673100D01*
X50399476Y-33673100D01*
X50410581Y-33680520D01*
X50475000Y-33693334D01*
X50600871Y-33693334D01*
X50415303Y-33878579D01*
X50310020Y-34132128D01*
X50309780Y-34406667D01*
X50414620Y-34660400D01*
X50608579Y-34854697D01*
X50862128Y-34959980D01*
X51136667Y-34960220D01*
X51390400Y-34855380D01*
X51584697Y-34661421D01*
X51634993Y-34540294D01*
X51684620Y-34660400D01*
X51878579Y-34854697D01*
X52132128Y-34959980D01*
X52406667Y-34960220D01*
X52660400Y-34855380D01*
X52854697Y-34661421D01*
X52904993Y-34540294D01*
X52954620Y-34660400D01*
X53148579Y-34854697D01*
X53402128Y-34959980D01*
X53676667Y-34960220D01*
X53930400Y-34855380D01*
X54124697Y-34661421D01*
X54174993Y-34540294D01*
X54224620Y-34660400D01*
X54418579Y-34854697D01*
X54672128Y-34959980D01*
X54946667Y-34960220D01*
X55200400Y-34855380D01*
X55394697Y-34661421D01*
X55444993Y-34540294D01*
X55494620Y-34660400D01*
X55688579Y-34854697D01*
X55942128Y-34959980D01*
X56216667Y-34960220D01*
X56470400Y-34855380D01*
X56664697Y-34661421D01*
X56769980Y-34407872D01*
X56770220Y-34133333D01*
X56665380Y-33879600D01*
X56471421Y-33685303D01*
X56350294Y-33635007D01*
X56470400Y-33585380D01*
X56652556Y-33403540D01*
X59049226Y-33403540D01*
X59049226Y-34602420D01*
X59062040Y-34666839D01*
X59098530Y-34721450D01*
X59153141Y-34757940D01*
X59217560Y-34770754D01*
X60416440Y-34770754D01*
X60480859Y-34757940D01*
X60535470Y-34721450D01*
X60571960Y-34666839D01*
X60584774Y-34602420D01*
X60584774Y-34422080D01*
X61186058Y-34422080D01*
X61194480Y-34464419D01*
X61230970Y-34519030D01*
X61285581Y-34555520D01*
X61350000Y-34568334D01*
X62650000Y-34568334D01*
X62714419Y-34555520D01*
X62769030Y-34519030D01*
X62805520Y-34464419D01*
X62818334Y-34400000D01*
X62818334Y-34367493D01*
X71109632Y-34367493D01*
X71169079Y-34511364D01*
X71279057Y-34621535D01*
X71422824Y-34681232D01*
X71578493Y-34681368D01*
X71722364Y-34621921D01*
X71832535Y-34511943D01*
X71877232Y-34404300D01*
X76001666Y-34404300D01*
X76001666Y-34813000D01*
X76014480Y-34877419D01*
X76050970Y-34932030D01*
X76105581Y-34968520D01*
X76170000Y-34981334D01*
X76870000Y-34981334D01*
X76934419Y-34968520D01*
X76989030Y-34932030D01*
X77025520Y-34877419D01*
X77038334Y-34813000D01*
X77038334Y-33513000D01*
X77901666Y-33513000D01*
X77901666Y-34813000D01*
X77914480Y-34877419D01*
X77950970Y-34932030D01*
X78005581Y-34968520D01*
X78070000Y-34981334D01*
X78770000Y-34981334D01*
X78834419Y-34968520D01*
X78889030Y-34932030D01*
X78925520Y-34877419D01*
X78938334Y-34813000D01*
X78938334Y-34244280D01*
X79369226Y-34244280D01*
X79369226Y-34602420D01*
X79382040Y-34666839D01*
X79418530Y-34721450D01*
X79473141Y-34757940D01*
X79537560Y-34770754D01*
X80736440Y-34770754D01*
X80800859Y-34757940D01*
X80855470Y-34721450D01*
X80891960Y-34666839D01*
X80904774Y-34602420D01*
X80904774Y-33403540D01*
X80891960Y-33339121D01*
X80855470Y-33284510D01*
X80800859Y-33248020D01*
X80736440Y-33235206D01*
X79537560Y-33235206D01*
X79473141Y-33248020D01*
X79418530Y-33284510D01*
X79382040Y-33339121D01*
X79369226Y-33403540D01*
X79369226Y-33761680D01*
X78938334Y-33761680D01*
X78938334Y-33513000D01*
X78925520Y-33448581D01*
X78889030Y-33393970D01*
X78834419Y-33357480D01*
X78770000Y-33344666D01*
X78070000Y-33344666D01*
X78005581Y-33357480D01*
X77950970Y-33393970D01*
X77914480Y-33448581D01*
X77901666Y-33513000D01*
X77038334Y-33513000D01*
X77025520Y-33448581D01*
X76989030Y-33393970D01*
X76934419Y-33357480D01*
X76870000Y-33344666D01*
X76170000Y-33344666D01*
X76105581Y-33357480D01*
X76050970Y-33393970D01*
X76014480Y-33448581D01*
X76001666Y-33513000D01*
X76001666Y-33921700D01*
X71634403Y-33921700D01*
X71579176Y-33898768D01*
X71423507Y-33898632D01*
X71279636Y-33958079D01*
X71169465Y-34068057D01*
X71109768Y-34211824D01*
X71109632Y-34367493D01*
X62818334Y-34367493D01*
X62818334Y-33700000D01*
X62805520Y-33635581D01*
X62769030Y-33580970D01*
X62714419Y-33544480D01*
X62650000Y-33531666D01*
X61350000Y-33531666D01*
X61285581Y-33544480D01*
X61230970Y-33580970D01*
X61229026Y-33583880D01*
X60584774Y-33583880D01*
X60584774Y-33403540D01*
X60571960Y-33339121D01*
X60535470Y-33284510D01*
X60480859Y-33248020D01*
X60416440Y-33235206D01*
X59217560Y-33235206D01*
X59153141Y-33248020D01*
X59098530Y-33284510D01*
X59062040Y-33339121D01*
X59049226Y-33403540D01*
X56652556Y-33403540D01*
X56664697Y-33391421D01*
X56769980Y-33137872D01*
X56770220Y-32863333D01*
X56665380Y-32609600D01*
X56471421Y-32415303D01*
X56217872Y-32310020D01*
X55943333Y-32309780D01*
X55689600Y-32414620D01*
X55495303Y-32608579D01*
X55445007Y-32729706D01*
X55395380Y-32609600D01*
X55201421Y-32415303D01*
X54947872Y-32310020D01*
X54673333Y-32309780D01*
X54419600Y-32414620D01*
X54225303Y-32608579D01*
X54191667Y-32689583D01*
X53881250Y-33000000D01*
X54191505Y-33310255D01*
X54224620Y-33390400D01*
X54418579Y-33584697D01*
X54539706Y-33634993D01*
X54419600Y-33684620D01*
X54225303Y-33878579D01*
X54175007Y-33999706D01*
X54125380Y-33879600D01*
X53931421Y-33685303D01*
X53850417Y-33651667D01*
X53540000Y-33341250D01*
X53229745Y-33651505D01*
X53149600Y-33684620D01*
X52955303Y-33878579D01*
X52905007Y-33999706D01*
X52855380Y-33879600D01*
X52661421Y-33685303D01*
X52580417Y-33651667D01*
X52270000Y-33341250D01*
X51959745Y-33651505D01*
X51879600Y-33684620D01*
X51685303Y-33878579D01*
X51635007Y-33999706D01*
X51585380Y-33879600D01*
X51399438Y-33693334D01*
X51525000Y-33693334D01*
X51589419Y-33680520D01*
X51644030Y-33644030D01*
X51680520Y-33589419D01*
X51693334Y-33525000D01*
X51693334Y-33235416D01*
X51928750Y-33000000D01*
X51920946Y-32992196D01*
X52473843Y-32992196D01*
X52552013Y-33400790D01*
X52557986Y-33415211D01*
X52729887Y-33468863D01*
X52905000Y-33293750D01*
X53080113Y-33468863D01*
X53252014Y-33415211D01*
X53336157Y-33007804D01*
X53257987Y-32599210D01*
X53252014Y-32584789D01*
X53080113Y-32531137D01*
X52905000Y-32706250D01*
X52729887Y-32531137D01*
X52557986Y-32584789D01*
X52473843Y-32992196D01*
X51920946Y-32992196D01*
X51693334Y-32764584D01*
X51693334Y-32475000D01*
X51680520Y-32410581D01*
X51644030Y-32355970D01*
X51589419Y-32319480D01*
X51525000Y-32306666D01*
X50475000Y-32306666D01*
X50410581Y-32319480D01*
X50399476Y-32326900D01*
X46375000Y-32326900D01*
X46117416Y-32378137D01*
X45899046Y-32524046D01*
X45899044Y-32524049D01*
X42831046Y-35592046D01*
X42685137Y-35810416D01*
X42633899Y-36068000D01*
X20236197Y-36068000D01*
X22932722Y-33371475D01*
X36479300Y-33371475D01*
X36479300Y-33853573D01*
X36558572Y-34044953D01*
X36705047Y-34191428D01*
X36896426Y-34270700D01*
X37128525Y-34270700D01*
X37258700Y-34140525D01*
X37258700Y-33241300D01*
X36609475Y-33241300D01*
X36479300Y-33371475D01*
X22932722Y-33371475D01*
X24157770Y-32146427D01*
X36479300Y-32146427D01*
X36479300Y-32628525D01*
X36609475Y-32758700D01*
X37258700Y-32758700D01*
X37258700Y-31859475D01*
X37741300Y-31859475D01*
X37741300Y-32758700D01*
X37761300Y-32758700D01*
X37761300Y-33241300D01*
X37741300Y-33241300D01*
X37741300Y-34140525D01*
X37871475Y-34270700D01*
X38103574Y-34270700D01*
X38294953Y-34191428D01*
X38441428Y-34044953D01*
X38494341Y-33917208D01*
X38500000Y-33918334D01*
X39500000Y-33918334D01*
X39564419Y-33905520D01*
X39619030Y-33869030D01*
X39655520Y-33814419D01*
X39668334Y-33750000D01*
X39668334Y-32250000D01*
X39831666Y-32250000D01*
X39831666Y-33750000D01*
X39844480Y-33814419D01*
X39880970Y-33869030D01*
X39935581Y-33905520D01*
X40000000Y-33918334D01*
X41000000Y-33918334D01*
X41064419Y-33905520D01*
X41119030Y-33869030D01*
X41155520Y-33814419D01*
X41168334Y-33750000D01*
X41168334Y-32250000D01*
X41156377Y-32189887D01*
X51801137Y-32189887D01*
X52270000Y-32658750D01*
X52738863Y-32189887D01*
X53071137Y-32189887D01*
X53540000Y-32658750D01*
X54008863Y-32189887D01*
X53955211Y-32017986D01*
X53547804Y-31933843D01*
X53139210Y-32012013D01*
X53124789Y-32017986D01*
X53071137Y-32189887D01*
X52738863Y-32189887D01*
X52685211Y-32017986D01*
X52277804Y-31933843D01*
X51869210Y-32012013D01*
X51854789Y-32017986D01*
X51801137Y-32189887D01*
X41156377Y-32189887D01*
X41155520Y-32185581D01*
X41119030Y-32130970D01*
X41064419Y-32094480D01*
X41000000Y-32081666D01*
X40000000Y-32081666D01*
X39935581Y-32094480D01*
X39880970Y-32130970D01*
X39844480Y-32185581D01*
X39831666Y-32250000D01*
X39668334Y-32250000D01*
X39655520Y-32185581D01*
X39619030Y-32130970D01*
X39564419Y-32094480D01*
X39500000Y-32081666D01*
X38500000Y-32081666D01*
X38494341Y-32082792D01*
X38441428Y-31955047D01*
X38294953Y-31808572D01*
X38103574Y-31729300D01*
X37871475Y-31729300D01*
X37741300Y-31859475D01*
X37258700Y-31859475D01*
X37128525Y-31729300D01*
X36896426Y-31729300D01*
X36705047Y-31808572D01*
X36558572Y-31955047D01*
X36479300Y-32146427D01*
X24157770Y-32146427D01*
X25152096Y-31152101D01*
X25152099Y-31152099D01*
X25168401Y-31127700D01*
X40831599Y-31127700D01*
X40847901Y-31152099D01*
X40917685Y-31198726D01*
X41000000Y-31215100D01*
X59000000Y-31215100D01*
X59082315Y-31198726D01*
X59152099Y-31152099D01*
X59291498Y-31012700D01*
X67494740Y-31012700D01*
X69491020Y-33008980D01*
M02*
