M48
INCH,TZ
T1C0.012
T2C0.026
T3C0.028
T4C0.089
%
G90
G05
T1
X10900Y-17400
X13650Y-14650
X13650Y-21600
X15748Y-16535
X24400Y-16900
X25000Y-13850
X25100Y-12400
X25500Y-17450
X26400Y-16700
X28150Y-13500
X28750Y-16250
X29550Y-17450
X29750Y-18400
X30000Y-12550
X32150Y-14250
X37520Y-17380
X37900Y-14350
X41500Y-14900
X42150Y-22300
X45460Y-17380
T2
X20079Y-12992
X20079Y-13492
X20579Y-12992
X20579Y-13492
X21079Y-12992
X21079Y-13492
X21579Y-12992
X21579Y-13492
X22079Y-12992
X22079Y-13492
T3
X7359Y-6637
X7950Y-6637
X8541Y-6637
X14764Y-12992
X15354Y-12992
X15945Y-12992
X18110Y-18701
X18701Y-18701
X19291Y-18701
X19882Y-18701
X20472Y-18701
X34252Y-18701
X34843Y-18701
X35433Y-18701
X36024Y-18701
X36516Y-12992
X36614Y-18701
X37106Y-12992
X39173Y-12992
X39764Y-12992
X40354Y-12992
X41209Y-6637
X41800Y-6637
X42391Y-6637
T4
X7087Y-21260
X10630Y-8268
X27559Y-22835
X44488Y-8268
X48031Y-21260
T0
M30
