G04 #@! TF.FileFunction,Soldermask,Top*
%FSLAX46Y46*%
G04 Gerber Fmt 4.6, Leading zero omitted, Abs format (unit mm)*
G04 Created by KiCad (PCBNEW (2016-04-11 BZR 6687, Git f239aee)-product) date 4/21/2016 12:06:05 PM*
%MOMM*%
G01*
G04 APERTURE LIST*
%ADD10C,0.020000*%
%ADD11R,1.000000X1.250000*%
%ADD12R,1.198880X1.198880*%
%ADD13R,1.300000X0.700000*%
%ADD14R,0.700000X1.300000*%
%ADD15R,0.800000X0.900000*%
%ADD16R,1.000000X1.500000*%
%ADD17R,1.050000X1.050000*%
%ADD18C,1.050000*%
%ADD19R,2.300000X1.100000*%
%ADD20R,2.700000X1.400000*%
%ADD21R,0.850000X0.350000*%
G04 APERTURE END LIST*
D10*
D11*
X91170000Y-36449000D03*
X89170000Y-36449000D03*
X91290400Y-41149600D03*
X89290400Y-41149600D03*
D12*
X59817000Y-36101020D03*
X59817000Y-34002980D03*
X80137000Y-36101020D03*
X80137000Y-34002980D03*
D13*
X62000000Y-35950000D03*
X62000000Y-34050000D03*
D14*
X76520000Y-34163000D03*
X78420000Y-34163000D03*
D15*
X93284000Y-36814000D03*
X95184000Y-36814000D03*
X94234000Y-34814000D03*
D16*
X92750000Y-33000000D03*
X94250000Y-33000000D03*
X52000000Y-47500000D03*
X49000000Y-47500000D03*
X50500000Y-47500000D03*
X47500000Y-47500000D03*
X46000000Y-47500000D03*
X93000000Y-47500000D03*
X90000000Y-47500000D03*
X91500000Y-47500000D03*
X88500000Y-47500000D03*
X87000000Y-47500000D03*
D17*
X51000000Y-33000000D03*
D18*
X52270000Y-33000000D03*
X53540000Y-33000000D03*
X54810000Y-33000000D03*
X56080000Y-33000000D03*
X52270000Y-34270000D03*
X53540000Y-34270000D03*
X54810000Y-34270000D03*
X56080000Y-34270000D03*
X51000000Y-34270000D03*
D16*
X39000000Y-33000000D03*
X37500000Y-33000000D03*
X40500000Y-33000000D03*
X101000000Y-33000000D03*
X99500000Y-33000000D03*
X102500000Y-33000000D03*
X106172000Y-16859000D03*
X107672000Y-16859000D03*
X104672000Y-16859000D03*
X20193000Y-16859000D03*
X21693000Y-16859000D03*
X18693000Y-16859000D03*
D19*
X39850000Y-44150000D03*
X39850000Y-47850000D03*
X34150000Y-47850000D03*
X34150000Y-44150000D03*
X107150000Y-57850000D03*
X107150000Y-54150000D03*
X112850000Y-54150000D03*
X112850000Y-57850000D03*
X122850000Y-44150000D03*
X122850000Y-47850000D03*
X117150000Y-47850000D03*
X117150000Y-44150000D03*
X102850000Y-44150000D03*
X102850000Y-47850000D03*
X97150000Y-47850000D03*
X97150000Y-44150000D03*
X107150000Y-37850000D03*
X107150000Y-34150000D03*
X112850000Y-34150000D03*
X112850000Y-37850000D03*
X32850000Y-37150000D03*
X32850000Y-40850000D03*
X27150000Y-40850000D03*
X27150000Y-37150000D03*
X27150000Y-54850000D03*
X27150000Y-51150000D03*
X32850000Y-51150000D03*
X32850000Y-54850000D03*
X25850000Y-44150000D03*
X25850000Y-47850000D03*
X20150000Y-47850000D03*
X20150000Y-44150000D03*
X61850000Y-44150000D03*
X61850000Y-47850000D03*
X56150000Y-47850000D03*
X56150000Y-44150000D03*
X83850000Y-44150000D03*
X83850000Y-47850000D03*
X78150000Y-47850000D03*
X78150000Y-44150000D03*
X72850000Y-44150000D03*
X72850000Y-47850000D03*
X67150000Y-47850000D03*
X67150000Y-44150000D03*
X20850000Y-19150000D03*
X20850000Y-22850000D03*
X15150000Y-22850000D03*
X15150000Y-19150000D03*
X38850000Y-19150000D03*
X38850000Y-22850000D03*
X33150000Y-22850000D03*
X33150000Y-19150000D03*
X106850000Y-19150000D03*
X106850000Y-22850000D03*
X101150000Y-22850000D03*
X101150000Y-19150000D03*
X124850000Y-19150000D03*
X124850000Y-22850000D03*
X119150000Y-22850000D03*
X119150000Y-19150000D03*
D20*
X94361000Y-41405000D03*
X94361000Y-38605000D03*
D21*
X91397000Y-38862000D03*
X91397000Y-38212000D03*
X91397000Y-39512000D03*
X89197000Y-39512000D03*
X89197000Y-38212000D03*
X89197000Y-38862000D03*
M02*
