G04 #@! TF.FileFunction,Legend,Top*
%FSLAX46Y46*%
G04 Gerber Fmt 4.6, Leading zero omitted, Abs format (unit mm)*
G04 Created by KiCad (PCBNEW (2016-04-11 BZR 6687, Git f239aee)-product) date 4/21/2016 12:06:05 PM*
%MOMM*%
G01*
G04 APERTURE LIST*
%ADD10C,0.020000*%
%ADD11C,0.200000*%
%ADD12C,0.150000*%
G04 APERTURE END LIST*
D10*
D11*
X25000000Y-27000000D02*
X41000000Y-27000000D01*
X115000000Y-27000000D02*
X99000000Y-27000000D01*
X99000000Y-31000000D02*
X115000000Y-31000000D01*
X41000000Y-31000000D02*
X25000000Y-31000000D01*
D12*
X89670000Y-37299000D02*
X90670000Y-37299000D01*
X90670000Y-35599000D02*
X89670000Y-35599000D01*
X89790400Y-41999600D02*
X90790400Y-41999600D01*
X90790400Y-40299600D02*
X89790400Y-40299600D01*
X59067000Y-33452000D02*
X59067000Y-36152000D01*
X60567000Y-33452000D02*
X60567000Y-36152000D01*
X59667000Y-34952000D02*
X59917000Y-34952000D01*
X59917000Y-34952000D02*
X59767000Y-34802000D01*
X60167000Y-34702000D02*
X59467000Y-34702000D01*
X59817000Y-35052000D02*
X59817000Y-35402000D01*
X59817000Y-34702000D02*
X60167000Y-35052000D01*
X60167000Y-35052000D02*
X59467000Y-35052000D01*
X59467000Y-35052000D02*
X59817000Y-34702000D01*
X79387000Y-33452000D02*
X79387000Y-36152000D01*
X80887000Y-33452000D02*
X80887000Y-36152000D01*
X79987000Y-34952000D02*
X80237000Y-34952000D01*
X80237000Y-34952000D02*
X80087000Y-34802000D01*
X80487000Y-34702000D02*
X79787000Y-34702000D01*
X80137000Y-35052000D02*
X80137000Y-35402000D01*
X80137000Y-34702000D02*
X80487000Y-35052000D01*
X80487000Y-35052000D02*
X79787000Y-35052000D01*
X79787000Y-35052000D02*
X80137000Y-34702000D01*
X62875000Y-34400000D02*
X62875000Y-35600000D01*
X61125000Y-35600000D02*
X61125000Y-34400000D01*
X78070000Y-35038000D02*
X76870000Y-35038000D01*
X76870000Y-33288000D02*
X78070000Y-33288000D01*
X95533160Y-35163760D02*
X95484900Y-35163760D01*
X92734180Y-35864800D02*
X92734180Y-35163760D01*
X92734180Y-35163760D02*
X92983100Y-35163760D01*
X95533160Y-35163760D02*
X95733820Y-35163760D01*
X95733820Y-35163760D02*
X95733820Y-35864800D01*
X103672000Y-15859000D02*
X103672000Y-17859000D01*
X103672000Y-17859000D02*
X108672000Y-17859000D01*
X108672000Y-17859000D02*
X108672000Y-15859000D01*
X108672000Y-15859000D02*
X103672000Y-15859000D01*
X17693000Y-15859000D02*
X17693000Y-17859000D01*
X17693000Y-17859000D02*
X22693000Y-17859000D01*
X22693000Y-17859000D02*
X22693000Y-15859000D01*
X22693000Y-15859000D02*
X17693000Y-15859000D01*
X38400000Y-43450000D02*
X35600000Y-43450000D01*
X34450000Y-47000000D02*
X34450000Y-45000000D01*
X39550000Y-47000000D02*
X39550000Y-45000000D01*
X38000000Y-46000000D02*
G75*
G03X38000000Y-46000000I-1000000J0D01*
G01*
X35600000Y-48550000D02*
X38400000Y-48550000D01*
X108600000Y-58550000D02*
X111400000Y-58550000D01*
X112550000Y-55000000D02*
X112550000Y-57000000D01*
X107450000Y-55000000D02*
X107450000Y-57000000D01*
X111000000Y-56000000D02*
G75*
G03X111000000Y-56000000I-1000000J0D01*
G01*
X111400000Y-53450000D02*
X108600000Y-53450000D01*
X121400000Y-43450000D02*
X118600000Y-43450000D01*
X117450000Y-47000000D02*
X117450000Y-45000000D01*
X122550000Y-47000000D02*
X122550000Y-45000000D01*
X121000000Y-46000000D02*
G75*
G03X121000000Y-46000000I-1000000J0D01*
G01*
X118600000Y-48550000D02*
X121400000Y-48550000D01*
X101400000Y-43450000D02*
X98600000Y-43450000D01*
X97450000Y-47000000D02*
X97450000Y-45000000D01*
X102550000Y-47000000D02*
X102550000Y-45000000D01*
X101000000Y-46000000D02*
G75*
G03X101000000Y-46000000I-1000000J0D01*
G01*
X98600000Y-48550000D02*
X101400000Y-48550000D01*
X108600000Y-38550000D02*
X111400000Y-38550000D01*
X112550000Y-35000000D02*
X112550000Y-37000000D01*
X107450000Y-35000000D02*
X107450000Y-37000000D01*
X111000000Y-36000000D02*
G75*
G03X111000000Y-36000000I-1000000J0D01*
G01*
X111400000Y-33450000D02*
X108600000Y-33450000D01*
X31400000Y-36450000D02*
X28600000Y-36450000D01*
X27450000Y-40000000D02*
X27450000Y-38000000D01*
X32550000Y-40000000D02*
X32550000Y-38000000D01*
X31000000Y-39000000D02*
G75*
G03X31000000Y-39000000I-1000000J0D01*
G01*
X28600000Y-41550000D02*
X31400000Y-41550000D01*
X28600000Y-55550000D02*
X31400000Y-55550000D01*
X32550000Y-52000000D02*
X32550000Y-54000000D01*
X27450000Y-52000000D02*
X27450000Y-54000000D01*
X31000000Y-53000000D02*
G75*
G03X31000000Y-53000000I-1000000J0D01*
G01*
X31400000Y-50450000D02*
X28600000Y-50450000D01*
X24400000Y-43450000D02*
X21600000Y-43450000D01*
X20450000Y-47000000D02*
X20450000Y-45000000D01*
X25550000Y-47000000D02*
X25550000Y-45000000D01*
X24000000Y-46000000D02*
G75*
G03X24000000Y-46000000I-1000000J0D01*
G01*
X21600000Y-48550000D02*
X24400000Y-48550000D01*
X60400000Y-43450000D02*
X57600000Y-43450000D01*
X56450000Y-47000000D02*
X56450000Y-45000000D01*
X61550000Y-47000000D02*
X61550000Y-45000000D01*
X60000000Y-46000000D02*
G75*
G03X60000000Y-46000000I-1000000J0D01*
G01*
X57600000Y-48550000D02*
X60400000Y-48550000D01*
X82400000Y-43450000D02*
X79600000Y-43450000D01*
X78450000Y-47000000D02*
X78450000Y-45000000D01*
X83550000Y-47000000D02*
X83550000Y-45000000D01*
X82000000Y-46000000D02*
G75*
G03X82000000Y-46000000I-1000000J0D01*
G01*
X79600000Y-48550000D02*
X82400000Y-48550000D01*
X71400000Y-43450000D02*
X68600000Y-43450000D01*
X67450000Y-47000000D02*
X67450000Y-45000000D01*
X72550000Y-47000000D02*
X72550000Y-45000000D01*
X71000000Y-46000000D02*
G75*
G03X71000000Y-46000000I-1000000J0D01*
G01*
X68600000Y-48550000D02*
X71400000Y-48550000D01*
X19400000Y-18450000D02*
X16600000Y-18450000D01*
X15450000Y-22000000D02*
X15450000Y-20000000D01*
X20550000Y-22000000D02*
X20550000Y-20000000D01*
X19000000Y-21000000D02*
G75*
G03X19000000Y-21000000I-1000000J0D01*
G01*
X16600000Y-23550000D02*
X19400000Y-23550000D01*
X37400000Y-18450000D02*
X34600000Y-18450000D01*
X33450000Y-22000000D02*
X33450000Y-20000000D01*
X38550000Y-22000000D02*
X38550000Y-20000000D01*
X37000000Y-21000000D02*
G75*
G03X37000000Y-21000000I-1000000J0D01*
G01*
X34600000Y-23550000D02*
X37400000Y-23550000D01*
X105400000Y-18450000D02*
X102600000Y-18450000D01*
X101450000Y-22000000D02*
X101450000Y-20000000D01*
X106550000Y-22000000D02*
X106550000Y-20000000D01*
X105000000Y-21000000D02*
G75*
G03X105000000Y-21000000I-1000000J0D01*
G01*
X102600000Y-23550000D02*
X105400000Y-23550000D01*
X123400000Y-18450000D02*
X120600000Y-18450000D01*
X119450000Y-22000000D02*
X119450000Y-20000000D01*
X124550000Y-22000000D02*
X124550000Y-20000000D01*
X123000000Y-21000000D02*
G75*
G03X123000000Y-21000000I-1000000J0D01*
G01*
X120600000Y-23550000D02*
X123400000Y-23550000D01*
X95861000Y-38505000D02*
X95861000Y-41505000D01*
X92861000Y-41505000D02*
X92861000Y-38505000D01*
X90997000Y-37782000D02*
X89597000Y-37782000D01*
X89597000Y-39942000D02*
X90997000Y-39942000D01*
X86127642Y-36679142D02*
X86080023Y-36726761D01*
X85937166Y-36774380D01*
X85841928Y-36774380D01*
X85699071Y-36726761D01*
X85603833Y-36631523D01*
X85556214Y-36536285D01*
X85508595Y-36345809D01*
X85508595Y-36202952D01*
X85556214Y-36012476D01*
X85603833Y-35917238D01*
X85699071Y-35822000D01*
X85841928Y-35774380D01*
X85937166Y-35774380D01*
X86080023Y-35822000D01*
X86127642Y-35869619D01*
X87080023Y-36774380D02*
X86508595Y-36774380D01*
X86794309Y-36774380D02*
X86794309Y-35774380D01*
X86699071Y-35917238D01*
X86603833Y-36012476D01*
X86508595Y-36060095D01*
X87937166Y-36107714D02*
X87937166Y-36774380D01*
X87699071Y-35726761D02*
X87460976Y-36441047D01*
X88080023Y-36441047D01*
X86127642Y-41632142D02*
X86080023Y-41679761D01*
X85937166Y-41727380D01*
X85841928Y-41727380D01*
X85699071Y-41679761D01*
X85603833Y-41584523D01*
X85556214Y-41489285D01*
X85508595Y-41298809D01*
X85508595Y-41155952D01*
X85556214Y-40965476D01*
X85603833Y-40870238D01*
X85699071Y-40775000D01*
X85841928Y-40727380D01*
X85937166Y-40727380D01*
X86080023Y-40775000D01*
X86127642Y-40822619D01*
X87080023Y-41727380D02*
X86508595Y-41727380D01*
X86794309Y-41727380D02*
X86794309Y-40727380D01*
X86699071Y-40870238D01*
X86603833Y-40965476D01*
X86508595Y-41013095D01*
X87984785Y-40727380D02*
X87508595Y-40727380D01*
X87460976Y-41203571D01*
X87508595Y-41155952D01*
X87603833Y-41108333D01*
X87841928Y-41108333D01*
X87937166Y-41155952D01*
X87984785Y-41203571D01*
X88032404Y-41298809D01*
X88032404Y-41536904D01*
X87984785Y-41632142D01*
X87937166Y-41679761D01*
X87841928Y-41727380D01*
X87603833Y-41727380D01*
X87508595Y-41679761D01*
X87460976Y-41632142D01*
X60269380Y-38808595D02*
X59269380Y-38808595D01*
X59269380Y-38570500D01*
X59317000Y-38427642D01*
X59412238Y-38332404D01*
X59507476Y-38284785D01*
X59697952Y-38237166D01*
X59840809Y-38237166D01*
X60031285Y-38284785D01*
X60126523Y-38332404D01*
X60221761Y-38427642D01*
X60269380Y-38570500D01*
X60269380Y-38808595D01*
X60269380Y-37284785D02*
X60269380Y-37856214D01*
X60269380Y-37570500D02*
X59269380Y-37570500D01*
X59412238Y-37665738D01*
X59507476Y-37760976D01*
X59555095Y-37856214D01*
X80589380Y-38808595D02*
X79589380Y-38808595D01*
X79589380Y-38570500D01*
X79637000Y-38427642D01*
X79732238Y-38332404D01*
X79827476Y-38284785D01*
X80017952Y-38237166D01*
X80160809Y-38237166D01*
X80351285Y-38284785D01*
X80446523Y-38332404D01*
X80541761Y-38427642D01*
X80589380Y-38570500D01*
X80589380Y-38808595D01*
X79684619Y-37856214D02*
X79637000Y-37808595D01*
X79589380Y-37713357D01*
X79589380Y-37475261D01*
X79637000Y-37380023D01*
X79684619Y-37332404D01*
X79779857Y-37284785D01*
X79875095Y-37284785D01*
X80017952Y-37332404D01*
X80589380Y-37903833D01*
X80589380Y-37284785D01*
X62452380Y-38264166D02*
X61976190Y-38597500D01*
X62452380Y-38835595D02*
X61452380Y-38835595D01*
X61452380Y-38454642D01*
X61500000Y-38359404D01*
X61547619Y-38311785D01*
X61642857Y-38264166D01*
X61785714Y-38264166D01*
X61880952Y-38311785D01*
X61928571Y-38359404D01*
X61976190Y-38454642D01*
X61976190Y-38835595D01*
X62452380Y-37311785D02*
X62452380Y-37883214D01*
X62452380Y-37597500D02*
X61452380Y-37597500D01*
X61595238Y-37692738D01*
X61690476Y-37787976D01*
X61738095Y-37883214D01*
X77459833Y-32710380D02*
X77126500Y-32234190D01*
X76888404Y-32710380D02*
X76888404Y-31710380D01*
X77269357Y-31710380D01*
X77364595Y-31758000D01*
X77412214Y-31805619D01*
X77459833Y-31900857D01*
X77459833Y-32043714D01*
X77412214Y-32138952D01*
X77364595Y-32186571D01*
X77269357Y-32234190D01*
X76888404Y-32234190D01*
X78316976Y-32043714D02*
X78316976Y-32710380D01*
X78078880Y-31662761D02*
X77840785Y-32377047D01*
X78459833Y-32377047D01*
X96831261Y-35547619D02*
X96736023Y-35500000D01*
X96640785Y-35404761D01*
X96497928Y-35261904D01*
X96402690Y-35214285D01*
X96307452Y-35214285D01*
X96355071Y-35452380D02*
X96259833Y-35404761D01*
X96164595Y-35309523D01*
X96116976Y-35119047D01*
X96116976Y-34785714D01*
X96164595Y-34595238D01*
X96259833Y-34500000D01*
X96355071Y-34452380D01*
X96545547Y-34452380D01*
X96640785Y-34500000D01*
X96736023Y-34595238D01*
X96783642Y-34785714D01*
X96783642Y-35119047D01*
X96736023Y-35309523D01*
X96640785Y-35404761D01*
X96545547Y-35452380D01*
X96355071Y-35452380D01*
X97736023Y-35452380D02*
X97164595Y-35452380D01*
X97450309Y-35452380D02*
X97450309Y-34452380D01*
X97355071Y-34595238D01*
X97259833Y-34690476D01*
X97164595Y-34738095D01*
X35569166Y-42104761D02*
X35712023Y-42152380D01*
X35950119Y-42152380D01*
X36045357Y-42104761D01*
X36092976Y-42057142D01*
X36140595Y-41961904D01*
X36140595Y-41866666D01*
X36092976Y-41771428D01*
X36045357Y-41723809D01*
X35950119Y-41676190D01*
X35759642Y-41628571D01*
X35664404Y-41580952D01*
X35616785Y-41533333D01*
X35569166Y-41438095D01*
X35569166Y-41342857D01*
X35616785Y-41247619D01*
X35664404Y-41200000D01*
X35759642Y-41152380D01*
X35997738Y-41152380D01*
X36140595Y-41200000D01*
X36473928Y-41152380D02*
X36712023Y-42152380D01*
X36902500Y-41438095D01*
X37092976Y-42152380D01*
X37331071Y-41152380D01*
X37854880Y-41580952D02*
X37759642Y-41533333D01*
X37712023Y-41485714D01*
X37664404Y-41390476D01*
X37664404Y-41342857D01*
X37712023Y-41247619D01*
X37759642Y-41200000D01*
X37854880Y-41152380D01*
X38045357Y-41152380D01*
X38140595Y-41200000D01*
X38188214Y-41247619D01*
X38235833Y-41342857D01*
X38235833Y-41390476D01*
X38188214Y-41485714D01*
X38140595Y-41533333D01*
X38045357Y-41580952D01*
X37854880Y-41580952D01*
X37759642Y-41628571D01*
X37712023Y-41676190D01*
X37664404Y-41771428D01*
X37664404Y-41961904D01*
X37712023Y-42057142D01*
X37759642Y-42104761D01*
X37854880Y-42152380D01*
X38045357Y-42152380D01*
X38140595Y-42104761D01*
X38188214Y-42057142D01*
X38235833Y-41961904D01*
X38235833Y-41771428D01*
X38188214Y-41676190D01*
X38140595Y-41628571D01*
X38045357Y-41580952D01*
X108569166Y-60704761D02*
X108712023Y-60752380D01*
X108950119Y-60752380D01*
X109045357Y-60704761D01*
X109092976Y-60657142D01*
X109140595Y-60561904D01*
X109140595Y-60466666D01*
X109092976Y-60371428D01*
X109045357Y-60323809D01*
X108950119Y-60276190D01*
X108759642Y-60228571D01*
X108664404Y-60180952D01*
X108616785Y-60133333D01*
X108569166Y-60038095D01*
X108569166Y-59942857D01*
X108616785Y-59847619D01*
X108664404Y-59800000D01*
X108759642Y-59752380D01*
X108997738Y-59752380D01*
X109140595Y-59800000D01*
X109473928Y-59752380D02*
X109712023Y-60752380D01*
X109902500Y-60038095D01*
X110092976Y-60752380D01*
X110331071Y-59752380D01*
X111235833Y-60752380D02*
X110664404Y-60752380D01*
X110950119Y-60752380D02*
X110950119Y-59752380D01*
X110854880Y-59895238D01*
X110759642Y-59990476D01*
X110664404Y-60038095D01*
X118569166Y-42104761D02*
X118712023Y-42152380D01*
X118950119Y-42152380D01*
X119045357Y-42104761D01*
X119092976Y-42057142D01*
X119140595Y-41961904D01*
X119140595Y-41866666D01*
X119092976Y-41771428D01*
X119045357Y-41723809D01*
X118950119Y-41676190D01*
X118759642Y-41628571D01*
X118664404Y-41580952D01*
X118616785Y-41533333D01*
X118569166Y-41438095D01*
X118569166Y-41342857D01*
X118616785Y-41247619D01*
X118664404Y-41200000D01*
X118759642Y-41152380D01*
X118997738Y-41152380D01*
X119140595Y-41200000D01*
X119473928Y-41152380D02*
X119712023Y-42152380D01*
X119902500Y-41438095D01*
X120092976Y-42152380D01*
X120331071Y-41152380D01*
X120664404Y-41247619D02*
X120712023Y-41200000D01*
X120807261Y-41152380D01*
X121045357Y-41152380D01*
X121140595Y-41200000D01*
X121188214Y-41247619D01*
X121235833Y-41342857D01*
X121235833Y-41438095D01*
X121188214Y-41580952D01*
X120616785Y-42152380D01*
X121235833Y-42152380D01*
X98645166Y-50315761D02*
X98788023Y-50363380D01*
X99026119Y-50363380D01*
X99121357Y-50315761D01*
X99168976Y-50268142D01*
X99216595Y-50172904D01*
X99216595Y-50077666D01*
X99168976Y-49982428D01*
X99121357Y-49934809D01*
X99026119Y-49887190D01*
X98835642Y-49839571D01*
X98740404Y-49791952D01*
X98692785Y-49744333D01*
X98645166Y-49649095D01*
X98645166Y-49553857D01*
X98692785Y-49458619D01*
X98740404Y-49411000D01*
X98835642Y-49363380D01*
X99073738Y-49363380D01*
X99216595Y-49411000D01*
X99549928Y-49363380D02*
X99788023Y-50363380D01*
X99978500Y-49649095D01*
X100168976Y-50363380D01*
X100407071Y-49363380D01*
X100692785Y-49363380D02*
X101311833Y-49363380D01*
X100978500Y-49744333D01*
X101121357Y-49744333D01*
X101216595Y-49791952D01*
X101264214Y-49839571D01*
X101311833Y-49934809D01*
X101311833Y-50172904D01*
X101264214Y-50268142D01*
X101216595Y-50315761D01*
X101121357Y-50363380D01*
X100835642Y-50363380D01*
X100740404Y-50315761D01*
X100692785Y-50268142D01*
X108569166Y-40704761D02*
X108712023Y-40752380D01*
X108950119Y-40752380D01*
X109045357Y-40704761D01*
X109092976Y-40657142D01*
X109140595Y-40561904D01*
X109140595Y-40466666D01*
X109092976Y-40371428D01*
X109045357Y-40323809D01*
X108950119Y-40276190D01*
X108759642Y-40228571D01*
X108664404Y-40180952D01*
X108616785Y-40133333D01*
X108569166Y-40038095D01*
X108569166Y-39942857D01*
X108616785Y-39847619D01*
X108664404Y-39800000D01*
X108759642Y-39752380D01*
X108997738Y-39752380D01*
X109140595Y-39800000D01*
X109473928Y-39752380D02*
X109712023Y-40752380D01*
X109902500Y-40038095D01*
X110092976Y-40752380D01*
X110331071Y-39752380D01*
X111140595Y-40085714D02*
X111140595Y-40752380D01*
X110902500Y-39704761D02*
X110664404Y-40419047D01*
X111283452Y-40419047D01*
X28569166Y-35104761D02*
X28712023Y-35152380D01*
X28950119Y-35152380D01*
X29045357Y-35104761D01*
X29092976Y-35057142D01*
X29140595Y-34961904D01*
X29140595Y-34866666D01*
X29092976Y-34771428D01*
X29045357Y-34723809D01*
X28950119Y-34676190D01*
X28759642Y-34628571D01*
X28664404Y-34580952D01*
X28616785Y-34533333D01*
X28569166Y-34438095D01*
X28569166Y-34342857D01*
X28616785Y-34247619D01*
X28664404Y-34200000D01*
X28759642Y-34152380D01*
X28997738Y-34152380D01*
X29140595Y-34200000D01*
X29473928Y-34152380D02*
X29712023Y-35152380D01*
X29902500Y-34438095D01*
X30092976Y-35152380D01*
X30331071Y-34152380D01*
X31188214Y-34152380D02*
X30712023Y-34152380D01*
X30664404Y-34628571D01*
X30712023Y-34580952D01*
X30807261Y-34533333D01*
X31045357Y-34533333D01*
X31140595Y-34580952D01*
X31188214Y-34628571D01*
X31235833Y-34723809D01*
X31235833Y-34961904D01*
X31188214Y-35057142D01*
X31140595Y-35104761D01*
X31045357Y-35152380D01*
X30807261Y-35152380D01*
X30712023Y-35104761D01*
X30664404Y-35057142D01*
X28569166Y-57704761D02*
X28712023Y-57752380D01*
X28950119Y-57752380D01*
X29045357Y-57704761D01*
X29092976Y-57657142D01*
X29140595Y-57561904D01*
X29140595Y-57466666D01*
X29092976Y-57371428D01*
X29045357Y-57323809D01*
X28950119Y-57276190D01*
X28759642Y-57228571D01*
X28664404Y-57180952D01*
X28616785Y-57133333D01*
X28569166Y-57038095D01*
X28569166Y-56942857D01*
X28616785Y-56847619D01*
X28664404Y-56800000D01*
X28759642Y-56752380D01*
X28997738Y-56752380D01*
X29140595Y-56800000D01*
X29473928Y-56752380D02*
X29712023Y-57752380D01*
X29902500Y-57038095D01*
X30092976Y-57752380D01*
X30331071Y-56752380D01*
X31140595Y-56752380D02*
X30950119Y-56752380D01*
X30854880Y-56800000D01*
X30807261Y-56847619D01*
X30712023Y-56990476D01*
X30664404Y-57180952D01*
X30664404Y-57561904D01*
X30712023Y-57657142D01*
X30759642Y-57704761D01*
X30854880Y-57752380D01*
X31045357Y-57752380D01*
X31140595Y-57704761D01*
X31188214Y-57657142D01*
X31235833Y-57561904D01*
X31235833Y-57323809D01*
X31188214Y-57228571D01*
X31140595Y-57180952D01*
X31045357Y-57133333D01*
X30854880Y-57133333D01*
X30759642Y-57180952D01*
X30712023Y-57228571D01*
X30664404Y-57323809D01*
X21569166Y-42104761D02*
X21712023Y-42152380D01*
X21950119Y-42152380D01*
X22045357Y-42104761D01*
X22092976Y-42057142D01*
X22140595Y-41961904D01*
X22140595Y-41866666D01*
X22092976Y-41771428D01*
X22045357Y-41723809D01*
X21950119Y-41676190D01*
X21759642Y-41628571D01*
X21664404Y-41580952D01*
X21616785Y-41533333D01*
X21569166Y-41438095D01*
X21569166Y-41342857D01*
X21616785Y-41247619D01*
X21664404Y-41200000D01*
X21759642Y-41152380D01*
X21997738Y-41152380D01*
X22140595Y-41200000D01*
X22473928Y-41152380D02*
X22712023Y-42152380D01*
X22902500Y-41438095D01*
X23092976Y-42152380D01*
X23331071Y-41152380D01*
X23616785Y-41152380D02*
X24283452Y-41152380D01*
X23854880Y-42152380D01*
X57497166Y-42949761D02*
X57640023Y-42997380D01*
X57878119Y-42997380D01*
X57973357Y-42949761D01*
X58020976Y-42902142D01*
X58068595Y-42806904D01*
X58068595Y-42711666D01*
X58020976Y-42616428D01*
X57973357Y-42568809D01*
X57878119Y-42521190D01*
X57687642Y-42473571D01*
X57592404Y-42425952D01*
X57544785Y-42378333D01*
X57497166Y-42283095D01*
X57497166Y-42187857D01*
X57544785Y-42092619D01*
X57592404Y-42045000D01*
X57687642Y-41997380D01*
X57925738Y-41997380D01*
X58068595Y-42045000D01*
X58401928Y-41997380D02*
X58640023Y-42997380D01*
X58830500Y-42283095D01*
X59020976Y-42997380D01*
X59259071Y-41997380D01*
X59687642Y-42997380D02*
X59878119Y-42997380D01*
X59973357Y-42949761D01*
X60020976Y-42902142D01*
X60116214Y-42759285D01*
X60163833Y-42568809D01*
X60163833Y-42187857D01*
X60116214Y-42092619D01*
X60068595Y-42045000D01*
X59973357Y-41997380D01*
X59782880Y-41997380D01*
X59687642Y-42045000D01*
X59640023Y-42092619D01*
X59592404Y-42187857D01*
X59592404Y-42425952D01*
X59640023Y-42521190D01*
X59687642Y-42568809D01*
X59782880Y-42616428D01*
X59973357Y-42616428D01*
X60068595Y-42568809D01*
X60116214Y-42521190D01*
X60163833Y-42425952D01*
X79118976Y-42822761D02*
X79261833Y-42870380D01*
X79499928Y-42870380D01*
X79595166Y-42822761D01*
X79642785Y-42775142D01*
X79690404Y-42679904D01*
X79690404Y-42584666D01*
X79642785Y-42489428D01*
X79595166Y-42441809D01*
X79499928Y-42394190D01*
X79309452Y-42346571D01*
X79214214Y-42298952D01*
X79166595Y-42251333D01*
X79118976Y-42156095D01*
X79118976Y-42060857D01*
X79166595Y-41965619D01*
X79214214Y-41918000D01*
X79309452Y-41870380D01*
X79547547Y-41870380D01*
X79690404Y-41918000D01*
X80023738Y-41870380D02*
X80261833Y-42870380D01*
X80452309Y-42156095D01*
X80642785Y-42870380D01*
X80880880Y-41870380D01*
X81785642Y-42870380D02*
X81214214Y-42870380D01*
X81499928Y-42870380D02*
X81499928Y-41870380D01*
X81404690Y-42013238D01*
X81309452Y-42108476D01*
X81214214Y-42156095D01*
X82404690Y-41870380D02*
X82499928Y-41870380D01*
X82595166Y-41918000D01*
X82642785Y-41965619D01*
X82690404Y-42060857D01*
X82738023Y-42251333D01*
X82738023Y-42489428D01*
X82690404Y-42679904D01*
X82642785Y-42775142D01*
X82595166Y-42822761D01*
X82499928Y-42870380D01*
X82404690Y-42870380D01*
X82309452Y-42822761D01*
X82261833Y-42775142D01*
X82214214Y-42679904D01*
X82166595Y-42489428D01*
X82166595Y-42251333D01*
X82214214Y-42060857D01*
X82261833Y-41965619D01*
X82309452Y-41918000D01*
X82404690Y-41870380D01*
X68323976Y-42822761D02*
X68466833Y-42870380D01*
X68704928Y-42870380D01*
X68800166Y-42822761D01*
X68847785Y-42775142D01*
X68895404Y-42679904D01*
X68895404Y-42584666D01*
X68847785Y-42489428D01*
X68800166Y-42441809D01*
X68704928Y-42394190D01*
X68514452Y-42346571D01*
X68419214Y-42298952D01*
X68371595Y-42251333D01*
X68323976Y-42156095D01*
X68323976Y-42060857D01*
X68371595Y-41965619D01*
X68419214Y-41918000D01*
X68514452Y-41870380D01*
X68752547Y-41870380D01*
X68895404Y-41918000D01*
X69228738Y-41870380D02*
X69466833Y-42870380D01*
X69657309Y-42156095D01*
X69847785Y-42870380D01*
X70085880Y-41870380D01*
X70990642Y-42870380D02*
X70419214Y-42870380D01*
X70704928Y-42870380D02*
X70704928Y-41870380D01*
X70609690Y-42013238D01*
X70514452Y-42108476D01*
X70419214Y-42156095D01*
X71943023Y-42870380D02*
X71371595Y-42870380D01*
X71657309Y-42870380D02*
X71657309Y-41870380D01*
X71562071Y-42013238D01*
X71466833Y-42108476D01*
X71371595Y-42156095D01*
X16092976Y-25404761D02*
X16235833Y-25452380D01*
X16473928Y-25452380D01*
X16569166Y-25404761D01*
X16616785Y-25357142D01*
X16664404Y-25261904D01*
X16664404Y-25166666D01*
X16616785Y-25071428D01*
X16569166Y-25023809D01*
X16473928Y-24976190D01*
X16283452Y-24928571D01*
X16188214Y-24880952D01*
X16140595Y-24833333D01*
X16092976Y-24738095D01*
X16092976Y-24642857D01*
X16140595Y-24547619D01*
X16188214Y-24500000D01*
X16283452Y-24452380D01*
X16521547Y-24452380D01*
X16664404Y-24500000D01*
X16997738Y-24452380D02*
X17235833Y-25452380D01*
X17426309Y-24738095D01*
X17616785Y-25452380D01*
X17854880Y-24452380D01*
X18759642Y-25452380D02*
X18188214Y-25452380D01*
X18473928Y-25452380D02*
X18473928Y-24452380D01*
X18378690Y-24595238D01*
X18283452Y-24690476D01*
X18188214Y-24738095D01*
X19140595Y-24547619D02*
X19188214Y-24500000D01*
X19283452Y-24452380D01*
X19521547Y-24452380D01*
X19616785Y-24500000D01*
X19664404Y-24547619D01*
X19712023Y-24642857D01*
X19712023Y-24738095D01*
X19664404Y-24880952D01*
X19092976Y-25452380D01*
X19712023Y-25452380D01*
X34092976Y-25404761D02*
X34235833Y-25452380D01*
X34473928Y-25452380D01*
X34569166Y-25404761D01*
X34616785Y-25357142D01*
X34664404Y-25261904D01*
X34664404Y-25166666D01*
X34616785Y-25071428D01*
X34569166Y-25023809D01*
X34473928Y-24976190D01*
X34283452Y-24928571D01*
X34188214Y-24880952D01*
X34140595Y-24833333D01*
X34092976Y-24738095D01*
X34092976Y-24642857D01*
X34140595Y-24547619D01*
X34188214Y-24500000D01*
X34283452Y-24452380D01*
X34521547Y-24452380D01*
X34664404Y-24500000D01*
X34997738Y-24452380D02*
X35235833Y-25452380D01*
X35426309Y-24738095D01*
X35616785Y-25452380D01*
X35854880Y-24452380D01*
X36759642Y-25452380D02*
X36188214Y-25452380D01*
X36473928Y-25452380D02*
X36473928Y-24452380D01*
X36378690Y-24595238D01*
X36283452Y-24690476D01*
X36188214Y-24738095D01*
X37092976Y-24452380D02*
X37712023Y-24452380D01*
X37378690Y-24833333D01*
X37521547Y-24833333D01*
X37616785Y-24880952D01*
X37664404Y-24928571D01*
X37712023Y-25023809D01*
X37712023Y-25261904D01*
X37664404Y-25357142D01*
X37616785Y-25404761D01*
X37521547Y-25452380D01*
X37235833Y-25452380D01*
X37140595Y-25404761D01*
X37092976Y-25357142D01*
X102092976Y-25404761D02*
X102235833Y-25452380D01*
X102473928Y-25452380D01*
X102569166Y-25404761D01*
X102616785Y-25357142D01*
X102664404Y-25261904D01*
X102664404Y-25166666D01*
X102616785Y-25071428D01*
X102569166Y-25023809D01*
X102473928Y-24976190D01*
X102283452Y-24928571D01*
X102188214Y-24880952D01*
X102140595Y-24833333D01*
X102092976Y-24738095D01*
X102092976Y-24642857D01*
X102140595Y-24547619D01*
X102188214Y-24500000D01*
X102283452Y-24452380D01*
X102521547Y-24452380D01*
X102664404Y-24500000D01*
X102997738Y-24452380D02*
X103235833Y-25452380D01*
X103426309Y-24738095D01*
X103616785Y-25452380D01*
X103854880Y-24452380D01*
X104759642Y-25452380D02*
X104188214Y-25452380D01*
X104473928Y-25452380D02*
X104473928Y-24452380D01*
X104378690Y-24595238D01*
X104283452Y-24690476D01*
X104188214Y-24738095D01*
X105616785Y-24785714D02*
X105616785Y-25452380D01*
X105378690Y-24404761D02*
X105140595Y-25119047D01*
X105759642Y-25119047D01*
X120092976Y-25404761D02*
X120235833Y-25452380D01*
X120473928Y-25452380D01*
X120569166Y-25404761D01*
X120616785Y-25357142D01*
X120664404Y-25261904D01*
X120664404Y-25166666D01*
X120616785Y-25071428D01*
X120569166Y-25023809D01*
X120473928Y-24976190D01*
X120283452Y-24928571D01*
X120188214Y-24880952D01*
X120140595Y-24833333D01*
X120092976Y-24738095D01*
X120092976Y-24642857D01*
X120140595Y-24547619D01*
X120188214Y-24500000D01*
X120283452Y-24452380D01*
X120521547Y-24452380D01*
X120664404Y-24500000D01*
X120997738Y-24452380D02*
X121235833Y-25452380D01*
X121426309Y-24738095D01*
X121616785Y-25452380D01*
X121854880Y-24452380D01*
X122759642Y-25452380D02*
X122188214Y-25452380D01*
X122473928Y-25452380D02*
X122473928Y-24452380D01*
X122378690Y-24595238D01*
X122283452Y-24690476D01*
X122188214Y-24738095D01*
X123664404Y-24452380D02*
X123188214Y-24452380D01*
X123140595Y-24928571D01*
X123188214Y-24880952D01*
X123283452Y-24833333D01*
X123521547Y-24833333D01*
X123616785Y-24880952D01*
X123664404Y-24928571D01*
X123712023Y-25023809D01*
X123712023Y-25261904D01*
X123664404Y-25357142D01*
X123616785Y-25404761D01*
X123521547Y-25452380D01*
X123283452Y-25452380D01*
X123188214Y-25404761D01*
X123140595Y-25357142D01*
X97099380Y-40396166D02*
X97099380Y-40872357D01*
X96099380Y-40872357D01*
X96432714Y-39634261D02*
X97099380Y-39634261D01*
X96051761Y-39872357D02*
X96766047Y-40110452D01*
X96766047Y-39491404D01*
X86643595Y-38314380D02*
X86643595Y-39123904D01*
X86691214Y-39219142D01*
X86738833Y-39266761D01*
X86834071Y-39314380D01*
X87024547Y-39314380D01*
X87119785Y-39266761D01*
X87167404Y-39219142D01*
X87215023Y-39123904D01*
X87215023Y-38314380D01*
X87643595Y-38409619D02*
X87691214Y-38362000D01*
X87786452Y-38314380D01*
X88024547Y-38314380D01*
X88119785Y-38362000D01*
X88167404Y-38409619D01*
X88215023Y-38504857D01*
X88215023Y-38600095D01*
X88167404Y-38742952D01*
X87595976Y-39314380D01*
X88215023Y-39314380D01*
M02*
