G04 #@! TF.FileFunction,Soldermask,Bot*
%FSLAX46Y46*%
G04 Gerber Fmt 4.6, Leading zero omitted, Abs format (unit mm)*
G04 Created by KiCad (PCBNEW (2016-04-11 BZR 6687, Git f239aee)-product) date 4/21/2016 12:06:05 PM*
%MOMM*%
G01*
G04 APERTURE LIST*
%ADD10C,0.020000*%
%ADD11R,1.000000X1.250000*%
%ADD12R,1.250000X1.000000*%
%ADD13R,1.550000X1.000000*%
%ADD14R,1.000000X1.500000*%
%ADD15R,1.050000X1.050000*%
%ADD16C,1.050000*%
%ADD17R,1.700000X0.500000*%
%ADD18R,0.500000X1.700000*%
G04 APERTURE END LIST*
D10*
D11*
X79518000Y-40386000D03*
X81518000Y-40386000D03*
X79518000Y-42672000D03*
X81518000Y-42672000D03*
D12*
X76962000Y-36179000D03*
X76962000Y-34179000D03*
D13*
X77597000Y-42829000D03*
X77597000Y-40229000D03*
D14*
X92750000Y-33000000D03*
X94250000Y-33000000D03*
X52000000Y-47500000D03*
X49000000Y-47500000D03*
X50500000Y-47500000D03*
X47500000Y-47500000D03*
X46000000Y-47500000D03*
X93000000Y-47500000D03*
X90000000Y-47500000D03*
X91500000Y-47500000D03*
X88500000Y-47500000D03*
X87000000Y-47500000D03*
D15*
X51000000Y-33000000D03*
D16*
X52270000Y-33000000D03*
X53540000Y-33000000D03*
X54810000Y-33000000D03*
X56080000Y-33000000D03*
X52270000Y-34270000D03*
X53540000Y-34270000D03*
X54810000Y-34270000D03*
X56080000Y-34270000D03*
X51000000Y-34270000D03*
D14*
X39000000Y-33000000D03*
X37500000Y-33000000D03*
X40500000Y-33000000D03*
X101000000Y-33000000D03*
X99500000Y-33000000D03*
X102500000Y-33000000D03*
X106172000Y-16859000D03*
X107672000Y-16859000D03*
X104672000Y-16859000D03*
X20193000Y-16859000D03*
X21693000Y-16859000D03*
X18693000Y-16859000D03*
D17*
X65250000Y-31500000D03*
X65250000Y-37100000D03*
X65250000Y-36400000D03*
X65250000Y-35000000D03*
X65250000Y-35700000D03*
X65250000Y-32900000D03*
X65250000Y-32200000D03*
X65250000Y-33600000D03*
X65250000Y-34300000D03*
X65250000Y-39900000D03*
X65250000Y-39200000D03*
X65250000Y-37800000D03*
X65250000Y-38500000D03*
X65250000Y-41300000D03*
X65250000Y-40600000D03*
X65250000Y-42000000D03*
X65250000Y-42700000D03*
D18*
X65800000Y-44250000D03*
X70000000Y-44250000D03*
X69300000Y-44250000D03*
X67900000Y-44250000D03*
X68600000Y-44250000D03*
X67200000Y-44250000D03*
X66500000Y-44250000D03*
X70700000Y-44250000D03*
X71400000Y-44250000D03*
X72800000Y-44250000D03*
X72100000Y-44250000D03*
X73500000Y-44250000D03*
X74200000Y-44250000D03*
D17*
X74750000Y-42700000D03*
X74750000Y-42000000D03*
X74750000Y-39900000D03*
X74750000Y-37800000D03*
X74750000Y-40600000D03*
X74750000Y-41300000D03*
X74750000Y-39200000D03*
X74750000Y-38500000D03*
X74750000Y-36400000D03*
X74750000Y-37100000D03*
X74750000Y-32200000D03*
X74750000Y-31500000D03*
M02*
