G04 #@! TF.FileFunction,Profile,NP*
%FSLAX46Y46*%
G04 Gerber Fmt 4.6, Leading zero omitted, Abs format (unit mm)*
G04 Created by KiCad (PCBNEW (2016-04-11 BZR 6687, Git f239aee)-product) date 4/14/2016 1:21:30 PM*
%MOMM*%
G01*
G04 APERTURE LIST*
%ADD10C,0.020000*%
%ADD11C,0.100000*%
G04 APERTURE END LIST*
D10*
D11*
X81000000Y-31000000D02*
X99000000Y-31000000D01*
X76000000Y-26000000D02*
X81000000Y-31000000D01*
X64000000Y-26000000D02*
X76000000Y-26000000D01*
X59000000Y-31000000D02*
X41000000Y-31000000D01*
X64000000Y-26000000D02*
X59000000Y-31000000D01*
X99000000Y-25000000D02*
X99000000Y-31000000D01*
X115000000Y-25000000D02*
X115000000Y-31000000D01*
X127000000Y-25000000D02*
X115000000Y-25000000D01*
X25000000Y-25000000D02*
X25000000Y-31000000D01*
X13000000Y-25000000D02*
X25000000Y-25000000D01*
X41000000Y-25000000D02*
X41000000Y-31000000D01*
X34000000Y-63000000D02*
X13000000Y-63000000D01*
X13000000Y-13000000D02*
X41000000Y-13000000D01*
X13000000Y-60000000D02*
X13000000Y-63000000D01*
X13000000Y-25000000D02*
X13000000Y-13000000D01*
X13000000Y-43000000D02*
X13000000Y-60000000D01*
X41000000Y-13000000D02*
X41000000Y-25000000D01*
X127000000Y-13000000D02*
X99000000Y-13000000D01*
X127000000Y-25000000D02*
X127000000Y-13000000D01*
X99000000Y-13000000D02*
X99000000Y-25000000D01*
X127000000Y-60000000D02*
X127000000Y-63000000D01*
X115000000Y-31000000D02*
X127000000Y-43000000D01*
X127000000Y-43000000D02*
X127000000Y-60000000D01*
X70000000Y-63000000D02*
X74000000Y-63000000D01*
X74000000Y-63000000D02*
X82000000Y-51000000D01*
X82000000Y-51000000D02*
X98000000Y-51000000D01*
X106000000Y-63000000D02*
X127000000Y-63000000D01*
X98000000Y-51000000D02*
X106000000Y-63000000D01*
X42000000Y-51000000D02*
X34000000Y-63000000D01*
X58000000Y-51000000D02*
X42000000Y-51000000D01*
X66000000Y-63000000D02*
X58000000Y-51000000D01*
X70000000Y-63000000D02*
X66000000Y-63000000D01*
X25000000Y-31000000D02*
X13000000Y-43000000D01*
M02*
