G04 #@! TF.FileFunction,Soldermask,Bot*
%FSLAX46Y46*%
G04 Gerber Fmt 4.6, Leading zero omitted, Abs format (unit mm)*
G04 Created by KiCad (PCBNEW (2016-04-11 BZR 6687, Git f239aee)-product) date 4/14/2016 1:21:30 PM*
%MOMM*%
G01*
G04 APERTURE LIST*
%ADD10C,0.020000*%
%ADD11R,1.300000X0.700000*%
%ADD12R,0.700000X1.300000*%
%ADD13R,1.000000X1.250000*%
%ADD14R,1.700000X0.500000*%
%ADD15R,0.500000X1.700000*%
%ADD16R,1.250000X1.000000*%
%ADD17R,1.000000X1.500000*%
%ADD18R,1.550000X1.000000*%
%ADD19R,1.050000X1.050000*%
%ADD20C,1.050000*%
G04 APERTURE END LIST*
D10*
D11*
X105460800Y-34427200D03*
X105460800Y-32527200D03*
X96570800Y-34427200D03*
X96570800Y-32527200D03*
X34594800Y-34376400D03*
X34594800Y-32476400D03*
X43383200Y-34427200D03*
X43383200Y-32527200D03*
D12*
X37932400Y-45999400D03*
X36032400Y-45999400D03*
X23962400Y-45999400D03*
X22062400Y-45999400D03*
X30947400Y-52984400D03*
X29047400Y-52984400D03*
X30947400Y-38989000D03*
X29047400Y-38989000D03*
X109032000Y-36017200D03*
X110932000Y-36017200D03*
X98999000Y-45974000D03*
X100899000Y-45974000D03*
X119065000Y-45999400D03*
X120965000Y-45999400D03*
X109057400Y-56007000D03*
X110957400Y-56007000D03*
D13*
X79518000Y-40386000D03*
X81518000Y-40386000D03*
X79518000Y-42672000D03*
X81518000Y-42672000D03*
D12*
X61148000Y-43942000D03*
X59248000Y-43942000D03*
X61148000Y-41783000D03*
X59248000Y-41783000D03*
X61148000Y-46101000D03*
X59248000Y-46101000D03*
D14*
X65250000Y-31500000D03*
X65250000Y-37100000D03*
X65250000Y-36400000D03*
X65250000Y-35000000D03*
X65250000Y-35700000D03*
X65250000Y-32900000D03*
X65250000Y-32200000D03*
X65250000Y-33600000D03*
X65250000Y-34300000D03*
X65250000Y-39900000D03*
X65250000Y-39200000D03*
X65250000Y-37800000D03*
X65250000Y-38500000D03*
X65250000Y-41300000D03*
X65250000Y-40600000D03*
X65250000Y-42000000D03*
X65250000Y-42700000D03*
D15*
X65800000Y-44250000D03*
X70000000Y-44250000D03*
X69300000Y-44250000D03*
X67900000Y-44250000D03*
X68600000Y-44250000D03*
X67200000Y-44250000D03*
X66500000Y-44250000D03*
X70700000Y-44250000D03*
X71400000Y-44250000D03*
X72800000Y-44250000D03*
X72100000Y-44250000D03*
X73500000Y-44250000D03*
X74200000Y-44250000D03*
D14*
X74750000Y-42700000D03*
X74750000Y-42000000D03*
X74750000Y-39900000D03*
X74750000Y-37800000D03*
X74750000Y-40600000D03*
X74750000Y-41300000D03*
X74750000Y-39200000D03*
X74750000Y-38500000D03*
X74750000Y-36400000D03*
X74750000Y-37100000D03*
X74750000Y-32200000D03*
X74750000Y-31500000D03*
D16*
X76962000Y-36179000D03*
X76962000Y-34179000D03*
D17*
X20193000Y-14859000D03*
X21693000Y-14859000D03*
X18693000Y-14859000D03*
X106172000Y-14859000D03*
X107672000Y-14859000D03*
X104672000Y-14859000D03*
D18*
X77597000Y-42829000D03*
X77597000Y-40229000D03*
D17*
X91250000Y-33000000D03*
X92750000Y-33000000D03*
X52000000Y-47500000D03*
X49000000Y-47500000D03*
X50500000Y-47500000D03*
X47500000Y-47500000D03*
X46000000Y-47500000D03*
X93000000Y-47500000D03*
X90000000Y-47500000D03*
X91500000Y-47500000D03*
X88500000Y-47500000D03*
X87000000Y-47500000D03*
D19*
X51000000Y-33000000D03*
D20*
X52270000Y-33000000D03*
X53540000Y-33000000D03*
X54810000Y-33000000D03*
X56080000Y-33000000D03*
X52270000Y-34270000D03*
X53540000Y-34270000D03*
X54810000Y-34270000D03*
X56080000Y-34270000D03*
X51000000Y-34270000D03*
D17*
X39000000Y-33000000D03*
X37500000Y-33000000D03*
X40500000Y-33000000D03*
X101000000Y-33000000D03*
X99500000Y-33000000D03*
X102500000Y-33000000D03*
M02*
